<svg width="1238" height="2394" viewBox="0 0 1238 2394" fill="none" xmlns="http://www.w3.org/2000/svg">
<path d="M178.201 463.81L60 531.742L30 514.501V548.984L-0.206642 566.344L30 583.704V2124.8C30 2186.37 62.9119 2243.24 116.295 2273.92L233.906 2341.52V2376L263.906 2358.76L293.906 2376V2341.52L411.517 2273.92C464.901 2243.24 497.812 2186.37 497.812 2124.8V1585.73C497.812 1545.76 519.117 1508.82 553.714 1488.79L740.156 1380.9V1714.64C740.156 1776.21 773.068 1833.09 826.451 1863.77L944.062 1931.36V1965.84L974.062 1948.6L1004.06 1965.84V1931.36L1121.67 1863.77C1175.06 1833.09 1207.97 1776.21 1207.97 1714.64V1093.69C1207.97 1024.94 1184.47 970.341 1131.41 939.776L1131.98 938.771L1089.54 914.379C1091.83 911.515 1094.09 908.606 1096.34 905.651C1129.13 863.011 1155.44 817.02 1175.19 767.728C1196.62 718.164 1207.97 670.458 1207.97 624.938V390.563V173.548L1238.18 156.188L1207.97 138.827V104.345L1177.97 121.586L1059.77 53.6541C1006.7 23.156 941.424 23.156 888.358 53.6541L770.156 121.586L740.156 104.345V138.827L709.95 156.188L740.156 173.548V841.903L709.82 859.238L710.106 859.402L497.812 982.258V583.704L528.019 566.344L497.812 548.984V514.501L467.812 531.742L349.611 463.81C296.544 433.312 231.268 433.312 178.201 463.81Z" fill="url(#paint0_linear_510_1276)" stroke="white" stroke-width="60"/>
<defs>
<linearGradient id="paint0_linear_510_1276" x1="-392.177" y1="1173.77" x2="1672.86" y2="1173.77" gradientUnits="userSpaceOnUse">
<stop stop-color="#4DDABB"/>
<stop offset="1" stop-color="#3D4BC6"/>
</linearGradient>
</defs>
</svg>
