<svg width="301" height="321" viewBox="0 0 301 321" fill="none" xmlns="http://www.w3.org/2000/svg">
<path d="M170.398 240.46C173.007 220.29 163.446 186.742 159.996 177.523C156.546 168.303 152.738 154.054 153.227 148.718C153.716 143.383 137.386 125.295 137.386 125.295C136.963 125.487 136.559 125.717 136.179 125.985L99.7491 128.548C99.7491 128.548 81.9253 148.068 93.6839 177.998C96.6056 185.421 94.6687 192.559 89.7709 196.437C84.8731 200.315 76.9689 216.822 86.3275 227.499C95.686 238.176 94.2056 251.274 90.2405 259.524C86.2753 267.774 79.408 279.421 94.6687 294.464H115.845C115.845 294.464 122.738 276.994 127.173 267.787C130.081 261.736 134.255 248.99 135.533 233.407C137.627 236.439 139.955 239.152 142.003 241.774C148.609 250.233 145.225 252.269 141.775 269.752C138.325 287.235 151.251 293.826 151.251 293.826L169.074 293.176C172.498 286.37 168.507 254.898 170.398 240.46Z" fill="black"/>
<path d="M101.047 129.264L102.945 117.116L104.875 117.415L103.349 127.129L137.21 124.611L135.533 115.437L137.451 115.086L139.525 126.394L101.047 129.264Z" fill="black"/>
<path d="M102.716 295.524C96.9838 290.586 97.6881 272.452 102.553 265.594C106.714 259.738 109.727 237.388 100.075 229.158C96.8925 226.438 95.1707 223.139 94.9555 219.352C94.5316 211.662 100.336 203.737 105.279 198.473C112.681 190.568 107.125 176.214 107.066 176.071L108.886 175.355C109.14 176.006 114.957 190.971 106.708 199.8C102.873 203.899 96.5011 211.87 96.9251 219.248C97.1077 222.502 98.6011 225.312 101.36 227.674C111.938 236.712 108.736 260.291 104.164 266.713C99.8924 272.725 99.0837 289.792 104.008 294.041L102.716 295.524Z" fill="white"/>
<path d="M116.803 294.567L115.049 293.708C128.888 265.73 133.629 241.728 135.168 226.535C137.125 207.094 134.803 193.534 132.201 187.834C126.181 174.652 130.636 157.95 130.825 157.254L132.716 157.761C132.67 157.931 128.262 174.503 133.981 187.041C139.616 199.37 142.838 241.903 116.803 294.567Z" fill="white"/>
<path d="M111.416 313.332L119.34 293.162H90.4619L91.7662 318.537L91.8706 320.489H95.4771L96.1292 318.537L96.8466 316.423L98.9922 318.537L100.297 319.839H119.542V313.332H111.416ZM96.0184 312.844L94.0945 318.537H93.7423L92.5293 295.114H116.47L108.546 315.284H117.586V317.887H101.138L96.0184 312.844Z" fill="black"/>
<path d="M165.559 312.684L173.482 292.514H144.604L145.961 318.54L146.026 319.841H149.672L150.115 318.54L151.048 315.774L153.852 318.54L154.504 319.19H173.711V312.684H165.559ZM150.161 312.196L148.237 317.889H147.885L146.665 294.466H170.613L162.715 314.636H171.754V317.238H155.28L150.161 312.196Z" fill="black"/>
<path d="M114.768 78.7807C114.513 79.5845 114.129 80.3423 113.634 81.0254C113.251 81.5705 112.831 82.088 112.375 82.574L111.025 81.8452L110.692 81.5199C111.132 81.0743 111.54 80.5981 111.912 80.095C112.805 78.8848 113.177 77.8177 113.008 76.9654C112.797 76.2205 112.27 75.6048 111.566 75.2802L112.323 73.4844C113.619 74.0443 114.582 75.171 114.931 76.5359C115.073 77.2856 115.017 78.0592 114.768 78.7807Z" fill="#FF5486"/>
<path d="M119.353 109.03C118.353 110.029 116.983 110.568 115.57 110.52C111.005 110.52 105.487 106.083 105.188 105.836L106.427 104.326C108.709 106.187 115.231 110.423 117.963 107.657L119.353 109.03Z" fill="#FF5486"/>
<path d="M134.3 92.1843C134.22 92.3533 134.124 92.5145 134.013 92.6658L132.422 91.5272C132.485 91.4427 132.537 91.351 132.578 91.2539L134.3 92.1843Z" fill="#FF5486"/>
<path d="M123.175 97.6627C122.928 97.9534 122.624 98.1904 122.281 98.3589C121.877 98.5689 121.432 98.6888 120.977 98.7102H120.755C117.279 98.7102 112.277 94.1167 111.684 93.5831L112.988 92.1582C114.944 93.9605 118.681 96.7583 120.71 96.7583H120.833C121.121 96.7594 121.396 96.6389 121.59 96.4265L123.175 97.6627Z" fill="#FF5486"/>
<path d="M139.824 101.989L139.263 103.857C138.708 103.674 138.101 103.748 137.607 104.058C135.794 105.106 134.548 108.554 134.078 110.259C134.033 110.428 134 110.578 133.967 110.708L133.028 110.493L132.076 110.272C132.22 109.621 133.57 104.149 136.641 102.367C137.6 101.793 138.758 101.656 139.824 101.989Z" fill="#FF5486"/>
<path d="M300.649 318.537H0V320.489H300.649V318.537Z" fill="black"/>
<path d="M40.988 320.49C42.9445 321.141 84.0962 320.49 84.0962 320.49C84.0962 320.49 85.8831 308.778 74.0006 305.525C62.1182 302.272 64.0942 302.922 63.4355 286.656C62.7768 270.39 59.4704 245.015 49.5705 258.028C39.6706 271.041 44.9466 286.656 35.7054 294.464C26.4642 302.272 22.499 306.176 22.499 320.49H40.988Z" fill="#014D59"/>
<path d="M190.178 52.3713L187.857 52.1566L182.529 44.8498L178.798 39.7422L143.262 60.8818L133.655 66.588L126.768 63.1981L124.89 62.2677L124.434 62.0465L113.099 56.4509L111.325 55.579L108.403 54.1411L92.5752 71.8713L101.895 76.9008C100.59 84.5785 96.7556 104.326 94.0295 118.165L93.7817 119.466L102.664 118.679L104.673 118.497L135.527 115.758L137.483 115.582L149.222 114.541L148.022 107.169L145.166 89.6861L157.498 94.9889L172.4 101.456L199.237 53.2106L190.178 52.3713ZM95.686 71.3247L108.879 56.542L110.184 57.1926L111.938 58.058L123.938 63.9789L124.675 64.3433L126.52 65.2477L133.733 68.8067L141.292 64.3107L142.381 63.6601L142.838 63.3868L178.25 42.3253L185.261 51.9093L186.794 54.0109L188.998 57.03L166.14 72.125L162.52 74.5454L162.214 74.7406L160.394 75.9443L147.716 84.3052L144.657 86.3157L143.764 86.9013L142.87 87.4999L141.801 88.2091L135.11 92.627L134.242 92.1585L132.527 91.2281L126.194 87.8057L113.608 80.9999L111.847 80.063L104.021 75.8467L102.214 74.8773L95.686 71.3247ZM146.125 107.559L146.972 112.765L96.1947 117.261C97.6817 109.726 102.064 87.3307 103.695 77.8703L110.979 81.8132L112.329 82.5419L125.04 89.3998L135.188 94.8783L143.177 89.608L146.125 107.559ZM171.52 98.9578L155.725 92.113L145.89 87.8447L149.379 85.5414L162.279 77.0309L163.974 75.9053L191.796 57.5505L189.389 54.2647L196.074 54.8763L171.52 98.9578Z" fill="black"/>
<path d="M199.236 31.6016L193.954 40.7107H192.715L195.323 34.8548H189.995L183.813 43.6646L182.626 44.8553L181.504 45.9874L186.069 51.9864L187.445 53.8017L188.691 53.1511L190.276 52.3508L197.071 48.9414L211.054 31.6016H199.236ZM195.871 47.4189L188.078 51.3228L184.165 46.1501L185.339 44.9724L191.039 36.8068H192.343L189.702 42.6626H195.082L200.365 33.5535H207.01L195.871 47.4189Z" fill="black"/>
<path d="M118.734 69.1442L117.064 70.1852C114.305 65.8324 109.329 68.4545 109.121 68.5716L108.182 66.8539C110.542 65.5786 115.76 64.414 118.734 69.1442Z" fill="#FF5486"/>
<path d="M125.601 82.2491C124.917 82.5828 124.164 82.7501 123.403 82.7371C120.207 82.7371 116.581 80.2191 114.768 78.7811C114.214 78.3452 113.829 78.0069 113.686 77.8702L114.899 76.5299L114.996 76.4258C116.77 78.0199 121.981 81.8587 124.733 80.5054L125.601 82.2491Z" fill="#FF5486"/>
<path d="M155.182 71.238C154.687 71.405 154.167 71.4885 153.643 71.4853C153.333 71.4868 153.023 71.4585 152.717 71.4007C150.715 71.0559 148.909 69.657 147.676 68.4533C147.086 67.8779 146.539 67.2603 146.039 66.6054L147.076 65.8442L147.617 65.4473C147.999 65.9583 148.418 66.4411 148.869 66.8917C150.056 68.0824 151.752 69.3967 153.389 69.5333C153.794 69.5719 154.202 69.5276 154.589 69.4032L154.928 70.4377L155.182 71.238Z" fill="#FF5486"/>
<path d="M167.281 56.1969C161.378 59.5673 156.318 63.5362 156.455 64.6944L154.7 65.5532C153.187 62.5667 161.326 57.3485 166.309 54.4922L167.281 56.1969Z" fill="#FF5486"/>
<path d="M175.759 55.6765C175.693 57.3968 175.146 59.0644 174.181 60.4913L173.352 59.8407L172.622 59.2876C173.428 58.0365 173.849 56.5779 173.835 55.0909C173.866 54.346 173.838 53.5997 173.75 52.8592L175.237 52.651L175.687 52.5859C175.813 53.6113 175.837 54.6465 175.759 55.6765Z" fill="#FF5486"/>
<path d="M165.519 67.0552C165.03 67.6083 162.441 70.5232 159.617 73.1778C159.115 73.6528 158.607 74.1148 158.104 74.5507C156.213 76.1969 154.361 77.5307 153.089 77.804L152.711 75.8911C153.513 75.7349 154.824 74.8175 156.324 73.5357C156.82 73.1193 157.335 72.6573 157.857 72.1693C160.048 70.1393 162.422 67.6668 164.046 65.793L165.519 67.0552Z" fill="#FF5486"/>
<path d="M106.453 72.0458L105.586 73.7896C102.977 72.4883 102.801 69.5473 103.081 68.168L104.999 68.5518C104.979 68.6885 104.536 71.0959 106.453 72.0458Z" fill="#FF5486"/>
<path d="M105.977 94.9032L104.809 96.4778C101.666 94.1484 105.116 86.9132 105.84 85.4883L107.588 86.3732C106.107 89.223 104.594 93.9142 105.977 94.9032Z" fill="#FF5486"/>
<path d="M108.357 109.745L107.634 111.567C106.187 110.944 104.503 111.344 103.492 112.549L101.934 111.365C103.478 109.463 106.093 108.804 108.357 109.745Z" fill="#FF5486"/>
<path d="M167.281 92.8408C164.718 92.8408 161.724 89.5875 161.411 89.1841L162.872 87.8828C163.994 89.1451 166.087 90.8888 167.294 90.8888H167.339C167.602 90.8946 167.849 90.7641 167.991 90.544L169.55 91.7282C169.057 92.4059 168.276 92.8169 167.437 92.8408H167.281Z" fill="#FF5486"/>
<path d="M167.176 82.3915C166.848 81.5881 166.872 80.6848 167.241 79.8995C168.454 77.1993 173.163 75.4426 173.698 75.2539L174.35 77.0887C172.641 77.7394 169.674 79.2294 169.022 80.6933C168.866 80.995 168.852 81.3497 168.982 81.6628L167.176 82.3915Z" fill="#FF5486"/>
<path d="M178.015 80.7713L176.639 79.3789C178.595 77.4269 179.476 71.6557 179.652 69.5801L181.608 69.7493C181.53 70.5821 180.832 77.993 178.015 80.7713Z" fill="#FF5486"/>
<path d="M154.589 87.4735C153.904 84.7538 156.402 82.9775 157.85 82.418L158.567 84.2333C158.469 84.2788 156.076 85.2613 156.513 86.992L154.589 87.4735Z" fill="#FF5486"/>
<path d="M186.226 69.6647H184.27C184.27 68.2072 185.463 65.7608 185.698 65.3184L187.446 66.2032C186.937 67.1987 186.226 68.9295 186.226 69.6647Z" fill="#FF5486"/>
<path d="M126.038 110.212L124.303 111.097L122.32 107.193L124.062 106.309L126.038 110.212Z" fill="#FF5486"/>
<path d="M286.862 293.008C284.586 290.711 281.201 290.184 276.799 291.44C270.277 293.294 264.101 296.04 259.125 298.246C253.758 300.621 248.215 303.08 246.949 301.968C246.682 301.74 246.18 300.836 247.204 297.413C247.96 294.895 249.023 291.928 250.145 288.792C254.123 277.731 258.232 266.247 254.195 262.083C252.532 260.365 249.845 260.131 245.965 261.374C235.152 264.829 226.863 271.921 224.841 279.442C223.811 283.281 224.6 286.892 227.058 289.592C228.056 290.685 228.115 291.245 228.082 291.323C228.05 291.401 227.652 291.674 226.38 291.622C221.43 291.401 210.885 286.32 207.467 276.989C205.961 272.864 203.45 272.187 202.087 272.155C199.054 272.083 195.852 274.92 193.961 279.397C189.996 288.753 191.404 304.258 207.232 319.678L207.519 319.958H287.377L287.586 319.262C287.827 318.488 293.377 299.573 286.862 293.008ZM285.91 318.032H208.367C193.511 303.386 192.128 288.896 195.813 280.177C197.352 276.547 199.83 274.133 202.015 274.133H202.087C203.58 274.172 204.859 275.434 205.68 277.685C209.554 288.317 221.228 293.366 226.328 293.6C228.65 293.698 229.55 292.885 229.882 292.175C230.378 291.128 229.928 289.827 228.539 288.304C226.511 286.079 225.897 283.196 226.765 279.969C228.617 273.072 236.397 266.514 246.597 263.26C249.649 262.285 251.743 262.356 252.825 263.469C256.008 266.754 251.756 278.622 248.339 288.161C247.204 291.323 246.134 294.316 245.358 296.873C244.328 300.308 244.432 302.332 245.691 303.432C247.895 305.384 252.689 303.249 259.954 300.029C264.838 297.862 270.975 295.129 277.334 293.307C280.999 292.26 283.738 292.624 285.473 294.375C290.54 299.489 286.836 314.597 285.91 318.032Z" fill="black"/>
<path d="M236.014 123.341L186.986 134.307L198.016 183.258L247.043 172.292L236.014 123.341Z" fill="#FF5486"/>
<path d="M221.006 177.999L216.232 151.791L192.011 156.176L177.787 158.779L184.713 196.855L223.191 189.893L221.006 177.999ZM186.291 194.558L180.063 160.321L192.454 158.083L214.68 154.055L219.115 178.422L220.908 188.292L186.291 194.558Z" fill="black"/>
<path d="M140.685 55.676C137.359 54.0363 137.293 44.6149 137.352 41.6154L139.693 42.0448C139.693 42.0448 147.291 29.8842 126.846 26.8066C126.846 26.8066 126.618 26.7155 126.233 26.5984C127.504 21.4267 124.658 16.1318 119.637 14.3259C114.616 12.5199 109.039 14.7852 106.71 19.5763C104.38 24.3674 106.051 30.1396 110.581 32.9553C110.394 33.0696 110.223 33.2074 110.072 33.3652C107.881 35.5839 108.5 37.0088 108.8 40.1189C109.1 43.229 106.694 41.9212 104.235 43.216C101.776 44.5108 98.5548 46.3326 102.096 48.7205L113.32 52.8977L111.363 55.5914L110.548 56.6975C110.429 56.8587 110.323 57.0283 110.229 57.205L111.983 58.0704C112.024 57.9907 112.072 57.9146 112.126 57.8426L113.137 56.4632L115.231 53.6069L122.815 56.4307C123.36 55.7543 123.8 54.9997 124.12 54.1925C124.617 54.4596 125.139 54.6775 125.678 54.8431L125.15 60.0483C124.909 60.699 124.674 61.3822 124.465 62.0784C124.257 62.7745 124.107 63.3797 123.97 64.0303L124.713 64.3947L126.559 65.3056L133.778 68.8646L141.35 64.3621L142.439 63.7115C142.485 63.5488 142.53 63.3927 142.57 63.243C142.883 62.1109 143.176 61.2911 143.306 60.9202C143.985 58.9292 144.643 57.6279 140.685 55.676ZM124.504 52.182C124.47 51.4775 124.202 50.8044 123.741 50.2691C121.57 47.6665 119.744 45.6104 121.785 44.231C123.826 42.8517 123.781 40.6655 122.815 38.7395L122.783 38.681C122.551 38.2079 122.698 37.6371 123.129 37.3332C123.56 37.0294 124.148 37.0821 124.518 37.4578L126.846 39.696L134.059 40.9973C133.994 44.7776 133.257 50.3602 129.722 52.5724C128.052 53.6264 126.194 53.21 124.504 52.182Z" fill="black"/>
<path d="M204.265 10.033L200.404 10.4755C199.482 10.5858 198.571 10.7819 197.685 11.0611L191.607 0C191.607 0 188.483 5.85585 188.515 10.8593L180.324 9.47997C180.324 9.47997 183.742 17.2097 188.561 19.6301C187.714 21.8131 187.414 24.1695 187.687 26.4945L191.548 26.052C199.491 25.128 205.183 17.9589 204.265 10.033Z" fill="black"/>
<path d="M203.939 11.7246L211.628 13.3773L203.149 15.3292L203.939 11.7246Z" fill="#FF5486"/>
<path d="M135.39 80.7249H133.433C133.433 78.4151 130.335 76.4892 127.831 75.3701C127.087 75.0329 126.322 74.7417 125.542 74.4982L126.116 72.6309L126.233 72.6699C127.355 73.0278 135.39 75.767 135.39 80.7249Z" fill="#FF5486"/>
<path d="M146.319 76.1253L144.95 77.5177C144.328 76.9155 143.675 76.3465 142.993 75.813C142.654 75.5462 142.302 75.2794 141.95 75.0192C141.598 74.7589 141.135 74.4206 140.737 74.1343C138.859 72.833 137.228 71.818 137.202 71.7985L138.233 70.1328C138.317 70.1849 139.152 70.6989 140.3 71.4666L141.572 72.3385L142.537 72.9892C143.868 73.9468 145.132 74.9946 146.319 76.1253Z" fill="#FF5486"/>
</svg>
