<svg width="93" height="141" viewBox="0 0 93 141" fill="none" xmlns="http://www.w3.org/2000/svg">
<g filter="url(#filter0_d_312_1398)">
<path d="M52.7621 0.758113C62.0186 6.33036 67.9709 16.4801 71.2633 25.9596C74.2578 34.8207 75.1091 43.9447 74.1249 52.6529C73.1406 61.3612 70.4367 69.7169 66.2392 77.0623C61.3342 85.6493 54.6352 92.9317 47.0244 99.1957C39.3084 105.532 30.7043 110.799 21.7207 115.467C20.5993 116.027 19.4544 116.639 18.333 117.199C16.651 118.039 14.7508 115.375 16.4328 114.535C25.2981 110.127 33.8182 105.206 41.624 99.3087C49.243 93.5049 56.124 86.7776 61.327 78.809C65.8698 71.9776 69.0585 64.1468 70.4827 55.7438C71.9281 47.6128 71.7249 38.9727 69.4731 30.3866C68.3644 26.1355 66.708 21.9762 64.5383 17.9925C62.105 13.4743 58.9028 9.05738 54.843 5.73504C53.7786 4.89378 52.7486 4.13635 51.6133 3.45168C49.7719 2.25151 50.9551 -0.35824 52.7621 0.758113Z" fill="#D7FFB7"/>
<path d="M21.788 88.6992C19.4811 94.5427 17.1497 100.44 14.8429 106.284C14.0203 108.473 13.0751 110.933 14.2936 113.564C15.4105 115.868 17.7423 117.687 20.1195 118.854C23.7186 120.623 27.6397 120.944 31.2213 121.281C33.4514 121.488 34.1273 124.769 31.8306 124.526C25.0736 123.87 16.8462 122.611 12.2141 116.148C9.97332 113.025 9.81212 109.89 10.6382 106.958C11.4713 103.827 12.8855 100.879 14.0757 97.8762C15.4935 94.1855 16.9532 90.5855 18.3709 86.8948C19.1795 85.1041 22.5056 86.9263 21.788 88.6992Z" fill="#D7FFB7"/>
</g>
<defs>
<filter id="filter0_d_312_1398" x="10.1807" y="0.486328" width="76.1465" height="140.364" filterUnits="userSpaceOnUse" color-interpolation-filters="sRGB">
<feFlood flood-opacity="0" result="BackgroundImageFix"/>
<feColorMatrix in="SourceAlpha" type="matrix" values="0 0 0 0 0 0 0 0 0 0 0 0 0 0 0 0 0 0 127 0" result="hardAlpha"/>
<feOffset dx="6.18752" dy="10.6875"/>
<feGaussianBlur stdDeviation="2.81251"/>
<feComposite in2="hardAlpha" operator="out"/>
<feColorMatrix type="matrix" values="0 0 0 0 0 0 0 0 0 0 0 0 0 0 0 0 0 0 0.5 0"/>
<feBlend mode="normal" in2="BackgroundImageFix" result="effect1_dropShadow_312_1398"/>
<feBlend mode="normal" in="SourceGraphic" in2="effect1_dropShadow_312_1398" result="shape"/>
</filter>
</defs>
</svg>
