<svg width="287" height="239" viewBox="0 0 287 239" fill="none" xmlns="http://www.w3.org/2000/svg">
<path d="M269.622 236.35H34.4355V237.889H269.622V236.35Z" fill="black"/>
<path d="M114.278 174.76C116.318 158.85 108.906 132.387 106.243 125.114C103.763 118.339 101.029 108.12 100.983 103.352C100.976 103.032 100.986 102.712 101.013 102.393C100.995 101.538 100.72 100.709 100.223 100.016L98.8554 105.57L95.3505 98.5228L96.6106 95.6229C96.2331 95.238 95.8454 94.8479 95.4474 94.463C92.6675 91.8282 89.7576 89.3358 86.7287 86.9952V85.9688L58.6696 92.641L58.5165 92.759C56.3707 94.6403 54.7007 97.0083 53.6445 99.6673C53.4404 100.155 53.2465 100.694 53.0629 101.207L55.1699 103.132L52.4099 103.527C52.4099 103.635 52.3588 103.748 52.3384 103.861L56.0371 112.37L52.8792 118.724C53.0527 119.453 53.2516 120.202 53.4761 120.967C53.8995 122.409 54.4046 123.913 55.0066 125.478C57.2615 131.335 55.7667 136.965 51.9456 140.024C48.1245 143.083 42.0535 156.104 49.2825 164.526C56.5116 172.949 55.3688 183.28 52.3435 189.788C49.3846 196.106 44.2778 204.95 54.7821 216.323C55.0984 216.662 55.4249 217.006 55.7667 217.35H72.1278L72.2196 217.108C72.291 216.934 72.3931 216.667 72.5257 216.323C73.8266 212.997 78.0151 202.373 80.8771 196.306C83.1269 191.533 86.3563 181.484 87.346 169.192C87.5195 169.453 87.698 169.705 87.8562 169.967C89.3255 172.05 90.9172 173.944 92.3201 175.787C97.4218 182.459 94.8097 184.066 92.1467 197.856C90.1468 208.198 95.2689 213.721 97.9473 215.82C98.4274 216.206 98.9395 216.549 99.4778 216.847L113.252 216.333C113.329 216.179 113.4 216.005 113.472 215.82C115.747 209.548 112.859 185.821 114.278 174.76Z" fill="black"/>
<path d="M58.1582 92.8407V83.1455H59.6887V90.9006L85.2276 84.9367L82.8502 77.9822L84.294 77.4844L87.2274 86.0505L58.1582 92.8407Z" fill="black"/>
<path d="M95.8384 40.3362C93.4827 37.9025 90.6205 36.0241 87.4573 34.8358C84.2941 33.6476 80.9085 33.179 77.5439 33.4638L69.5751 34.131L69.7026 35.6708L77.6663 35.0035C80.8066 34.7353 83.9669 35.1711 86.9195 36.2796C89.8722 37.3881 92.5437 39.1417 94.7416 41.414L128.765 76.4739L107.991 97.8608L96.2006 81.2522L107.047 72.9376L86.6758 54.0193L83.1047 42.3738L81.6456 42.8254L91.3388 74.5697L53.0763 84.0904C53.3671 76.5508 54.3568 50.4266 54.0967 49.1075L52.5968 49.4206C52.6784 49.9339 52.5968 53.8859 52.4386 59.275L52.1937 59.1159L36.399 83.4283L52.8621 92.2305L45.2606 111.826L11.4825 93.606L34.389 48.7893C35.6683 46.2726 37.5045 44.0848 39.7563 42.3942C42.0082 40.7035 44.6155 39.5552 47.3778 39.0376L57.025 37.2105L56.7393 35.6708L47.0921 37.5184C44.1013 38.0811 41.2787 39.3263 38.8412 41.1584C36.4037 42.9904 34.4163 45.3604 33.0319 48.0862L9.43164 94.2476L46.0564 114.002L54.7803 91.512L38.5927 82.8894L52.3264 61.7026C52.1019 68.8881 51.7754 77.9623 51.4948 85.081L51.454 86.1075L93.2876 75.704L87.5737 56.9756L104.674 72.8555L94.0937 80.9648L107.812 100.283L130.907 76.4739L95.8384 40.3362Z" fill="black"/>
<path d="M58.5983 104.209L53.6446 99.667L52.1498 98.2864L51.1805 97.3984L47.793 106.555L48.2419 108.367L52.0375 123.851L53.466 120.977L57.7208 112.421L54.4098 104.81L58.5983 104.209ZM56.0475 112.38L52.8895 118.734L52.5477 119.427L49.4 106.657L51.8335 100.083L53.0732 101.217L55.1802 103.142L52.4202 103.537L52.2161 103.568L52.3487 103.87L56.0475 112.38Z" fill="black"/>
<path d="M98.3039 84.4609L97.3448 85.5234L92.9727 90.3735L96.9724 90.9535L95.4419 94.4641L93.6563 98.5701L99.3344 110L100.977 103.359L103.298 93.9355L103.615 92.6421L98.3039 84.4609ZM100.222 100.017L98.8549 105.571L95.35 98.5239L96.6101 95.6241L99.161 89.7114L96.0234 89.2649L98.0896 86.9656L101.957 92.8936L100.222 100.017Z" fill="black"/>
<path d="M61.9896 218.196C57.5614 214.295 58.1073 199.996 61.8672 194.586C65.0813 189.967 67.3974 172.332 59.9541 165.844C57.4951 163.704 56.1636 161.102 56.0003 158.146C55.6636 152.074 60.1479 145.828 63.9742 141.665C69.6931 135.429 65.3976 124.107 65.3516 123.994L66.7801 123.43C66.974 123.943 71.4736 135.748 65.0966 142.712C62.1325 145.946 57.2043 152.238 57.5257 158.058C57.6087 159.345 57.9562 160.6 58.5464 161.744C59.1365 162.888 59.9564 163.896 60.954 164.705C69.1167 171.829 66.6475 190.424 63.1222 195.5C59.8163 200.247 59.1939 213.715 62.9998 217.056L61.9896 218.196Z" fill="white"/>
<path d="M72.8775 217.443L71.5 216.765C82.2135 194.695 85.8612 175.762 87.0499 163.777C88.5804 148.442 86.7693 137.746 84.7541 133.25C80.1065 122.851 83.545 109.676 83.693 109.127L85.1724 109.527C85.1367 109.656 81.7288 122.733 86.152 132.623C90.5088 142.355 92.9933 175.9 72.8775 217.443Z" fill="white"/>
<path d="M68.7138 232.243L74.8358 216.332H52.5059L53.5262 236.349L53.6027 237.888H56.4086L56.9188 236.349L57.4698 234.696L60.1328 237.375H74.994V232.243H68.7138ZM56.8015 231.842L55.3118 236.349H55.0567L54.118 217.872H72.6013L66.4793 233.782H73.4635V235.835H60.7705L56.8015 231.842Z" fill="black"/>
<path d="M110.548 231.731L116.67 215.82H94.3398L95.401 236.35L95.452 237.377H98.2579L98.5997 236.35L99.3191 234.184L101.982 236.863H116.828V231.731H110.548ZM98.6354 231.331L97.1458 235.837H96.8907L95.952 217.36H114.435L108.313 233.271H115.297V235.324H102.605L98.6354 231.331Z" fill="black"/>
<path d="M61.0823 55.3575L59.8273 54.4747C60.9496 52.8631 61.3578 51.5338 61.0466 50.6408C60.9267 50.3679 60.7491 50.1246 60.5261 49.9278C60.3032 49.7311 60.0404 49.5855 59.7559 49.5014L60.1283 48.0078C60.6508 48.1548 61.1337 48.4185 61.5409 48.7793C61.9481 49.1401 62.2692 49.5887 62.4801 50.0916C63.0005 51.4979 62.5312 53.2737 61.0823 55.3575Z" fill="#FF5486"/>
<path d="M43.3649 52.0524C39.9774 50.9181 38.8449 47.6025 38.7734 47.4332L40.2223 46.9199C40.2223 46.9199 41.1763 49.6555 43.7935 50.5434L43.3649 52.0524Z" fill="#FF5486"/>
<path d="M34.0291 71.2902L32.8047 70.3663C33.4679 69.4733 39.4368 61.7079 43.962 63.9816L43.2784 65.3571C40.396 63.8994 35.6259 69.1499 34.0291 71.2902Z" fill="#FF5486"/>
<path d="M30.9614 62.3598L30.7676 60.8201C34.2469 60.3838 35.206 55.8313 35.2162 55.7852L36.7161 56.088C36.6702 56.3292 35.5376 61.7799 30.9614 62.3598Z" fill="#FF5486"/>
<path d="M23.0384 92.7281C22.3497 91.3423 19.906 90.7059 19.0234 90.5827L19.2377 89.043C19.401 89.0686 23.2221 89.6435 24.4057 92.0301L23.0384 92.7281Z" fill="#FF5486"/>
<path d="M22.0534 82.7903L21.3086 81.4456C21.3494 81.4199 25.5073 79.0487 25.5073 75.959H27.0378C27.0378 79.9572 22.2575 82.6774 22.0534 82.7903Z" fill="#FF5486"/>
<path d="M37.8032 90.0748C36.5023 86.5899 29.5028 87.4778 29.4365 87.5086L29.2324 85.9689C29.5691 85.9278 37.5073 84.9424 39.2317 89.5616L37.8032 90.0748Z" fill="#FF5486"/>
<path d="M35.457 103.931V102.391C37.6558 102.391 43.3646 101.785 43.3646 99.0547H44.8951C44.8951 103.874 35.8448 103.931 35.457 103.931Z" fill="#FF5486"/>
<path d="M29.5889 98.2356L28.1094 97.8302C28.2165 97.435 29.2113 93.9654 31.1704 93.3239C31.5558 93.2056 31.9652 93.1907 32.3581 93.2807C32.7509 93.3708 33.1136 93.5626 33.41 93.8371L32.4509 95.0381C31.9968 94.6737 31.7418 94.7558 31.6448 94.7866C30.7724 95.0638 29.9052 96.9679 29.5889 98.2356Z" fill="#FF5486"/>
<path d="M66.0766 76.549C62.7197 76.549 58.7659 74.1932 58.5312 74.0546L59.3169 72.7305C61.2759 73.9161 66.7551 76.4412 68.4999 73.9725L69.7447 74.8656C68.8723 76.1076 67.5255 76.549 66.0766 76.549Z" fill="#FF5486"/>
<path d="M78.9929 60.393L77.6257 59.7052C77.7046 59.5469 77.749 59.3734 77.756 59.1964C77.7631 59.0194 77.7325 58.8429 77.6665 58.6787C77.0339 56.9388 73.6464 55.1527 72.3965 54.6138L72.9985 53.1973C73.5086 53.4231 78.1001 55.4761 79.1205 58.1501C79.2551 58.5124 79.3132 58.8989 79.2913 59.285C79.2693 59.6712 79.1677 60.0485 78.9929 60.393Z" fill="#FF5486"/>
<path d="M69.0753 66.7272C66.397 66.7272 62.5299 64.0891 62.0605 63.7606L62.9278 62.498C64.6522 63.6939 67.953 65.4749 69.4529 65.1515C69.5652 65.1359 69.6726 65.0951 69.7671 65.032C69.8616 64.9689 69.9408 64.8852 69.9987 64.7871L71.315 65.5775C71.1487 65.8547 70.9267 66.0937 70.6631 66.2793C70.3995 66.465 70.1002 66.593 69.7845 66.6553C69.5512 66.7041 69.3135 66.7282 69.0753 66.7272Z" fill="#FF5486"/>
<path d="M81.1164 74.4755L79.5859 74.3626C79.6216 73.8493 79.9992 69.3943 82.1368 67.6493C82.4675 67.377 82.8513 67.1774 83.2634 67.0634C83.6755 66.9494 84.1068 66.9234 84.5294 66.9872L84.3152 68.527C84.0993 68.4934 83.8788 68.5068 83.6685 68.5661C83.4582 68.6254 83.263 68.7293 83.0959 68.8708C81.7184 69.9743 81.1981 73.2899 81.1164 74.4755Z" fill="#FF5486"/>
<path d="M75.9693 46.2478C75.7567 46.2488 75.5458 46.2105 75.3469 46.1349C73.7756 45.5498 73.0919 42.7988 72.9746 42.2548L74.4643 41.916C74.6939 42.9425 75.3163 44.4823 75.8775 44.6927C75.9234 44.6927 76.0458 44.7543 76.3213 44.549L77.2396 45.7808C76.8793 46.0737 76.4325 46.238 75.9693 46.2478Z" fill="#FF5486"/>
<path d="M92.3397 44.1388H90.8092C90.8092 42.2295 86.9881 39.4477 84.5801 38.144L85.3045 36.7891C86.0239 37.1791 92.3397 40.7 92.3397 44.1388Z" fill="#FF5486"/>
<path d="M98.1363 60.0383C96.9017 58.5858 96.3354 57.1589 96.4629 55.7988C96.5517 54.8307 97.0042 53.9331 97.7281 53.2891L98.6872 54.4901L98.2077 53.8896L98.6923 54.4849C98.2797 54.8726 98.0267 55.4019 97.9832 55.9682C97.9118 56.8921 98.3505 57.9237 99.2994 59.0477L98.1363 60.0383Z" fill="#FF5486"/>
<path d="M116.746 71.683L115.378 70.9952C116.541 68.6548 111.664 65.8628 111.613 65.8628L112.348 64.5078C112.603 64.6464 118.587 68.003 116.746 71.683Z" fill="#FF5486"/>
<path d="M104.298 67.7793C101.895 65.3619 104.064 60.9223 104.155 60.7324L105.523 61.4202C105.012 62.4467 104.033 65.3362 105.38 66.6912L104.298 67.7793Z" fill="#FF5486"/>
<path d="M102.8 83.2058L101.779 82.0561C102.111 81.7584 105.085 79.1408 107.498 79.7362C108.006 79.8756 108.47 80.1444 108.844 80.5166C109.219 80.8888 109.491 81.3519 109.636 81.8611L108.207 82.3743C107.84 81.3889 107.309 81.2606 107.136 81.2144C105.753 80.891 103.488 82.5847 102.8 83.2058Z" fill="#FF5486"/>
<path d="M108.542 90.6796C108.113 90.6798 107.685 90.6455 107.262 90.577L107.512 89.0373C107.731 89.0732 112.909 89.8584 113.777 85.0391L115.307 85.3162C114.516 89.5916 111.042 90.6796 108.542 90.6796Z" fill="#FF5486"/>
<path d="M118.089 77.0592L117.094 75.889C117.318 75.694 119.354 74.0003 121.292 74.3955C121.752 74.4968 122.182 74.707 122.544 75.0088C122.907 75.3105 123.193 75.695 123.379 76.1303L122.012 76.818C121.924 76.5967 121.786 76.3989 121.609 76.2404C121.431 76.0818 121.22 75.9668 120.991 75.9044C119.966 75.7043 118.548 76.6692 118.089 77.0592Z" fill="#FF5486"/>
<path d="M82.3243 28.1147C81.4614 27.4883 80.5386 26.9501 79.5694 26.5082C78.5491 26.036 78.5491 26.036 78.5491 24.1216C78.4883 22.4731 78.1556 20.8461 77.5644 19.3074C78.1868 16.7411 78.6307 9.89444 65.6215 9.90983C65.6215 9.90983 60.9994 8.76529 60.1678 12.3888C60.1678 12.3888 60.1678 12.4299 60.1678 12.4555C59.3821 16.1612 55.0355 15.0218 53.6275 17.0029C52.2194 18.984 52.8622 20.0259 53.4642 22.4177C54.0662 24.8094 52.0664 24.0703 50.342 25.374C48.6176 26.6776 46.378 28.4534 49.3625 29.9213L58.4281 31.846L56.7599 35.1564C56.5528 35.5618 56.4307 36.0056 56.401 36.4604C56.3713 36.9152 56.4347 37.3712 56.5873 37.8004C56.7398 38.2295 56.9783 38.6226 57.2879 38.9553C57.5975 39.288 57.9717 39.5532 58.3873 39.7346L65.4123 42.8141C65.8326 42.9977 66.2856 43.0937 66.7438 43.0964C67.1941 43.0949 67.6394 43.0014 68.0527 42.8214C68.4659 42.6415 68.8384 42.3788 69.1477 42.0495C69.4569 41.7202 69.6963 41.331 69.8514 40.9057C70.0064 40.4804 70.0739 40.0278 70.0497 39.5755L69.6467 31.9127C70.0326 31.8566 70.4087 31.746 70.7639 31.5842C71.9322 31.6202 74.3351 31.6407 75.233 31.6407C80.1306 31.6407 82.8038 31.0659 83.1916 29.9213C83.3395 29.4799 83.3089 28.8178 82.3243 28.1147ZM70.9119 29.6647C70.6079 29.9394 70.2505 30.1474 69.8623 30.2755C69.474 30.4037 69.0636 30.4491 68.6569 30.4089C68.05 30.3539 67.4558 30.2014 66.8969 29.9572C66.7884 29.4167 66.5049 28.9276 66.0908 28.5663C64.1216 26.811 62.4839 25.4047 63.8665 24.0908C65.249 22.7769 64.9684 21.0729 63.9991 19.6872C63.9895 19.6742 63.981 19.6605 63.9736 19.6461C63.8689 19.4821 63.8241 19.2865 63.8467 19.0929C63.8694 18.8993 63.9581 18.7196 64.0978 18.5845C64.2376 18.4494 64.4196 18.3672 64.6128 18.3521C64.806 18.337 64.9984 18.3898 65.1572 18.5016L67.1979 19.9541L72.8556 20.1286C72.8556 20.185 72.8556 20.2466 72.8556 20.3082C72.8528 20.3321 72.8528 20.3562 72.8556 20.3801V20.5032C72.8585 20.5288 72.8585 20.5546 72.8556 20.5802C72.9219 21.658 72.8556 25.9077 71.8353 28.5253C71.5869 28.9502 71.2755 29.3344 70.9119 29.6647ZM67.7591 41.2127C67.5093 41.3894 67.2184 41.4983 66.9145 41.5289C66.6107 41.5595 66.3041 41.5107 66.0245 41.3872L58.9995 38.3078C58.7761 38.2099 58.575 38.067 58.4085 37.888C58.242 37.709 58.1137 37.4976 58.0315 37.2668C57.9493 37.036 57.9149 36.7907 57.9305 36.5461C57.9461 36.3014 58.0112 36.0625 58.122 35.8442L59.9841 32.1796L66.1061 33.4781C66.4504 32.8871 66.7033 32.2467 66.8561 31.5791C67.2646 31.7212 67.6844 31.8276 68.1111 31.8973L68.5192 39.6422C68.5363 39.9475 68.4754 40.2521 68.3423 40.527C68.2093 40.8019 68.0085 41.038 67.7591 41.2127ZM72.8607 30.0445C73.0028 29.7892 73.1288 29.5252 73.2382 29.2541C74.8044 26.616 74.7687 22.9309 74.4218 20.2517V20.1902L76.2788 20.2466C76.73 21.4907 76.9847 22.7982 77.0339 24.1216C77.0339 26.7648 77.3655 27.1703 78.9215 27.9043C79.8067 28.3054 80.6493 28.7954 81.4366 29.367L81.559 29.4594C80.4316 29.947 76.4574 30.1471 72.8352 30.024L72.8607 30.0445Z" fill="black"/>
<path d="M187.486 32.0781C186.83 32.0781 186.189 32.2738 185.644 32.6404C185.098 33.0069 184.673 33.528 184.422 34.1376C184.171 34.7471 184.106 35.4179 184.234 36.0651C184.362 36.7122 184.677 37.3066 185.141 37.7732C185.605 38.2398 186.196 38.5575 186.839 38.6862C187.482 38.815 188.149 38.7489 188.755 38.4964C189.361 38.2439 189.879 37.8163 190.243 37.2677C190.608 36.719 190.802 36.074 190.802 35.4142C190.801 34.5299 190.451 33.6821 189.829 33.0567C189.208 32.4314 188.365 32.0795 187.486 32.0781ZM187.486 37.2106C187.133 37.2106 186.788 37.1052 186.494 36.9078C186.2 36.7105 185.971 36.4299 185.836 36.1017C185.701 35.7734 185.666 35.4122 185.735 35.0638C185.804 34.7153 185.974 34.3952 186.223 34.144C186.473 33.8928 186.791 33.7217 187.138 33.6524C187.484 33.5831 187.843 33.6186 188.169 33.7546C188.496 33.8906 188.774 34.1208 188.971 34.4162C189.167 34.7116 189.272 35.0589 189.272 35.4142C189.272 35.8907 189.083 36.3476 188.749 36.6844C188.414 37.0213 187.96 37.2106 187.486 37.2106Z" fill="black"/>
<path d="M144.122 39.2617C143.567 39.2617 143.025 39.4273 142.563 39.7375C142.102 40.0476 141.742 40.4885 141.53 41.0043C141.318 41.5201 141.262 42.0877 141.37 42.6353C141.479 43.1829 141.746 43.6859 142.138 44.0806C142.531 44.4754 143.031 44.7443 143.575 44.8532C144.119 44.9621 144.683 44.9062 145.196 44.6926C145.709 44.4789 146.147 44.1171 146.455 43.6529C146.764 43.1887 146.928 42.6429 146.928 42.0846C146.927 41.3363 146.631 40.6191 146.105 40.09C145.579 39.5609 144.866 39.2631 144.122 39.2617ZM144.122 43.3677C143.87 43.3677 143.623 43.2924 143.414 43.1514C143.204 43.0105 143.041 42.8101 142.944 42.5756C142.847 42.3411 142.822 42.0832 142.871 41.8343C142.921 41.5854 143.042 41.3567 143.22 41.1773C143.399 40.9978 143.626 40.8756 143.873 40.8261C144.121 40.7766 144.377 40.802 144.61 40.8991C144.843 40.9962 145.043 41.1607 145.183 41.3717C145.323 41.5827 145.398 41.8308 145.398 42.0846C145.398 42.4249 145.263 42.7512 145.024 42.9919C144.785 43.2325 144.461 43.3677 144.122 43.3677Z" fill="black"/>
<path d="M183.915 88.0215C182.956 88.0215 182.019 88.3075 181.222 88.8432C180.425 89.379 179.804 90.1405 179.437 91.0314C179.07 91.9224 178.974 92.9027 179.161 93.8486C179.348 94.7944 179.81 95.6632 180.488 96.3451C181.166 97.027 182.029 97.4913 182.969 97.6795C183.91 97.8676 184.884 97.7711 185.77 97.402C186.655 97.033 187.412 96.408 187.945 95.6062C188.477 94.8044 188.762 93.8617 188.762 92.8973C188.76 91.6046 188.249 90.3652 187.34 89.4511C186.432 88.537 185.2 88.0228 183.915 88.0215ZM183.915 96.2334C183.259 96.2334 182.618 96.0378 182.073 95.6712C181.527 95.3046 181.102 94.7836 180.851 94.174C180.6 93.5644 180.535 92.8936 180.663 92.2465C180.791 91.5993 181.106 91.0049 181.57 90.5383C182.034 90.0718 182.625 89.754 183.268 89.6253C183.911 89.4966 184.578 89.5627 185.184 89.8152C185.79 90.0677 186.308 90.4953 186.672 91.0439C187.037 91.5925 187.231 92.2375 187.231 92.8973C187.23 93.7817 186.88 94.6295 186.258 95.2548C185.637 95.8802 184.794 96.2321 183.915 96.2334Z" fill="black"/>
<path d="M145.651 109.578C144.693 109.578 143.756 109.864 142.959 110.4C142.162 110.936 141.54 111.697 141.174 112.588C140.807 113.479 140.711 114.459 140.898 115.405C141.085 116.351 141.546 117.22 142.224 117.902C142.902 118.584 143.766 119.048 144.706 119.236C145.646 119.424 146.62 119.328 147.506 118.959C148.392 118.59 149.148 117.965 149.681 117.163C150.214 116.361 150.498 115.418 150.498 114.454C150.496 113.161 149.985 111.922 149.077 111.008C148.168 110.094 146.936 109.579 145.651 109.578ZM145.651 117.79C144.995 117.79 144.354 117.594 143.809 117.228C143.264 116.861 142.839 116.34 142.588 115.731C142.337 115.121 142.271 114.45 142.399 113.803C142.527 113.156 142.843 112.562 143.306 112.095C143.77 111.628 144.361 111.311 145.004 111.182C145.648 111.053 146.314 111.119 146.92 111.372C147.526 111.624 148.044 112.052 148.408 112.601C148.773 113.149 148.967 113.794 148.967 114.454C148.966 115.338 148.616 116.186 147.995 116.811C147.373 117.437 146.53 117.789 145.651 117.79Z" fill="black"/>
<path d="M207.637 16.6805H169.14V0H167.609V16.6805H132.643V124.976H164.099L146.575 236.35L146.458 237.11L147.988 237.351L148.147 236.35L165.661 124.976H170.987L170.905 236.35V236.863H172.436V236.35L172.502 124.976H178.848L196.704 236.35L196.929 237.756L198.459 237.51L198.275 236.35L180.42 124.976H207.637V16.6805ZM206.106 123.436H134.173V18.2203H206.106V123.436Z" fill="black"/>
<path d="M148.315 101.022C148.749 101.258 149.203 101.499 149.677 101.74C153.002 103.379 156.407 104.845 159.881 106.134L161.641 106.801C163.26 107.407 164.94 108.024 166.681 108.654L168.145 109.167L170.533 110.029L170.997 110.199L172.528 110.753C173.956 111.266 175.393 111.779 176.839 112.293L178.492 112.903C181.731 114.099 184.996 115.346 188.236 116.66C191.985 118.2 194.501 118.919 196.092 118.919C197.077 118.919 197.709 118.636 198.056 118.082C199.689 115.449 192.445 108.202 175.507 92.7687L175.221 92.507L173.4 90.8492L172.538 90.069L171.518 89.1401L171.319 88.9604L171.007 88.6781L169.987 87.7338C167.676 85.6397 165.36 83.5354 163.115 81.4722C166.013 80.2147 168.793 79.0394 171.416 77.9308L171.538 77.8794C171.967 77.6947 172.39 77.5202 172.808 77.3354C175.803 76.0728 178.532 74.9077 180.971 73.8196C181.842 73.4296 182.673 73.0481 183.466 72.6751C190.48 69.3698 194.225 66.7522 193.373 63.8883L191.904 64.3297C192.46 66.1979 188.623 68.5691 182.537 71.4125C181.82 71.7547 181.071 72.0969 180.292 72.439C177.941 73.4912 175.334 74.6049 172.574 75.7751L171.834 76.0933L170.814 76.5142C168.518 77.4894 166.112 78.5159 163.595 79.5937L161.87 80.3379L161.36 79.8862C157.187 76.0317 153.335 72.3672 150.29 69.221C146.8 65.6282 145.387 61.63 146.096 57.3701C147.259 50.3335 153.902 43.4816 160.697 38.149C161.1 37.8308 161.508 37.5177 161.911 37.2098C166.564 33.7088 171.482 30.5788 176.619 27.8482L175.925 26.4727C170.684 29.2308 165.67 32.4059 160.932 35.9677L159.717 36.907C152.718 42.4038 145.836 49.5687 144.586 57.1135C143.795 61.8867 145.346 66.3211 149.177 70.2988C152.238 73.4604 156.111 77.1404 160.294 81.0102C157.126 82.396 153.825 83.8844 150.417 85.4857C144.295 88.3599 141.535 91.0442 141.673 93.9286C141.826 96.4846 144.259 98.7686 148.315 101.022ZM151.08 86.9228C153.658 85.7047 156.173 84.5533 158.626 83.4687L161.518 82.201C164.166 84.6338 166.916 87.1281 169.645 89.602L170.456 90.3411L170.997 90.8543L172.502 92.2195L173.436 93.0664L173.757 93.3589L175.573 95.0065C180.706 99.6821 185.649 104.245 189.414 108.033C196.985 115.639 196.827 117.122 196.72 117.338C196.689 117.374 195.852 118.185 188.771 115.311C185.246 113.879 181.695 112.534 178.175 111.235L176.548 110.604L172.512 109.141L171.033 108.628H170.982L168.355 107.643L166.89 107.129C165.61 106.667 164.34 106.2 163.115 105.738C162.539 105.528 161.967 105.312 161.401 105.097C157.6 103.704 153.874 102.113 150.239 100.329C149.769 100.093 149.315 99.8515 148.887 99.6103C145.428 97.6907 143.275 95.7969 143.188 93.9184C143.112 91.773 145.759 89.4275 151.08 86.9228Z" fill="black"/>
<path d="M204.832 235.322C204.832 235.322 208.403 222.491 220.137 219.412C231.871 216.332 244.625 227.624 248.706 219.412C252.788 211.2 244.625 191.183 256.359 195.289C268.093 199.395 259.93 221.465 270.133 224.544C280.337 227.624 279.826 237.888 279.826 237.888H204.924L204.832 235.322Z" fill="#85D7D2"/>
<path d="M14.2846 237.89C15.8151 238.403 47.5985 237.89 47.5985 237.89C47.5985 237.89 48.9759 228.651 39.7929 226.085C30.6099 223.519 32.1404 224.032 31.6303 211.201C31.1201 198.37 28.5693 178.353 20.9168 188.618C13.2643 198.883 17.3456 211.201 10.2033 217.36C3.06099 223.519 0 226.598 0 237.89H14.2846Z" fill="#85D7D2"/>
<path d="M286.092 106.637L255.752 128.461L234.055 97.9326L264.399 76.1094L286.092 106.637Z" fill="#FF5486"/>
<path d="M183.416 72.7219L182.503 72.106V71.4593C182.37 68.2366 181.62 65.0699 180.294 62.1336C181.957 60.5939 183.559 59.1055 185.079 57.7094C192.915 50.524 197.644 46.1665 196.553 43.1486C195.905 41.3779 193.43 40.4951 188.538 40.2898C180.813 39.9671 173.077 40.4712 165.458 41.7936L161.887 37.2514L161.586 36.8716C161.346 36.5688 161.116 36.2814 160.907 36.0094C159.984 34.8494 159.28 33.9564 158.8 33.3815C157.953 32.355 157.601 31.9239 156.989 32.3961C156.377 32.8683 156.617 33.2635 157.775 34.8443L157.923 34.7314C158.336 35.2446 158.907 35.9529 159.693 36.9486L160.703 38.1907C161.54 39.2531 162.56 40.5516 163.764 42.1324C156.622 43.6721 151.051 46.1562 150.092 49.8311C149.133 53.5059 152.842 57.5298 161.111 61.7641C165.126 63.8171 168.866 65.8033 172.289 67.728C168.426 71.5954 164.772 75.6678 161.341 79.9279C160.423 81.0827 159.509 82.2631 158.617 83.4693C155.63 87.4819 152.944 91.7124 150.581 96.1259C149.913 97.3834 149.357 98.5331 148.898 99.5903C148.679 100.104 148.485 100.566 148.306 101.022C146.118 106.735 147.128 109.234 148.582 110.261C149.388 110.815 150.35 111.094 151.326 111.056C154.107 111.056 157.836 109.373 161.616 106.781C162.127 106.437 162.637 106.073 163.147 105.698C164.749 104.498 166.282 103.208 167.738 101.833C168.364 101.245 168.975 100.643 169.57 100.027C169.606 99.9907 169.641 99.9599 169.672 99.924C170.116 99.462 170.554 98.995 170.988 98.5125C171.508 97.9343 172.019 97.3423 172.519 96.7367C173.029 96.1157 173.539 95.4792 174.024 94.8326C174.223 94.5759 174.416 94.3193 174.6 94.0524C174.784 93.7855 175.069 93.4057 175.294 93.0772L175.493 92.795C179.385 87.0825 182.125 80.5746 182.467 73.9383C189.262 78.5883 193.563 82.956 194.517 87.2827C195.144 90.1466 194.318 92.9951 191.966 96.0079L193.17 96.9523C195.803 93.57 196.741 90.28 195.991 86.9593C194.966 82.2118 190.558 77.6183 183.416 72.7219ZM180.911 71.0846C179.033 69.8836 177.001 68.657 174.814 67.4047C176.263 65.9744 177.688 64.6057 179.09 63.2987C180.132 65.7709 180.748 68.404 180.911 71.0846ZM188.477 41.8296C193.471 42.04 194.833 42.9484 195.109 43.6773C195.848 45.7302 190.38 50.7549 184.043 56.5751C182.618 57.8788 181.132 59.2474 179.584 60.6811C178.806 59.2061 177.899 57.8029 176.875 56.4879C172.794 51.1878 169.345 46.7396 166.529 43.1435C173.781 41.9465 181.135 41.5061 188.477 41.8296ZM161.815 60.3886C154.382 56.5803 150.842 53.0645 151.581 50.2212C152.362 47.2187 157.642 44.909 164.82 43.472C167.473 46.8696 170.993 51.4067 175.661 57.4425C176.713 58.7985 177.634 60.2524 178.411 61.7846C176.789 63.3243 175.12 64.9154 173.432 66.5937C169.886 64.6075 166.024 62.5442 161.815 60.3886ZM174.937 90.8703C174.743 91.1731 174.549 91.4708 174.345 91.7633C174.141 92.0559 173.906 92.41 173.682 92.7282L173.457 93.0362C173.151 93.4622 172.84 93.883 172.524 94.2936C172.014 94.9403 171.503 95.5562 170.993 96.1721C170.672 96.5622 170.34 96.942 170.003 97.3167C169.534 97.8299 169.06 98.3432 168.575 98.8564L168.146 99.2927C166.08 101.411 163.831 103.341 161.428 105.062C160.917 105.441 160.382 105.79 159.872 106.119C155.117 109.168 151.127 110.225 149.5 109.024C148.168 108.049 148.26 105.472 149.684 101.725C149.857 101.264 150.051 100.786 150.265 100.293C150.735 99.2208 151.286 98.066 151.944 96.8393C154.713 91.6871 157.918 86.7846 161.525 82.1862C162.205 81.3205 162.885 80.4651 163.565 79.6199C166.871 75.5909 170.304 71.8904 173.682 68.4979C176.039 69.8477 178.232 71.1667 180.243 72.4653L180.952 72.9272C180.952 73.2351 180.941 73.5431 180.921 73.851C180.6 79.8098 178.299 85.6454 174.937 90.8703Z" fill="#FF5486"/>
<path d="M269.547 124.841L258.604 108.078L243.232 118.235L234.197 124.204L250.109 148.584L274.511 132.462L269.547 124.841ZM236.314 124.646L244.12 119.488L258.144 110.213L268.281 125.739L272.363 132.011L250.517 146.443L236.314 124.646Z" fill="black"/>
</svg>
