<svg width="600" height="430" viewBox="0 0 600 430" fill="none" xmlns="http://www.w3.org/2000/svg">
<path d="M294.949 74.3602V74.5011C292.585 84.9603 288.372 94.8798 282.521 103.761C276.671 112.482 267.467 121.96 253.674 126.34C255.91 127.93 263.671 134.39 265.016 148.544L264.366 148.611C262.917 133.404 253.914 127.259 252.855 126.595C247.757 128.096 242.478 128.844 237.177 128.816C234.631 128.81 232.088 128.66 229.559 128.366L229.63 127.695C257.229 130.909 273.33 116.245 281.981 103.379C287.753 94.6059 291.913 84.8127 294.253 74.4876C293.961 74.0315 292.823 72.2539 291.341 69.792L291.887 69.4365C293.61 72.2673 294.858 74.1992 294.871 74.2193L294.949 74.3602Z" fill="#1B1147"/>
<path d="M284.802 155.225L285.179 155.735C314.39 132.76 329.08 88.8762 333.143 74.9101C333 74.6687 332.85 74.4272 332.701 74.1924C328.892 87.4474 314.293 132.049 284.802 155.225Z" fill="#1B1147"/>
<path d="M345.077 75.42L344.739 74.9638L294.793 7.3606L239.543 50.8687L280.233 105.921L280.642 106.471L302.84 136.496L303.23 137.026L314.637 152.455L315.06 153.025L337.927 183.962L338.343 184.519L369.348 226.518L409.069 222.298L424.611 183.016L345.077 75.42ZM278.465 48.5209C276.467 48.5209 274.665 47.2788 273.901 45.3738C273.136 43.4687 273.559 41.276 274.972 39.8179C276.384 38.3599 278.509 37.9237 280.355 38.7128C282.201 39.5019 283.405 41.3608 283.405 43.4228C283.405 46.2384 281.193 48.5209 278.465 48.5209Z" fill="#FFCC66"/>
<path d="M256.683 183.103C255.11 183.311 212.587 178.072 202.083 176.771L199.763 176.483L202.272 172.491L215.701 151.147L218.866 146.116L229.585 129.071L237.911 130.412C237.911 130.412 239.309 133.981 241.35 139.267C241.811 140.474 242.312 141.776 242.832 143.144C244.938 148.631 247.427 155.218 249.722 161.417C250.567 163.724 251.392 165.978 252.159 168.125C255.188 176.523 257.307 183.023 256.683 183.103Z" fill="#FF5486"/>
<path d="M237.814 106.216C233.17 104.978 228.432 107.857 227.228 112.647C226.023 117.438 228.807 122.331 233.448 123.579C238.089 124.827 242.833 121.959 244.047 117.171C245.227 112.374 242.448 107.49 237.814 106.216ZM243.423 116.949C242.518 120.624 239.317 123.199 235.643 123.208C234.961 123.205 234.282 123.115 233.621 122.94C232.482 122.638 231.421 122.082 230.514 121.309L235.272 113.106L243.423 112.831C243.77 114.188 243.776 115.615 243.443 116.976L243.423 116.949Z" fill="#1B1147"/>
<path d="M392.098 159.015C390.349 155.272 389.777 154.051 370.05 161.276C377.596 157.694 386.098 152.991 387.359 149.51C387.609 148.902 387.583 148.211 387.288 147.625C384.954 143.171 374.392 146.21 365.558 149.745C372.708 145.753 380.508 140.742 381.678 137.315C381.92 136.741 381.92 136.09 381.678 135.517C381.355 134.874 380.784 134.401 380.105 134.216C376.673 133.082 368.626 136.121 361.398 139.461C368.399 135.128 375.49 130.016 375.399 127.125C375.332 126.295 374.776 125.594 374.002 125.361C366.715 122.168 346.097 138.146 341.658 141.688C342.808 137.664 346.637 123.389 343.959 118.492C343.555 117.68 342.833 117.087 341.976 116.862C337.056 115.648 329.249 142.976 328.196 146.76C319.047 151.597 309.115 154.66 298.894 155.795C283.801 157.318 262.559 154.132 247.07 130.352L246.53 130.727C250.831 137.523 256.402 143.366 262.917 147.913C263.17 149.657 265.27 168.621 239.445 181.896C230.742 176.281 222.89 168.299 216.663 157.211L216.104 157.546C225.204 173.793 238.522 184.834 255.637 190.368C264.262 193.152 273.837 194.547 284.321 194.547C290.757 194.526 297.183 194.046 303.555 193.112C334.378 188.698 360.67 175.436 360.898 175.322C362.1 174.873 390.375 164.328 392.098 159.954C392.231 159.656 392.231 159.313 392.098 159.015ZM391.487 159.686C390.141 163.087 368.776 171.66 360.625 174.692C360.365 174.819 334.163 188.034 303.425 192.434C283.925 195.225 259.875 194.755 240.056 182.299C264.184 169.714 263.95 152.113 263.586 148.369C275.754 156.386 288.735 157.479 298.94 156.453C309.285 155.304 319.336 152.193 328.586 147.276L328.703 147.209L328.742 147.075C332.155 134.739 338.492 116.674 341.781 117.513C342.466 117.703 343.037 118.193 343.341 118.854C346.266 124.221 340.741 142.332 340.696 142.54L340.371 143.587L341.203 142.916C341.45 142.715 366.039 122.664 373.703 126.025C374.353 126.314 374.684 126.696 374.704 127.192C374.814 130.647 361.983 138.596 353.059 143.607C349.997 145.203 347.859 146.404 347.586 146.572L347.885 147.169C348.177 147.014 350.166 145.981 352.942 144.432C360.709 140.367 375.172 133.357 379.865 134.9C380.374 135.03 380.805 135.379 381.048 135.859C381.221 136.265 381.221 136.728 381.048 137.134C379.455 141.688 364.869 149.564 357.316 153.394C354.794 154.581 353.091 155.467 352.812 155.607L353.091 156.218C353.351 156.09 355.041 155.292 357.498 154.058C365.948 150.08 383.817 142.48 386.696 148.021C386.902 148.44 386.914 148.933 386.729 149.362C384.558 155.399 357.992 165.884 357.726 165.991L357.953 166.615C389.264 154.628 389.693 155.547 391.487 159.397C391.523 159.495 391.523 159.602 391.487 159.699V159.686Z" fill="#1B1147"/>
<path d="M306.226 132.847L305.836 132.317L283.561 102.178L283.164 102.795L305.42 132.908L305.81 133.431L318.81 150.992L319.46 150.738L306.226 132.847ZM306.226 132.847L305.836 132.317L283.561 102.178L283.164 102.795L305.42 132.908L305.81 133.431L318.81 150.992L319.46 150.738L306.226 132.847ZM306.226 132.847L305.836 132.317L283.561 102.178L283.164 102.795L305.42 132.908L305.81 133.431L318.81 150.992L319.46 150.738L306.226 132.847ZM306.226 132.847L305.836 132.317L283.561 102.178L283.164 102.795L305.42 132.908L305.81 133.431L318.81 150.992L319.46 150.738L306.226 132.847ZM342.145 78.5796L341.554 77.7813L295.989 16.1415L295.787 15.8665L247.187 54.1155L282.742 102.219L283.164 102.789L305.42 132.901L305.81 133.424L318.81 150.986L319.226 151.542L342.087 182.48L342.503 183.037L369.536 219.615L369.647 219.763L405.481 217.281L418.247 181.507L342.145 78.5796ZM404.981 216.61L369.939 219.038L343.153 182.815L342.737 182.258L319.87 151.321L319.486 150.711L306.226 132.847L305.836 132.317L283.561 102.178L283.138 101.608L248.136 54.2563L295.657 16.8458L340.065 76.9227L341.053 78.2643L417.461 181.628L404.981 216.61ZM306.226 132.847L305.836 132.317L283.561 102.178L283.164 102.795L305.42 132.908L305.81 133.431L318.81 150.992L319.46 150.738L306.226 132.847ZM306.226 132.847L305.836 132.317L283.561 102.178L283.164 102.795L305.42 132.908L305.81 133.431L318.81 150.992L319.46 150.738L306.226 132.847ZM306.226 132.847L305.836 132.317L283.561 102.178L283.164 102.795L305.42 132.908L305.81 133.431L318.81 150.992L319.46 150.738L306.226 132.847Z" fill="#1B1147"/>
<path d="M317.861 327.802L349.991 285.327L371.174 302.392L395.023 299.36L352.441 355.64C352.441 355.64 317.946 328.473 317.861 327.802Z" fill="#1B1147"/>
<path d="M195.486 368.419L247.694 367.184L248.305 394.908L265.679 412.041L196.506 413.664C196.506 413.664 195.057 368.895 195.486 368.419Z" fill="#1B1147"/>
<path d="M256.137 370.907L247.778 371.27L195.427 373.537L189.876 373.778L190.578 363.542L190.637 362.704L194.218 310.307L194.277 309.462L197.384 264.082L197.455 263.049L199.36 235.171L199.412 234.433L201.765 200.014L201.817 199.27L202.857 184.09L248.857 189.215L249.982 217.287L250.021 218.173L251.678 259.635L251.711 260.366L252.387 277.277L252.627 283.361V283.368L252.699 285.105L253.388 302.224V302.231L253.414 302.982L254.155 321.483L254.187 322.201L255.767 361.664L255.799 362.529L256.137 370.907Z" fill="#3D4BC6"/>
<path d="M360.397 285.307L356.458 290.532L324.29 333.222L321.475 336.952L296.548 315.419L295.807 314.782L285.036 305.478L284.36 304.887L264.477 287.715L263.58 286.943L252.387 277.277L248.799 274.178L247.772 273.286L221.037 250.197L220.537 249.768L216.292 246.098L217.17 244.569L217.501 243.992L224.794 231.247L225.353 230.274L248.857 189.215L270.515 207.876L271.172 208.44L282.053 217.811L282.547 218.24L312.213 243.798L312.739 244.254L335.203 263.6L335.71 264.042L348.788 275.305L349.289 275.741L360.397 285.307Z" fill="#3D4BC6"/>
<path d="M335.736 264.076C333.107 267.522 329.636 270.185 325.681 271.79C320.955 273.802 315.346 274.654 309.171 274.654C302.585 274.55 296.026 273.78 289.586 272.353C289.196 273.36 288.832 274.366 288.488 275.432C285.329 285.085 284.503 295.422 285.049 305.478L284.399 304.887C283.918 294.953 284.776 284.763 287.896 275.224C288.226 274.205 288.581 273.203 288.962 272.219C279.779 270.182 270.737 267.517 261.896 264.243C261.388 272.167 262.268 280.121 264.496 287.721L263.586 286.943C261.51 279.499 260.711 271.737 261.227 264.009C258.016 262.841 254.837 261.621 251.717 260.366C248.896 259.233 246.134 258.072 243.436 256.912C244.808 262.797 246.603 268.568 248.805 274.178C249.949 277.143 251.225 280.204 252.634 283.361L252.705 285.099C250.838 281.007 249.195 277.067 247.778 273.279C245.699 267.849 244.003 262.272 242.702 256.59C241.213 255.919 239.738 255.295 238.295 254.651C232.848 252.216 227.537 249.701 222.5 247.219C222.066 248.207 221.581 249.197 221.044 250.19C217.339 257.158 211.333 264.246 203.026 271.455C209.714 282.241 215.72 294.933 217.826 307.872C221.487 308.148 225.122 308.709 228.701 309.549C232.565 310.455 236.347 311.703 240.004 313.279C243.211 309.397 247.672 305.717 253.388 302.238V302.989C247.958 306.325 243.698 309.844 240.609 313.547C245.388 315.666 249.923 318.33 254.129 321.49V322.207C249.804 318.926 245.12 316.182 240.173 314.03C236.351 318.773 234.447 323.804 234.479 329.076C234.557 341.446 245.289 353.178 255.708 361.67L255.741 362.536C245.074 353.923 233.907 341.855 233.829 329.083C233.797 323.717 235.708 318.585 239.543 313.769C232.637 310.894 225.329 309.177 217.898 308.684C218.654 313.522 218.772 318.443 218.249 323.314C216.435 339.259 207.121 352.762 190.52 363.562L190.578 362.724C206.75 352.098 215.831 338.85 217.605 323.254C218.128 318.391 218.004 313.478 217.235 308.65C209.505 308.218 201.754 308.781 194.16 310.327L194.218 309.482C201.744 307.914 209.435 307.362 217.098 307.839C214.992 295.094 209.071 282.563 202.473 271.897C201.277 272.926 200.034 273.957 198.742 274.99L198.346 274.46C199.646 273.413 200.902 272.371 202.116 271.334C200.601 268.771 198.983 266.37 197.384 264.076L197.455 263.043C199.204 265.511 200.959 268.127 202.655 270.871C210.889 263.716 216.843 256.679 220.517 249.761C221.018 248.815 221.473 247.876 221.889 246.93C220.277 246.139 218.697 245.349 217.15 244.562C210.54 241.208 204.501 237.995 199.34 235.171L199.392 234.433C204.592 237.311 210.754 240.584 217.482 243.992C219.011 244.761 220.569 245.539 222.155 246.326C224.243 241.608 225.138 236.419 224.755 231.247C224.755 230.777 224.671 230.314 224.606 229.845C222.74 216.033 210.832 205.877 201.726 200.014L201.778 199.27C211.027 205.173 223.332 215.537 225.249 229.751C225.249 229.925 225.295 230.1 225.314 230.274C225.896 235.863 224.997 241.511 222.714 246.615C227.752 249.097 233.056 251.606 238.503 254.041C239.842 254.635 241.168 255.219 242.481 255.791C239.777 243.046 240.414 232.696 244.431 224.78C245.842 221.972 247.713 219.437 249.962 217.287C256.105 211.384 264.204 208.996 270.496 207.896L271.146 208.46C264.724 209.553 256.241 211.948 249.995 218.193C247.978 220.205 246.291 222.541 244.996 225.109C241.025 232.984 240.446 243.355 243.222 256.127C246.086 257.37 248.903 258.546 251.672 259.655C254.948 260.997 258.144 262.229 261.259 263.351L261.298 262.848C263.079 242.248 274.259 226.484 282.046 217.831L282.54 218.26C274.818 226.833 263.69 242.469 261.948 262.909C261.948 263.137 261.909 263.358 261.896 263.579C270.81 266.895 279.931 269.584 289.196 271.629C293.746 260.091 301.494 250.78 312.239 243.831L312.765 244.287C302.086 251.143 294.396 260.353 289.846 271.79C305.024 274.916 317.029 274.748 325.434 271.193C329.292 269.63 332.675 267.029 335.229 263.66L335.736 264.076Z" fill="white"/>
<path d="M349.295 275.741C341.664 288.533 328.073 306.524 309.262 312.99C305.158 314.414 300.88 315.231 296.554 315.419L295.813 314.748C300.316 314.636 304.778 313.836 309.054 312.373C327.728 305.947 341.229 288.03 348.795 275.318L349.295 275.741Z" fill="white"/>
<path d="M241.564 85.5424C241.552 95.0627 236.138 103.693 227.726 107.602C219.315 111.511 209.465 109.974 202.549 103.674C195.633 97.3732 192.933 87.4768 195.648 78.3782C190.32 81.0394 183.929 79.7399 179.977 75.1918C176.025 70.6438 175.467 63.9456 178.609 58.7684C181.751 53.5912 187.834 51.1851 193.524 52.869C199.214 54.5529 203.137 59.92 203.143 66.0288C203.143 66.3105 203.143 66.5855 203.143 66.8606C210.151 60.8849 219.873 59.6231 228.097 63.6218C236.321 67.6205 241.567 76.1605 241.564 85.5424Z" fill="#1B1147"/>
</svg>
