<svg width="90" height="138" viewBox="0 0 90 138" fill="none" xmlns="http://www.w3.org/2000/svg">
<path d="M7.20171 7.79545C27.0311 19.3672 47.8962 27.6032 69.2371 32.4801C72.0183 33.056 74.7995 33.6319 77.4687 34.2032C79.1362 34.5794 81.1587 34.5096 82.452 35.7918C82.6634 36.1077 82.8874 36.117 82.7563 36.5723C82.6316 36.8743 81.8158 37.6084 81.4607 38.0544C79.3747 39.6574 76.8723 40.4752 74.5813 41.609C63.9358 46.697 53.191 51.4736 42.4461 56.2503C31.7076 60.8737 20.9501 65.957 11.9126 75.5654C11.0904 76.4528 10.8029 77.9767 11.0881 79.2172C12.0408 86.0141 17.3665 87.4633 21.5785 88.7128C27.2275 90.4825 32.8829 92.099 38.5319 93.8687C43.2975 95.2947 48.4119 96.428 52.6406 99.9819C55.781 102.723 57.9617 106.96 58.997 111.764C60.1189 117.185 59.8649 123.318 57.8569 128.456C57.1086 130.268 57.3494 132.582 58.6491 133.711C59.8431 134.682 61.7663 134.301 62.5146 132.489C66.8921 121.612 65.8954 107.749 60.1031 98.6016C56.8404 93.3983 52.2439 90.5971 47.4973 88.7112C41.9729 86.6394 36.1992 85.1717 30.6622 83.4066C27.452 82.3521 24.2355 81.451 21.0253 80.3966C20.0299 80.0482 18.9225 79.6952 18.0454 79.1981C17.1684 78.7011 16.7394 78.2226 16.6655 77.298C16.3907 78.5153 16.1159 79.7325 15.841 80.9498C23.938 72.3775 33.8861 67.875 43.4854 63.6652C54.7967 58.7584 66.0023 53.6936 77.2206 48.3222C81.4538 46.3474 88.3944 44.024 88.5999 36.3536C88.799 28.8364 82.6892 27.3548 78.5703 26.5699C67.3271 24.4148 56.234 21.3446 45.403 17.3637C33.023 12.8579 21.0298 7.13951 9.30501 0.357177C7.88063 -0.46971 6.24898 0.998514 5.72474 2.81975C4.84543 5.08702 5.77732 6.96856 7.20171 7.79545Z" fill="#FF5486"/>
<path d="M39.6172 113.726C42.9394 114.785 46.1051 116.912 48.5544 120.085C49.835 121.674 50.8853 123.407 51.8108 125.442C52.7364 127.477 53.3195 129.651 54.133 131.681C56.2884 136.531 60.3566 138.543 64.2983 135.481C68.128 132.414 70.8335 126.691 73.6002 122.198C77.0961 116.353 80.6977 110.666 84.1937 104.821C85.1596 103.172 84.5955 100.538 83.4015 99.5668C81.9961 98.2799 80.5019 99.1395 79.536 100.789C75.8033 106.931 72.077 112.92 68.4564 119.067C66.8859 121.766 65.3092 124.619 63.5274 127.002C62.5806 128.192 61.0292 130.431 59.7422 128.996C58.4552 127.56 57.9165 124.313 57.0966 122.436C55.9661 119.932 54.7236 117.423 53.126 115.36C49.9371 111.081 45.9197 107.844 41.4901 106.431C40.053 105.911 38.4404 106.919 37.9098 108.894C37.3793 110.869 38.1801 113.205 39.6172 113.726Z" fill="#FF5486"/>
</svg>
