<svg width="890" height="525" viewBox="0 0 890 525" fill="none" xmlns="http://www.w3.org/2000/svg">
<path d="M313.985 93.583C313.771 92.1829 308.826 60.2044 304.636 57.4811C304.497 57.3823 304.337 57.3138 304.169 57.28C304.001 57.2462 303.827 57.2479 303.66 57.2851C299.384 58.3702 297.994 58.6852 301.308 81.038C299.17 72.3363 296.106 62.4025 292.757 60.3584C292.471 60.1669 292.146 60.0399 291.805 59.9866C291.464 59.9334 291.115 59.9551 290.783 60.0504C285.638 61.6115 286.55 73.3514 288.346 83.4322C285.716 75.0806 282.153 65.8398 278.84 63.8797C278.568 63.6998 278.261 63.5766 277.939 63.5176C277.616 63.4586 277.285 63.4651 276.966 63.5366C276.599 63.6402 276.258 63.8183 275.966 64.0595C275.674 64.3007 275.437 64.5996 275.27 64.9367C273.36 68.339 274.806 77.4537 276.738 85.7704C273.723 77.4887 269.911 68.9691 266.875 68.472C266.446 68.4237 266.012 68.5042 265.631 68.7029C265.249 68.9016 264.938 69.2091 264.737 69.5851C259.849 76.6487 272.099 101.669 274.842 107.073C270.93 105.05 256.842 98.0914 251.17 99.9255C250.706 100.053 250.275 100.276 249.906 100.58C249.538 100.885 249.239 101.263 249.032 101.69C246.702 106.66 273.524 120.444 277.244 122.32C280.325 132.962 281.395 144.069 280.4 155.09C279.924 159.96 278.902 164.764 277.35 169.413C277.35 169.476 277.308 169.553 277.279 169.623C274.821 176.947 270.825 183.682 265.55 189.393L264.937 190.037C263.911 191.105 262.818 192.156 261.659 193.187C256.089 198.041 249.718 201.926 242.818 204.675L243.089 205.319C250.233 202.479 256.816 198.43 262.535 193.355C263.212 192.746 263.861 192.13 264.495 191.507C266.369 191.591 286.586 193.222 294.895 223.212C294.567 223.562 294.232 223.912 293.89 224.241C285.618 232.464 275.478 238.639 264.303 242.261L264.538 242.919C275.324 239.415 285.174 233.581 293.362 225.845C296.933 222.439 300.142 218.686 302.94 214.644C303.61 213.692 304.251 212.719 304.885 211.717C305.676 210.464 306.446 209.169 307.18 207.839C308.13 206.145 309.021 204.4 309.852 202.603C313.423 194.861 316.054 186.734 317.691 178.388C319.041 171.585 319.912 164.699 320.299 157.778C322.258 124.315 314.056 93.842 313.985 93.583ZM319.565 157.736C318.724 171.87 315.93 187.881 309.025 202.435C305.598 209.807 301.03 216.615 295.486 222.617C287.533 194.566 269.177 191.248 265.165 190.863C276.11 179.662 280.023 166.144 281.127 155.16C282.141 143.993 281.042 132.738 277.885 121.963L277.842 121.823L277.707 121.76C265.856 115.782 248.889 105.785 249.616 102.208C249.63 102.127 249.657 102.049 249.694 101.977C249.858 101.637 250.094 101.336 250.387 101.095C250.68 100.853 251.022 100.676 251.39 100.577C257.583 98.5814 275.327 108.102 275.505 108.193L276.524 108.753L275.989 107.731C275.833 107.43 260.191 77.3837 265.3 69.9631C265.742 69.3331 266.212 69.0601 266.726 69.1441C270.346 69.7321 275.897 84.9023 279.203 95.3472C280.215 98.9105 281.02 101.389 281.127 101.732L281.84 101.536C281.74 101.2 281.092 98.8895 280.065 95.6342C277.493 86.6105 273.281 69.9141 275.882 65.2588C276.004 65.0069 276.179 64.7831 276.395 64.6021C276.612 64.4212 276.864 64.2871 277.137 64.2087C277.364 64.16 277.6 64.1586 277.828 64.2044C278.056 64.2502 278.272 64.3422 278.462 64.4747C282.873 67.0789 287.968 84.0763 290.341 92.848C291.054 95.7532 291.595 97.7484 291.681 98.0564L292.393 97.8884C292.315 97.5874 291.845 95.6342 291.082 92.792C288.738 83.0682 284.669 62.6336 290.997 60.7154C291.237 60.6454 291.49 60.6304 291.737 60.6717C291.984 60.713 292.219 60.8093 292.422 60.9534C298.23 64.4537 303.496 94.6681 303.553 94.9691L304.265 94.8571C298.465 59.3363 299.505 59.0703 303.909 57.9572C303.979 57.9447 304.05 57.947 304.119 57.9639C304.188 57.9808 304.252 58.0119 304.308 58.0552C307.565 60.1554 311.933 84.4893 313.351 93.716C313.372 94.0241 321.546 124.392 319.565 157.736Z" fill="#1B1147"/>
<path d="M792.524 124.26L587.801 125.758L555.542 24.7051L757.977 24.9501L792.524 124.26Z" fill="#FFCC66"/>
<path d="M502.981 452.838L562.604 431.997L573.521 462.099L599.823 474.378L520.817 502.031C520.817 502.031 502.66 453.517 502.981 452.838Z" fill="#1B1147"/>
<path d="M452.593 252.595L573.25 438.628L500.914 464.068L400.894 265.945L452.593 252.595Z" fill="#762AE2"/>
<path d="M368.528 454.085L431.664 458.285L429.455 490.208L448.602 511.763L364.943 506.162C364.943 506.162 367.958 454.589 368.528 454.085Z" fill="#1B1147"/>
<path d="M455.037 241.667C453.148 242.003 401.364 238.642 388.594 237.809L385.744 237.627L388.53 232.867L403.473 207.427L406.993 201.434L418.908 181.133L429.07 182.148C429.07 182.148 430.979 186.173 433.773 192.131C434.407 193.496 435.098 194.931 435.811 196.513C438.704 202.702 442.124 210.108 445.288 217.123C446.457 219.727 447.597 222.275 448.659 224.69C452.821 234.176 455.785 241.52 455.037 241.667Z" fill="#FFCC66"/>
<path d="M394.088 251.719L359.014 460.853L439.288 464.711L452.913 252.797L394.088 251.719Z" fill="#762AE2"/>
<path d="M577.112 24.7329L564.87 10.9138L564.549 10.5498L555.784 24.7049L555.627 24.957L531.171 64.4681L529.126 62.1089L490.646 94.2415L495.142 99.4429C492.745 102.671 491.523 106.597 491.673 110.59C491.823 114.583 493.336 118.41 495.968 121.456C498.601 124.502 502.2 126.589 506.186 127.382C510.172 128.175 514.314 127.628 517.945 125.828L523.582 132.346L537.591 120.655L538.076 121.236L538.304 121.502L538.532 121.782L538.953 121.432L539.615 120.872C541.753 119.023 544.033 117.091 546.421 115.271L546.193 114.998L545.965 114.732L545.459 114.123L562.076 100.248L559.44 97.2027L576.492 90.3072L619.355 73.1068L619.818 72.9248L577.112 24.7329ZM576.286 89.6561L558.969 96.6077L531.656 65.0352L555.884 25.832L556.597 24.6909L564.627 11.7189L576.143 24.7189L618.607 72.6518L576.286 89.6561Z" fill="#1B1147"/>
<path d="M397.63 174.706C404.457 179.55 412.958 183.513 423.54 185.949L423.718 185.2C390.939 177.646 378.354 155.28 373.551 137.841L373.394 137.246C370.398 125.587 369.565 113.493 370.936 101.543C374.634 98.834 401.35 79.0224 397.865 74.003C397.561 73.5785 397.169 73.2223 396.715 72.958C396.26 72.6937 395.753 72.5273 395.228 72.4699C388.701 71.4828 374.627 81.5707 370.729 84.4899C372.725 78.1054 381.418 48.633 374.812 41.7865C373.986 40.9417 373.138 40.6617 372.268 40.9464C369.062 42.0245 366.482 52.0073 364.722 61.57C365.292 52.1613 365.178 41.9685 362.47 38.5942C362.221 38.2556 361.902 37.9726 361.533 37.7639C361.165 37.5552 360.756 37.4254 360.332 37.3831C359.971 37.3586 359.608 37.4081 359.267 37.5287C358.926 37.6492 358.614 37.838 358.351 38.0832C355.102 40.8204 352.929 51.5172 351.603 61.101C351.703 49.8301 350.513 36.8231 344.627 36.046C344.246 36.0026 343.859 36.0429 343.496 36.164C343.132 36.285 342.8 36.4838 342.525 36.7461C339.232 39.5463 337.715 50.9572 337.016 60.821C336.496 35.906 334.878 35.766 330.047 35.353C329.858 35.3395 329.668 35.3669 329.49 35.4335C329.313 35.5 329.153 35.6039 329.021 35.738C324.959 39.4553 325.494 75.2421 325.522 76.7613C325.486 77.0693 322.187 111.764 330.553 147.88C331.016 149.903 331.515 151.891 332.035 153.844C337.023 172.424 344.406 187.972 354.126 200.118C367.53 216.919 385.359 227.231 407.115 230.76L407.243 229.997C392.399 227.588 380.271 222.1 370.366 214.7C373.865 180.545 395.549 175.147 397.63 174.706ZM369.625 214.168C347.456 197.206 336.61 170.569 331.358 147.712C323.028 111.708 326.313 77.1393 326.37 76.7963C326.156 66.5054 326.413 39.2033 329.577 36.326C329.626 36.2644 329.691 36.2155 329.764 36.1838C329.837 36.1521 329.917 36.1384 329.997 36.144C334.985 36.571 336.183 36.6691 336.411 76.4322H337.202C337.202 76.0892 337.351 42.2275 343.031 37.3551C343.224 37.1673 343.457 37.0239 343.713 36.9355C343.969 36.8472 344.243 36.8159 344.513 36.8441C351.796 37.8101 351.111 60.821 350.363 71.8469C350.057 75.0811 349.9 77.2933 349.879 77.6363L350.663 77.7063C350.705 77.3353 350.94 75.0741 351.168 71.7839C352.13 61.8081 354.532 42.3815 358.857 38.7202C359.043 38.5382 359.267 38.3972 359.512 38.3066C359.758 38.2161 360.021 38.1781 360.283 38.1952C360.595 38.2309 360.896 38.3318 361.165 38.4912C361.434 38.6506 361.665 38.8647 361.843 39.1193C365.549 43.7186 364.052 62.6901 362.912 72.995C362.399 76.7193 362.114 79.3445 362.071 79.7365L362.855 79.8275C362.912 79.4355 363.318 76.5792 363.767 72.5259C365.435 60.541 368.677 43.0116 372.518 41.7235C373.074 41.5344 373.637 41.7235 374.235 42.3605C381.212 49.5291 369.717 85.0639 369.603 85.442L369.211 86.6461L370.223 85.862C370.394 85.729 387.981 72.1759 395.1 73.261C395.525 73.2988 395.935 73.4267 396.305 73.6358C396.674 73.8449 396.992 74.1302 397.238 74.4721C399.575 77.8463 382.444 92.2185 370.352 101.074L370.223 101.172V101.326C368.787 113.638 369.676 126.105 372.846 138.1C376.088 149.882 382.822 163.897 396.86 174.174C392.492 175.259 373.095 182.176 369.625 214.168Z" fill="#1B1147"/>
<path d="M352.921 107.157L352.145 107.29C351.773 105.256 351.644 103.186 351.76 101.123C350.534 93.2891 344.235 92.2041 343.964 92.1621L344.092 91.399C345.963 91.8275 347.683 92.7375 349.077 94.0355C350.471 95.3335 351.488 96.9727 352.024 98.7846C352.971 92.7851 355.943 89.4878 356.114 89.2988L356.698 89.8239C356.648 89.8729 353.028 93.9192 352.572 101.137C352.565 101.207 352.565 101.277 352.572 101.347C352.46 103.29 352.577 105.24 352.921 107.157Z" fill="#1B1147"/>
<path d="M693.551 237.803C692.838 237.894 685.085 237.102 675.023 235.982L673.598 235.821L671.09 235.548L669.201 235.331C653.182 233.532 633.942 231.271 626.809 230.431L623.958 230.095L627.037 225.447L643.427 200.602L647.296 194.742L660.408 174.896L670.591 176.45C670.591 176.45 672.294 180.608 674.795 186.761L676.605 191.277C679.178 197.668 682.228 205.278 685.028 212.552C686.061 215.233 687.073 217.858 688.014 220.35C688.57 221.834 689.111 223.269 689.61 224.634C689.703 224.908 689.81 225.181 689.902 225.447C692.553 232.65 694.178 237.726 693.551 237.803Z" fill="#FF5486"/>
<path d="M670.47 148.3C669.597 148.079 668.699 147.966 667.797 147.964C665.091 147.963 662.485 148.974 660.511 150.793C658.536 152.612 657.341 155.101 657.168 157.755C656.995 160.409 657.858 163.027 659.581 165.079C661.303 167.13 663.756 168.459 666.441 168.797C669.126 169.135 671.841 168.455 674.034 166.896C676.227 165.337 677.733 163.016 678.246 160.406C678.759 157.795 678.241 155.09 676.796 152.841C675.352 150.592 673.089 148.969 670.47 148.3ZM677.332 160.824C676.787 162.896 675.557 164.731 673.835 166.041C672.113 167.351 669.997 168.062 667.819 168.062C665.532 168.072 663.315 167.291 661.555 165.857L667.363 156.316L677.339 155.994C677.756 157.578 677.754 159.241 677.332 160.824Z" fill="#1B1147"/>
<path d="M675.052 124.232C675.047 128.377 674.113 132.47 672.315 136.219C670.517 139.969 667.9 143.284 664.65 145.927C661.4 148.57 657.597 150.477 653.511 151.512C649.426 152.547 645.158 152.685 641.012 151.916C636.866 151.146 632.944 149.489 629.524 147.061C626.105 144.633 623.272 141.495 621.227 137.869C619.183 134.243 617.977 130.219 617.695 126.083C617.413 121.948 618.063 117.802 619.598 113.941C616.403 115.787 612.661 116.504 608.995 115.971C605.328 115.439 601.958 113.691 599.443 111.016C596.928 108.341 595.421 104.902 595.171 101.269C594.922 97.6358 595.945 94.0285 598.072 91.0462C600.198 88.0639 603.299 85.8863 606.86 84.8752C610.42 83.8641 614.226 84.0805 617.644 85.4884C621.062 86.8962 623.887 89.4108 625.649 92.6141C627.411 95.8175 628.004 99.5167 627.329 103.097C631.471 99.4943 636.584 97.1437 642.053 96.3278C647.522 95.512 653.114 96.2657 658.158 98.4982C663.201 100.731 667.481 104.347 670.482 108.912C673.482 113.478 675.077 118.797 675.073 124.232H675.052Z" fill="#1B1147"/>
<path d="M768.36 406.235L807.66 356.783L833.563 376.63L862.722 373.13L810.653 438.655C810.653 438.655 768.467 406.984 768.36 406.235Z" fill="#1B1147"/>
<path d="M618.707 453.525L682.549 452.09L683.261 484.369L704.511 504.307L619.961 506.204C619.961 506.204 618.18 454.078 618.707 453.525Z" fill="#1B1147"/>
<path d="M692.881 456.423L682.662 456.85L618.643 459.482L611.852 459.762L612.714 447.854L612.785 446.874L617.175 385.871L617.232 384.905L619.982 346.675L620.068 345.576L621.037 332.079L621.122 330.861L623.46 298.413L623.524 297.566L626.403 257.488L626.46 256.62L627.735 238.95L683.981 244.915L685.356 277.593L685.406 278.629L687.43 326.891L687.473 327.738L688.299 347.431L688.591 354.494V354.508L688.677 356.525L689.518 376.469L689.553 377.351V377.358L690.458 398.885L690.501 399.725L692.432 445.656L692.468 446.671L692.881 456.423Z" fill="#3D4BC6"/>
<path d="M820.379 356.777L815.569 362.853L776.22 412.557L772.778 416.898L742.3 391.829L741.381 391.08L728.219 380.257L727.4 379.578L703.079 359.584L701.988 358.688L688.292 347.431L683.924 343.833L682.663 342.79L649.969 315.915L649.349 315.404L644.154 311.133L645.23 309.348L645.636 308.676L654.551 293.849L655.235 292.715L683.981 244.915L710.454 266.631L711.266 267.296L724.571 278.203L725.176 278.707L761.455 308.459L762.096 308.984L789.567 331.505L790.187 332.016L806.184 345.135L806.79 345.639L820.379 356.777Z" fill="#3D4BC6"/>
<path d="M790.194 332.016C786.981 336.032 782.735 339.132 777.894 340.998C772.115 343.322 765.267 344.337 757.714 344.337C749.663 344.231 741.643 343.344 733.77 341.691C733.293 342.867 732.851 344.064 732.43 345.282C728.561 356.483 727.556 368.552 728.226 380.285L727.407 379.585C726.808 368.013 727.856 356.147 731.682 345.037C732.086 343.856 732.521 342.689 732.986 341.537C721.753 339.172 710.692 336.073 699.879 332.261C699.273 341.476 700.356 350.724 703.079 359.563L701.995 358.66C699.462 349.992 698.497 340.955 699.145 331.96C695.202 330.592 691.323 329.176 687.508 327.71C684.066 326.394 680.674 325.043 677.389 323.692C679.07 330.547 681.266 337.269 683.96 343.805C685.342 347.249 686.898 350.803 688.627 354.467L688.713 356.483C686.432 351.732 684.427 347.153 682.698 342.748C680.154 336.428 678.079 329.936 676.492 323.321C674.66 322.558 672.864 321.809 671.09 321.046C664.427 318.246 657.935 315.291 651.779 312.407C651.247 313.565 650.655 314.72 650.004 315.873C645.458 323.975 638.118 332.219 627.985 340.606C636.158 353.158 643.491 367.908 646.071 382.994C650.549 383.315 654.996 383.965 659.375 384.94C664.099 385.995 668.721 387.448 673.192 389.28C677.111 384.758 682.575 380.474 689.582 376.427V377.309C682.955 381.188 677.748 385.283 673.962 389.595C679.802 392.063 685.345 395.163 690.487 398.836L690.508 399.732C685.205 395.914 679.465 392.719 673.406 390.211C668.738 395.735 666.401 401.58 666.444 407.713C666.536 422.106 679.663 435.771 692.404 445.649V446.664C679.37 436.632 665.703 422.582 665.61 407.713C665.61 401.459 667.971 395.532 672.693 389.931C664.246 386.585 655.309 384.586 646.22 384.009C647.145 389.641 647.289 395.371 646.648 401.041C644.432 419.607 633.044 435.344 612.742 447.882L612.814 446.902C632.588 434.532 643.691 419.11 645.864 400.95C646.503 395.293 646.349 389.576 645.408 383.96C635.961 383.446 626.485 384.097 617.203 385.899L617.26 384.933C626.463 383.098 635.871 382.453 645.244 383.015C642.664 368.146 635.432 353.613 627.358 341.18C626.125 342.188 622.163 345.107 620.011 346.703L620.096 345.604C622.191 344.05 625.705 341.502 626.923 340.507C624.992 337.574 623.025 334.767 621.066 332.107L621.151 330.889C623.289 333.759 625.427 336.804 627.564 339.989C637.636 331.654 644.914 323.463 649.399 315.417C650.011 314.321 650.57 313.224 651.073 312.127C649.106 311.194 647.175 310.272 645.28 309.362C637.199 305.477 629.823 301.731 623.51 298.427L623.574 297.58C629.987 300.919 637.455 304.728 645.665 308.69C647.532 309.586 649.441 310.503 651.365 311.406C653.922 305.917 655.025 299.883 654.572 293.863C654.529 293.317 654.465 292.778 654.387 292.232C652.106 276.13 637.548 264.327 626.417 257.502L626.474 256.634C637.797 263.508 652.84 275.577 655.171 292.12C655.206 292.323 655.228 292.526 655.249 292.729C656.019 298.945 654.962 305.285 652.078 311.749C658.242 314.633 664.734 317.56 671.396 320.395C673.031 321.09 674.648 321.767 676.249 322.425C672.943 307.612 673.727 295.55 678.608 286.33C680.333 283.061 682.621 280.11 685.37 277.607C692.874 270.74 702.779 267.961 710.468 266.645L711.281 267.31C703.442 268.584 693.059 271.363 685.42 278.644C682.952 280.983 680.889 283.702 679.313 286.694C674.453 295.858 673.741 307.934 677.176 322.803C680.682 324.245 684.116 325.613 687.48 326.905C691.485 328.446 695.394 329.881 699.209 331.211C699.209 331.015 699.245 330.812 699.259 330.616C701.397 306.646 715.1 288.29 724.628 278.217L725.226 278.721C715.784 288.696 702.202 306.898 700.05 330.693C700.05 330.952 700 331.218 699.986 331.477C710.874 335.332 722.016 338.457 733.335 340.83C738.922 327.409 748.364 316.559 761.505 308.473L762.153 309.005C749.084 316.986 739.685 327.703 734.119 340.984C752.647 344.624 767.362 344.428 777.645 340.283C782.342 338.453 786.455 335.422 789.56 331.505L790.194 332.016Z" fill="white"/>
<path d="M806.79 345.638C797.462 360.535 780.844 381.474 757.834 389C752.816 390.649 747.586 391.591 742.3 391.8L741.38 391.051C746.893 390.908 752.354 389.964 757.585 388.251C780.431 380.767 796.927 359.912 806.184 345.12L806.79 345.638Z" fill="white"/>
<path d="M435.191 155.294C434.188 152.903 432.312 150.968 429.93 149.868C427.549 148.768 424.835 148.583 422.321 149.35C422.467 148.342 422.512 147.322 422.457 146.305C422.271 142.796 420.913 139.445 418.593 136.77C416.273 134.096 413.12 132.248 409.622 131.512C406.125 130.777 402.478 131.194 399.246 132.7C396.015 134.207 393.379 136.718 391.747 139.844C390.115 142.971 389.578 146.539 390.219 149.996C390.86 153.453 392.643 156.606 395.292 158.967C397.942 161.327 401.31 162.764 404.874 163.054C408.439 163.344 412.001 162.472 415.01 160.572C415.22 162.143 415.795 163.645 416.691 164.963C417.586 166.281 418.778 167.379 420.174 168.173C421.569 168.966 423.132 169.434 424.742 169.54C426.351 169.646 427.963 169.387 429.454 168.784C430.28 168.451 431.058 168.016 431.77 167.488C433.634 166.115 434.981 164.172 435.6 161.965C436.219 159.758 436.075 157.411 435.191 155.294ZM431.3 166.886C430.641 167.371 429.923 167.773 429.162 168.084C427.844 168.622 426.419 168.861 424.994 168.784L423.832 157.835L431.535 151.758C432.829 152.767 433.838 154.086 434.464 155.588C435.285 157.549 435.419 159.723 434.847 161.768C434.274 163.813 433.027 165.613 431.3 166.886Z" fill="#1B1147"/>
<path d="M263.555 251.488C261.837 251.698 215.212 246.231 203.696 244.872L201.152 244.578L203.91 240.378L218.625 218.102L222.096 212.852L233.846 195.063L242.975 196.464C242.975 196.464 244.507 200.195 246.744 205.704C247.25 206.971 247.799 208.323 248.369 209.758C250.678 215.484 253.407 222.359 255.923 228.827C256.856 231.228 257.754 233.588 258.595 235.828C261.916 244.613 264.239 251.397 263.555 251.488Z" fill="#3D4BC6"/>
<path d="M242.861 171.24C241.036 170.777 239.113 170.856 237.334 171.466C235.555 172.077 234.001 173.192 232.867 174.671C231.733 176.15 231.071 177.925 230.965 179.773C230.858 181.622 231.312 183.459 232.269 185.054C233.226 186.649 234.642 187.929 236.34 188.733C238.037 189.537 239.939 189.829 241.805 189.571C243.671 189.313 245.417 188.517 246.823 187.284C248.228 186.051 249.23 184.436 249.702 182.644C250.33 180.241 249.963 177.691 248.68 175.553C247.398 173.415 245.305 171.864 242.861 171.24ZM249.01 182.441C248.521 184.303 247.416 185.952 245.867 187.128C244.319 188.304 242.416 188.941 240.459 188.937C239.714 188.935 238.972 188.841 238.25 188.657C237.005 188.34 235.844 187.76 234.851 186.956L240.053 178.402L248.989 178.108C249.379 179.535 249.386 181.038 249.01 182.469V182.441Z" fill="#1B1147"/>
<path d="M285.367 446.355H211.2L210.651 415.945L210.623 414.489L210.259 394.278L210.195 390.883L209.105 331V330.993L208.684 307.422L208.67 306.533L208.656 306.001L208.642 305.112L207.751 256.29L207.651 250.732V250.725L207.644 250.228L254.768 256.304L257.939 256.71L258.068 257.606L261.26 279.623L261.31 279.994L261.495 281.289L261.545 281.66L263.163 292.84L263.405 294.52L266.74 317.566L266.946 318.973L269.419 336.089L269.612 337.427L277.664 393.074L278.035 395.671L282.374 425.655L282.645 427.524L285.367 446.355Z" fill="#FF5486"/>
<path d="M256.415 270.221L235.186 297.523L233.305 299.953L232.243 301.353L231.431 302.396L209.134 331.049L166.855 385.311L165.929 386.501L154.306 401.44L111.273 366.437L108.892 364.512L78.3433 339.681L76.6545 338.281L60.3289 325.085L101.987 279.168L119.353 293.232L120.665 294.289L144.095 313.261L145.655 314.521L156.85 323.622L169.677 305.259L170.518 304.041L181.136 288.822L182.654 286.645L207.053 251.642L207.666 250.76L208.378 251.047L256.415 270.221Z" fill="#FF5486"/>
<path d="M266.947 318.974C261.163 318.158 255.509 316.619 250.122 314.395L248.811 313.835C242.39 310.991 236.503 307.105 231.395 302.34L230.248 301.241L229.735 300.73C223.179 303.372 216.343 305.284 209.354 306.429L208.642 306.534C204.941 307.114 201.207 307.46 197.461 307.57C196.549 307.57 195.658 307.612 194.775 307.612C190.206 307.612 185.644 307.268 181.128 306.583L180.63 306.506C180.573 306.863 180.508 307.206 180.451 307.577C177.537 324.686 170.867 345.688 155.738 357.806C153.207 359.838 150.457 361.592 147.536 363.035C154.991 369.542 161.484 377.04 166.827 385.311L165.9 386.501C160.471 377.997 153.812 370.314 146.133 363.693C139.585 366.564 132.48 367.997 125.311 367.894C120.585 367.866 115.873 367.383 111.244 366.452L108.864 364.526C122.731 367.67 134.817 367.047 144.943 362.664C135.093 354.496 123.689 348.332 111.393 344.533C100.686 341.249 89.5245 339.617 78.3075 339.695L76.6187 338.295C88.5244 338.032 100.395 339.673 111.764 343.154C124.475 347.074 136.246 353.482 146.368 361.992C149.396 360.552 152.242 358.769 154.848 356.679C169.663 344.813 176.226 324.168 179.076 307.311C179.14 306.947 179.204 306.611 179.254 306.226C176.238 305.721 173.253 305.055 170.311 304.231L171.152 303.012C173.883 303.769 176.652 304.391 179.447 304.875C180.402 298.651 180.872 293.065 181.078 288.773L182.596 286.596C182.365 292.794 181.777 298.973 180.836 305.106L181.349 305.19C190.383 306.573 199.582 306.544 208.606 305.106L209.319 305.001C215.949 303.899 222.438 302.096 228.673 299.624C224.754 295.489 221.346 290.914 218.518 285.994C213.3 276.733 209.663 266.694 207.751 256.277C207.352 254.121 207.138 252.503 207.038 251.593C206.974 251.075 206.946 250.788 206.946 250.767L207.658 250.711L208.371 250.655C208.371 250.655 208.371 250.788 208.407 251.005C209.943 263.05 213.814 274.694 219.808 285.308C222.647 290.273 226.08 294.886 230.034 299.05C230.426 298.896 230.811 298.735 231.203 298.567C232.742 297.909 234.302 297.209 235.87 296.467L236.027 296.39C245.145 291.887 253.63 286.239 261.267 279.589L261.317 279.96L261.502 281.255C253.252 288.337 244.035 294.252 234.117 298.826L233.975 298.889C233.405 299.155 232.842 299.4 232.272 299.645C231.88 299.82 231.481 299.981 231.096 300.142L231.595 300.639L232.236 301.255C237.208 305.973 242.975 309.808 249.281 312.589C249.716 312.778 250.151 312.967 250.585 313.142C255.769 315.263 261.204 316.735 266.761 317.525L266.947 318.974Z" fill="white"/>
<path d="M145.655 314.521C143.437 314.84 141.199 315.008 138.957 315.025C133.22 315.025 127.512 313.842 123.664 310.125C119.816 306.407 118.398 300.8 119.339 293.239L120.65 294.296C119.937 300.94 121.313 305.903 124.655 309.117C129.287 313.562 137.09 314.017 144.08 313.268L145.655 314.521Z" fill="white"/>
<path d="M269.612 337.427C262.505 338.414 255.665 340.764 249.481 344.344C249.053 344.582 248.633 344.834 248.205 345.093C237.326 351.682 227.611 362.223 219.06 376.714C215.751 382.38 212.812 388.247 210.259 394.279L210.195 390.883C212.46 385.793 215.008 380.83 217.827 376.014C225.773 362.517 234.994 352.212 245.234 345.415C246.103 344.831 246.982 344.278 247.87 343.755C248.298 343.503 248.726 343.251 249.16 343.013C255.401 339.456 262.278 337.105 269.419 336.09L269.612 337.427Z" fill="white"/>
<path d="M282.645 427.524C263.192 414.363 244.963 411.619 231.431 412.242C224.37 412.582 217.384 413.827 210.652 415.945V414.489C217.377 412.41 224.346 411.184 231.388 410.842C244.928 410.219 263.042 412.893 282.403 425.655L282.645 427.524Z" fill="white"/>
<path d="M200.661 209.387C214.876 209.387 226.4 198.067 226.4 184.101C226.4 170.136 214.876 158.815 200.661 158.815C186.445 158.815 174.922 170.136 174.922 184.101C174.922 198.067 186.445 209.387 200.661 209.387Z" fill="#1B1147"/>
<path d="M218.576 456.696L275.811 455.471L276.488 484.439L295.515 502.332L219.673 503.957C219.673 503.957 218.105 457.193 218.576 456.696Z" fill="#014D59"/>
<path d="M95.2103 278.728L53.7299 317.483L33.4209 296.481L7.12598 295.865L62.0958 244.502C62.0958 244.502 95.2174 278.049 95.2103 278.728Z" fill="#014D59"/>
<path d="M232.585 167.523C246.8 167.523 258.324 156.202 258.324 142.237C258.324 128.272 246.8 116.951 232.585 116.951C218.37 116.951 206.846 128.272 206.846 142.237C206.846 156.202 218.37 167.523 232.585 167.523Z" fill="#1B1147"/>
<path d="M190.357 178.066C197.183 182.903 205.685 186.866 216.259 189.302L216.438 188.553C183.658 181.006 171.074 158.632 166.271 141.194C166.214 140.998 166.164 140.795 166.107 140.599C163.113 128.939 162.281 116.846 163.648 104.896C167.354 102.18 194.069 82.3683 190.585 77.3559C190.282 76.9295 189.89 76.5714 189.436 76.3058C188.981 76.0402 188.474 75.8731 187.948 75.8158C181.413 74.8287 167.347 84.9165 163.449 87.8358C165.444 81.4512 174.138 51.9789 167.525 45.1323C166.705 44.2853 165.85 44.0052 164.988 44.2993C161.781 45.3704 159.202 55.3531 157.442 64.9229C158.012 55.5072 157.898 45.3213 155.183 41.9471C154.936 41.6052 154.618 41.3195 154.249 41.1093C153.88 40.8992 153.469 40.7694 153.045 40.729C152.683 40.7045 152.321 40.754 151.979 40.8745C151.638 40.995 151.327 41.1839 151.064 41.429C147.807 44.1663 145.641 54.8701 144.316 64.4539C144.408 53.176 143.225 40.1689 137.332 39.3919C136.952 39.3481 136.566 39.3882 136.204 39.5093C135.842 39.6304 135.511 39.8294 135.237 40.0919C131.945 42.8922 130.427 54.3031 129.729 64.1599C129.208 39.2449 127.591 39.1049 122.759 38.6918C122.57 38.6783 122.38 38.7058 122.203 38.7723C122.026 38.8389 121.865 38.9428 121.733 39.0768C117.671 42.7941 118.206 78.581 118.234 80.1071C118.199 80.4082 114.899 115.11 123.265 151.219C123.729 153.242 124.227 155.23 124.748 157.183C129.736 175.763 137.118 191.311 146.838 203.457C160.249 220.258 178.078 230.57 199.834 234.098L199.962 233.335C185.119 230.927 172.991 225.446 163.085 218.039C166.606 183.862 188.333 178.514 190.357 178.066ZM162.359 217.521C140.19 200.559 129.344 173.922 124.063 151.086C115.733 115.082 119.018 80.5132 119.075 80.1701C118.911 69.8583 119.168 42.5701 122.332 39.6789C122.383 39.619 122.448 39.5714 122.521 39.5398C122.593 39.5083 122.673 39.4936 122.752 39.4969C127.74 39.9239 128.938 40.0289 129.166 79.7851H129.95C129.95 79.4421 130.106 45.5804 135.786 40.708C135.979 40.521 136.212 40.3787 136.469 40.2915C136.725 40.2043 136.998 40.1744 137.268 40.2039C144.544 41.163 143.867 64.1739 143.118 75.2067C142.812 78.441 142.655 80.6532 142.634 80.9962L143.418 81.0662C143.46 80.6952 143.696 78.434 143.924 75.1437C144.886 65.1679 147.287 45.7414 151.613 42.0801C151.799 41.8995 152.023 41.7595 152.268 41.669C152.514 41.5786 152.776 41.5398 153.038 41.555C153.35 41.592 153.65 41.6935 153.919 41.8528C154.188 42.0121 154.419 42.2255 154.598 42.4791C158.304 47.0855 156.8 66.05 155.667 76.3548C155.154 80.0791 154.869 82.7113 154.826 83.0964L155.61 83.1874C155.667 82.7953 156.073 79.9461 156.522 75.8858C158.19 63.9078 161.432 46.3714 165.273 45.0833C165.59 45.0076 165.923 45.0279 166.229 45.1416C166.534 45.2553 166.797 45.4571 166.983 45.7204C173.967 52.889 162.473 88.4238 162.359 88.8018L161.959 90.0129L162.978 89.2219C163.15 89.0888 180.736 75.5358 187.855 76.6208C188.274 76.6617 188.679 76.7911 189.041 77.0002C189.404 77.2093 189.717 77.493 189.957 77.8319C192.302 81.2062 175.171 95.5784 163.078 104.434L162.95 104.525V104.686C161.496 116.978 162.363 129.428 165.508 141.411C168.758 153.193 175.52 167.208 189.53 177.485C185.226 178.612 165.829 185.515 162.359 217.521Z" fill="#1B1147"/>
<path d="M143.995 100.402C143.961 102.091 144.095 103.779 144.394 105.442L143.617 105.575C143.304 103.85 143.164 102.098 143.197 100.346C142.035 92.3514 135.651 91.2453 135.358 91.2103L135.487 90.4472C137.339 90.8722 139.043 91.7709 140.427 93.052C141.811 94.3331 142.826 95.9511 143.368 97.7418C144.202 91.3153 147.387 87.773 147.565 87.584L148.15 88.102C148.1 88.158 144.159 92.5544 143.981 100.381L143.995 100.402Z" fill="#1B1147"/>
<path d="M332.071 268.296C332.071 268.296 340.536 273.287 339.525 279.938L345.61 278.622C345.61 278.622 343.579 265.321 336.468 265.979L332.071 268.296Z" fill="#FE1D00"/>
<path d="M427.203 78.4766C427.203 78.4766 428.471 86.7932 435.041 88.4524L429.341 93.6538C429.341 93.6538 421.502 87.4163 422.15 79.5196L427.203 78.4766Z" fill="#762AE2"/>
<path d="M456.989 109.705L456.547 109.152C462.091 104.875 461.863 99.3513 455.835 91.6507C448.63 82.55 456.783 73.3303 456.868 73.2393L457.402 73.7013C457.082 74.0583 449.564 82.578 456.398 91.2027C462.633 99.1553 462.832 105.19 456.989 109.705Z" fill="#762AE2"/>
<path d="M230.169 91.4137C228.402 90.9867 227.034 87.0244 226.863 83.5941C226.685 79.9748 227.754 77.4896 229.799 76.7755C231.124 76.3065 231.53 74.8294 231.63 73.6743C232.044 68.9349 228.352 61.0733 222.965 58.1121C221.048 57.048 220.115 56.0119 220.001 54.8288C219.815 52.7776 222.238 50.7965 225.602 48.0593C228.25 46.0006 230.73 43.7419 233.02 41.3037L233.554 41.7657C231.236 44.2436 228.722 46.5375 226.036 48.6263C222.972 51.1255 220.542 53.1067 220.699 54.7938C220.777 55.7109 221.633 56.5999 223.3 57.531C229.001 60.6953 232.763 68.7319 232.321 73.7653C232.15 75.7115 231.359 76.9926 230.02 77.4616C227.568 78.3227 227.483 82.033 227.561 83.5871C227.747 87.2974 229.2 90.4896 230.326 90.7627L230.169 91.4137Z" fill="#762AE2"/>
<path d="M448.481 151.296C448.481 151.296 456.946 156.288 455.927 162.938L462.027 161.608C462.027 161.608 459.989 148.307 452.877 148.965L448.481 151.296Z" fill="#FE1D00"/>
<path d="M519.627 274.002C519.627 274.002 525.99 277.754 525.228 282.76L529.81 281.759C529.81 281.759 528.285 271.748 522.94 272.252L519.627 274.002Z" fill="#FE1D00"/>
<path d="M121.056 211.647C121.056 211.647 127.427 215.4 126.657 220.405L131.246 219.404C131.246 219.404 129.714 209.393 124.37 209.897L121.056 211.647Z" fill="#FE1D00"/>
<path d="M293.968 116.356C294.001 118.045 293.87 119.733 293.576 121.397L294.346 121.53C294.662 119.805 294.803 118.053 294.766 116.3C295.928 108.306 302.32 107.2 302.605 107.2L302.484 106.436C300.631 106.859 298.925 107.757 297.541 109.039C296.156 110.32 295.143 111.939 294.602 113.731C293.769 107.305 290.576 103.762 290.398 103.573L289.821 104.091C289.864 104.147 293.804 108.544 293.982 116.37L293.968 116.356Z" fill="#1B1147"/>
<path d="M566.886 114.067C566.523 113.759 566.131 113.402 565.718 113.024C562.867 110.399 558.485 106.429 554.523 108.823C552.314 110.153 550.126 111.624 548.01 113.171C547.325 113.675 546.648 114.186 545.979 114.704C543.584 116.559 541.311 118.498 539.159 120.353L538.503 120.899L538.09 121.242C536.009 122.979 532.482 126.038 531.577 128.705C529.551 131.03 527.774 133.554 526.275 136.238C526.111 136.448 518.693 145.709 505.909 155.965C490.382 168.412 466.937 182.329 438.925 183.267L437.999 183.645V183.995C445.07 183.818 452.097 182.843 458.942 181.09L458.799 181.363C458.985 181.461 477.662 191.346 475.987 220.342C467.841 222.767 459.38 224.024 450.868 224.074V224.774C483.249 224.697 510.527 206.201 527.708 190.695C538.907 180.59 548.879 169.246 557.423 156.889C557.891 156.987 558.369 157.034 558.848 157.029C561.698 157.029 564.919 155.426 567.627 153.816C571.596 151.457 577.604 147.894 579.742 142.349C583.44 132.912 575.131 121.214 566.886 114.067ZM527.237 190.198C514.966 201.273 497.508 213.888 476.728 220.139C478.153 193.145 462.148 182.518 459.505 180.936C477.099 176.379 491.807 167.544 502.118 159.843C504.313 158.205 506.394 156.567 508.311 154.943C515.067 149.412 521.27 143.261 526.838 136.574C528.152 134.268 529.658 132.074 531.342 130.014C531.456 129.867 531.577 129.727 531.705 129.587C531.834 129.447 532.005 129.237 532.161 129.062C533.708 127.34 535.461 125.807 537.221 125.114C538.463 124.74 539.77 124.619 541.062 124.757C543.406 124.953 545.726 125.372 547.988 126.01L548.401 126.115C548.572 126.164 548.751 126.206 548.922 126.262L549.285 126.36C553.268 127.508 557.124 129.16 559.155 130.798C559.247 130.875 559.34 130.952 559.425 131.036C559.569 131.158 559.705 131.289 559.831 131.428C559.831 131.428 559.831 131.428 559.831 131.463C559.9 131.537 559.964 131.614 560.024 131.694C560.292 131.941 560.474 132.264 560.546 132.618C560.617 132.972 560.575 133.34 560.423 133.668C558.948 136.378 557.444 136.798 555.264 136.427L554.836 136.35L554.544 136.287L554.152 136.196C553.66 136.077 553.14 135.937 552.584 135.783C551.872 135.587 551.109 135.384 550.283 135.188L549.698 135.047C547.551 134.513 545.489 133.691 543.57 132.604L543.278 132.429L542.979 132.233C542.729 132.072 542.608 131.974 542.601 131.974L542.309 131.743L532.788 144.708L533.073 144.911L533.358 145.121L542.451 132.737L542.537 132.793C540.313 135.727 539.081 138.296 540.1 139.626C540.299 139.885 540.492 140.172 540.684 140.466C541.482 141.677 542.38 143.042 544.247 143.168C545.508 143.252 547.482 142.825 551.209 139.948C548.936 143.084 547.375 146.08 547.596 148.209C547.634 148.704 547.795 149.184 548.066 149.604C548.337 150.024 548.709 150.372 549.15 150.617C551.188 151.807 554.801 150.127 558.684 147.396C556.197 150.309 554.409 152.948 554.487 154.565C554.486 154.821 554.544 155.074 554.658 155.305C554.772 155.535 554.937 155.737 555.143 155.895C555.626 156.26 556.168 156.544 556.746 156.735C548.243 168.96 538.342 180.187 527.237 190.198ZM553.646 136.763L553.14 137.379C552.848 137.631 552.57 137.876 552.292 138.079C548.729 141.11 546.043 142.545 544.268 142.412C542.786 142.314 542.024 141.152 541.283 140.032C541.076 139.724 540.876 139.423 540.67 139.15C539.886 138.121 540.99 135.881 543.121 133.108C545.302 134.355 547.664 135.266 550.126 135.811L550.461 135.895C551.173 136.063 551.801 136.238 552.406 136.399L553.646 136.763ZM579.079 142.111C577.162 147.011 572.387 150.169 567.243 153.228C563.487 155.454 558.763 157.715 555.549 155.328C555.428 155.234 555.331 155.113 555.265 154.976C555.2 154.839 555.167 154.689 555.171 154.537C555.128 152.99 557.059 150.225 559.831 147.081C560.38 146.472 560.95 145.849 561.542 145.219C563.566 143.609 565.575 141.831 567.392 140.151C571.39 136.434 574.468 133.15 574.789 132.779L574.29 132.282C573.955 132.569 570.513 135.489 566.594 139.206C564.805 140.9 562.91 142.755 561.171 144.603C560.459 145.163 559.746 145.702 559.09 146.199C555.036 149.203 551.352 151.1 549.485 150.008C549.139 149.82 548.848 149.549 548.637 149.221C548.427 148.893 548.304 148.519 548.28 148.132C548.045 145.849 550.112 142.384 552.898 138.842C553.154 138.515 553.418 138.186 553.689 137.855L554.622 137.015C557.273 137.575 559.24 137.316 561.036 133.99C561.219 133.661 561.305 133.287 561.285 132.912C561.23 132.261 560.954 131.647 560.501 131.169C562.112 129.468 563.879 127.529 565.824 125.324L565.311 124.834C565.041 125.072 562.596 127.256 559.611 130.28C559.539 130.364 559.454 130.448 559.368 130.532L559.333 130.574L559.147 130.357C557.045 128.719 553.375 127.158 549.556 126.045C549.641 125.954 549.734 125.87 549.819 125.786C550.803 124.806 551.822 123.833 552.848 122.874C554.765 121.081 556.696 119.373 558.478 117.854L558.435 117.805L558.563 117.693L558.321 117.434L558.086 117.175C555.991 119.037 554.081 120.731 552.328 122.257C550.995 123.413 549.762 124.477 548.615 125.443C545.965 124.694 543.238 124.243 540.484 124.099C539.299 124.019 538.108 124.164 536.978 124.526C535.658 125.099 534.452 125.898 533.415 126.885C534.937 125.014 536.66 123.31 538.553 121.802L538.974 121.452L539.636 120.892C541.774 119.044 544.055 117.112 546.442 115.292C547.097 114.781 547.767 114.277 548.444 113.78C550.539 112.24 552.72 110.791 554.9 109.467C558.406 107.367 562.361 110.966 565.24 113.598C565.661 113.976 566.052 114.333 566.416 114.648C574.483 121.592 582.649 133.01 579.079 142.111Z" fill="#1B1147"/>
<path d="M559.389 130.51L559.354 130.552L559.169 130.336L559.389 130.51Z" fill="#FEFDFF"/>
<path d="M438.96 183.282L438.035 183.66V183.31L438.96 183.282Z" fill="#1B1147"/>
<path d="M559.389 130.51L559.354 130.552L559.169 130.336L559.389 130.51Z" fill="#1B1147"/>
<path d="M859.138 209.758C857 205.404 856.287 203.983 832.187 212.39C841.401 208.225 851.812 202.751 853.344 198.697C853.496 198.347 853.567 197.969 853.552 197.589C853.537 197.209 853.437 196.837 853.259 196.499C850.408 191.312 837.496 194.854 826.693 198.97C835.429 194.315 844.935 188.47 846.403 184.5C846.55 184.169 846.625 183.811 846.625 183.45C846.625 183.089 846.55 182.732 846.403 182.4C846.209 182.029 845.937 181.701 845.606 181.44C845.274 181.178 844.89 180.988 844.479 180.881C840.282 179.565 830.441 183.093 821.605 186.992C830.156 181.945 838.828 175.988 838.707 172.634C838.707 171.724 838.102 171.031 836.997 170.534C832.543 168.679 824.021 172.396 815.933 177.087L759.089 23.8584L754.1 25.6505L811.265 179.915L811.778 179.677C805.315 183.73 799.664 187.917 797.441 189.625C798.866 184.983 803.519 168.322 800.248 162.624C800.004 162.158 799.663 161.748 799.247 161.421C798.831 161.094 798.349 160.858 797.833 160.726C794.113 159.851 789.103 171.465 785.483 181.602C785.426 181.756 785.384 181.903 785.327 182.057L785.156 182.505C783.018 188.547 781.457 193.895 780.98 195.519C769.791 201.15 757.643 204.71 745.143 206.02C739.614 206.563 734.042 206.506 728.525 205.852H728.297C719.608 204.801 711.24 201.97 703.734 197.542L702.872 197.031C695.411 192.439 688.185 185.83 681.772 176.429L681.109 176.87C687.223 185.802 694.064 192.271 701.147 196.87C701.39 198.445 702.929 211.641 689.639 224.669C684.909 229.194 679.496 232.972 673.591 235.87C673.221 236.066 672.829 236.262 672.437 236.444C671.988 236.164 671.532 235.884 671.09 235.597C660.985 229.108 651.85 220.07 644.588 207.707L643.876 208.099C650.117 218.949 658.763 228.28 669.173 235.401C676.256 240.155 684.027 243.835 692.226 246.315C702.772 249.563 714.516 251.216 727.3 251.216C735.168 251.192 743.026 250.632 750.815 249.542C788.505 244.404 820.65 228.968 820.949 228.828C820.949 228.828 822.895 228.128 825.938 227.015L828.325 226.119L844.415 269.522L849.403 267.723L833.27 224.221C844.522 219.832 857.841 214.057 859.116 210.92C859.209 210.741 859.258 210.543 859.262 210.342C859.266 210.141 859.223 209.941 859.138 209.758ZM858.425 210.542C857.442 212.958 846.667 218.243 829.33 224.823C829.255 224.86 829.176 224.888 829.094 224.907L828.881 224.999C827.84 225.4 826.774 225.801 825.681 226.203C822.667 227.316 820.693 228.002 820.693 228.016C820.365 228.177 788.334 243.557 750.773 248.681C726.943 251.93 697.492 251.384 673.278 236.878C673.883 236.577 674.468 236.283 675.045 235.982C680.503 233.199 685.528 229.663 689.967 225.482C702.615 213.273 702.387 200.77 702.081 197.43C716.953 206.748 732.822 208.022 745.314 206.818C757.97 205.484 770.265 201.859 781.578 196.128L781.721 196.051L781.764 195.897C782.947 191.816 784.429 187.188 786.039 182.687C790.044 171.353 794.833 160.782 797.726 161.482C798.137 161.587 798.521 161.777 798.85 162.04C799.18 162.304 799.448 162.634 799.636 163.009C803.199 169.225 796.464 190.367 796.386 190.577L796.001 191.795L797.02 191.004C797.32 190.766 827.384 167.433 836.762 171.332C837.567 171.668 837.959 172.109 837.988 172.697C838.109 176.716 822.432 185.998 811.515 191.802C807.773 193.664 805.172 195.064 804.816 195.26L805.187 195.96C805.543 195.785 807.973 194.56 811.365 192.782C820.864 188.05 838.551 179.887 844.294 181.686C844.598 181.761 844.882 181.898 845.127 182.089C845.373 182.28 845.575 182.519 845.719 182.792C845.824 183.027 845.878 183.281 845.878 183.538C845.878 183.794 845.824 184.048 845.719 184.283C843.774 189.583 825.938 198.753 816.702 203.185C813.617 204.585 811.536 205.593 811.187 205.768L811.536 206.468C811.849 206.328 813.923 205.404 816.916 203.962C827.235 199.334 849.104 190.493 852.617 196.898C852.744 197.137 852.815 197.401 852.824 197.67C852.832 197.939 852.779 198.206 852.667 198.452C850.529 204.144 828.66 213.28 820.365 216.577C818.448 217.333 817.265 217.788 817.201 217.809L817.479 218.509L821.042 217.214C855.81 204.613 856.366 205.754 858.489 210.094C858.51 210.17 858.513 210.25 858.498 210.328C858.484 210.405 858.451 210.479 858.404 210.542H858.425Z" fill="#1B1147"/>
</svg>
