<svg width="375" height="362" viewBox="0 0 375 362" fill="none" xmlns="http://www.w3.org/2000/svg">
<path d="M305.468 2.63868C321.237 21.667 321.347 51.9022 315.502 79.2214C309.82 104.725 298.115 130.079 282.23 153.55C266.345 177.02 246.487 198.827 224.254 217.258C198.269 238.806 169.57 256.05 140.036 270.133C110.114 284.373 79.4982 295.317 48.7998 304.47C45.0027 305.55 41.0638 306.763 37.2667 307.844C31.5711 309.464 30.657 301.389 36.3526 299.769C66.342 291.284 96.2107 281.25 125.696 268.252C154.549 255.434 182.877 239.785 208.7 220.053C231.053 203.171 251.381 183 267.954 160.545C284.167 138.843 296.833 115.078 304.043 90.63C307.629 78.5278 309.637 66.4551 310.032 54.6556C310.551 41.2839 308.898 27.8781 303.323 17.1247C301.816 14.387 300.271 11.8931 298.339 9.55586C295.342 5.51926 302.433 -1.15426 305.468 2.63868Z" fill="#818DFF"/>
<path d="M91.7903 229.657C76.6476 244.873 61.3561 260.23 46.2135 275.447C40.6509 281.164 34.3444 287.582 33.5195 295.352C32.9288 302.178 36.3121 308.158 40.8222 312.354C47.6477 318.711 57.5629 321.196 66.5502 323.59C72.1523 325.07 68.8832 334.417 63.1608 332.809C46.2342 328.241 26.3337 321.408 24.0115 301.648C22.8821 292.1 27.2914 283.368 34.0093 275.599C41.0532 267.281 49.3577 259.706 57.1522 251.888C66.612 242.261 76.0434 232.902 85.5032 223.275C90.4136 218.653 96.4316 225.047 91.7903 229.657Z" fill="#818DFF"/>
</svg>
