<svg width="385" height="445" viewBox="0 0 385 445" fill="none" xmlns="http://www.w3.org/2000/svg">
<path d="M122.918 99.3249C124.337 99.4799 125.707 99.917 126.944 100.609C128.181 101.3 129.258 102.232 130.106 103.345C128.415 97.3903 129.973 93.1328 130.062 92.8955L130.759 93.1472C130.759 93.2191 128.037 100.569 133.667 109.379L133.044 109.76C132.157 108.366 131.411 106.892 130.819 105.359L130.678 105.431C126.805 98.7855 120.752 100.037 120.499 100.087L120.329 99.368C121.185 99.2285 122.057 99.214 122.918 99.3249Z" fill="#1B1147"/>
<path d="M90.1723 59.9002C90.2346 59.7352 90.3333 59.5854 90.4614 59.4612C90.5895 59.337 90.744 59.2414 90.9142 59.181C95.2985 57.8865 96.7377 57.4622 106.107 78.7711C103.192 70.026 100.447 59.6916 102.309 56.1389C102.458 55.8209 102.678 55.5388 102.952 55.3125C103.226 55.0863 103.549 54.9215 103.897 54.83C109.327 53.4924 115.024 64.3015 118.964 74.0534C116.694 65.3371 114.757 55.355 116.619 51.903C116.763 51.6024 116.969 51.3337 117.224 51.1135C117.479 50.8933 117.779 50.7263 118.103 50.6229C118.484 50.5201 118.883 50.4965 119.275 50.5535C119.666 50.6105 120.04 50.7469 120.373 50.9537C123.949 52.9242 127.695 61.6837 130.566 69.9973C128.682 61.1443 127.361 51.6657 129.78 49.6376C129.981 49.4671 130.218 49.3403 130.474 49.2659C130.729 49.1915 130.999 49.1711 131.264 49.2061C131.618 49.2507 131.963 49.3477 132.287 49.4938C140.522 53.0896 143.452 81.4968 143.994 87.6816C146.353 83.8485 155.033 70.3497 161.094 68.9833C161.574 68.8539 162.077 68.8255 162.57 68.9C163.062 68.9744 163.533 69.1499 163.95 69.4148C168.772 72.5431 152.533 98.7353 150.27 102.331C153.397 113.288 158.574 123.595 165.545 132.738C175.975 146.136 194.989 161.13 226.317 156.47L226.429 157.189C217.578 158.623 208.52 158.327 199.789 156.319C198.223 157.333 181.087 169.358 190.271 200.109C202.589 203.336 215.54 203.551 227.964 200.735L228.12 201.454C207.853 205.827 188.587 203.008 170.856 193.09C156.694 185.179 143.489 172.709 131.59 156.075C111.367 127.775 101.834 96.7432 101.753 96.4699C101.226 95.1682 87.9542 64.4885 90.1723 59.9002ZM102.495 96.2254C102.584 96.5346 112.087 127.473 132.25 155.679C145.032 173.558 164.031 192.824 189.47 199.901C181.049 171.134 195.56 158.534 198.891 156.103C182.971 152.011 172.036 142.245 164.988 133.191C157.925 123.933 152.691 113.487 149.55 102.381L149.513 102.238L149.595 102.108C157.013 90.3713 166.828 72.1476 163.571 70.0332C163.24 69.8228 162.865 69.6849 162.473 69.629C162.081 69.5731 161.681 69.6006 161.301 69.7096C154.691 71.2055 144.179 88.8826 144.075 89.0624L143.467 90.0837L143.386 88.9114C143.386 88.559 140.678 53.9886 132.013 50.1842C131.762 50.0107 131.461 49.9175 131.152 49.9175C130.844 49.9175 130.543 50.0107 130.292 50.1842C127.399 52.6006 130.833 68.825 133.66 79.7276C134.728 83.3738 135.388 85.9772 135.477 86.3296L134.736 86.5166C134.632 86.1714 133.942 83.8053 133.052 80.418C130.359 71.1408 124.891 54.2763 120.002 51.5794C119.756 51.4214 119.478 51.3155 119.187 51.2684C118.895 51.2213 118.597 51.2341 118.311 51.3061C118.081 51.3839 117.869 51.5072 117.691 51.6681C117.512 51.829 117.369 52.0241 117.272 52.241C114.794 56.8437 119.654 74.4345 122.384 83.3666C123.363 86.2433 123.964 88.3073 124.06 88.6453L123.318 88.8539C123.222 88.5518 122.577 86.5885 121.671 83.6974C118.385 73.9455 110.759 53.8663 104.045 55.5276C103.8 55.5939 103.573 55.7122 103.38 55.8739C103.188 56.0355 103.035 56.2366 102.932 56.4625C99.7126 62.6042 111.694 91.8528 111.834 92.1477L111.145 92.4138C96.7452 58.2533 95.6769 58.5697 91.1516 59.9073C91.0996 59.9073 90.9661 59.9577 90.8474 60.2094C89.1189 63.7765 98.6443 87.394 102.495 96.2254Z" fill="#1B1147"/>
<path d="M135.789 363.532L69.5634 364.971L70.3053 398.009L49.2292 419.354L136.983 417.484C136.983 417.484 136.353 364.079 135.789 363.532Z" fill="#1B1147"/>
<path d="M251.259 279.346L150.248 291.14L150.07 356.247L80.9662 360.346L84.3713 232.629L241.971 235.024L251.259 279.346Z" fill="#3D4BC6"/>
<path d="M183.594 362.512L117.369 363.95L118.111 396.989L97.0422 418.341L184.796 416.464C184.796 416.464 184.166 363.058 183.594 362.512Z" fill="#762AE2"/>
<path d="M204.574 215.851C206.562 216.096 260.509 209.853 273.803 208.3L276.771 207.962L273.588 203.201L256.526 177.764L252.512 171.773L238.914 151.464L228.35 153.053C228.35 153.053 226.584 157.311 223.995 163.603C223.409 165.042 222.771 166.595 222.111 168.228C219.44 174.765 216.28 182.611 213.372 189.997C212.296 192.744 211.25 195.434 210.278 197.98C206.465 208.005 203.78 215.75 204.574 215.851Z" fill="#FF5486"/>
<path d="M287.075 284.431L185.367 289.602L185.189 354.708L116.085 358.815L118.57 232.291L278.44 228.156L287.075 284.431Z" fill="#818DFF"/>
<path d="M228.09 118.878C229.606 118.5 231.187 118.438 232.728 118.698C234.27 118.957 235.737 119.532 237.031 120.384C238.326 121.236 239.419 122.345 240.237 123.638C241.055 124.931 241.58 126.377 241.777 127.882C241.974 129.387 241.838 130.915 241.379 132.365C240.92 133.815 240.147 135.154 239.113 136.292C238.078 137.43 236.806 138.341 235.38 138.966C233.954 139.59 232.407 139.914 230.843 139.914C228.159 139.914 225.567 138.965 223.553 137.246C221.54 135.526 220.242 133.153 219.905 130.572C219.567 127.991 220.212 125.379 221.719 123.226C223.226 121.073 225.492 119.527 228.09 118.878ZM220.976 131.701C221.54 133.822 222.815 135.702 224.601 137.044C226.387 138.386 228.583 139.115 230.843 139.115C231.706 139.114 232.566 139.008 233.402 138.799C234.847 138.434 236.192 137.767 237.341 136.843L231.317 127.084L220.983 126.753C220.547 128.375 220.544 130.078 220.976 131.701Z" fill="#1B1147"/>
<path d="M240.613 150.609L267.223 133.766L292.446 171.313L291.756 171.752L286.66 164.165L261.526 148.595L242.067 151.313L244.96 155.628L244.27 156.067L241.065 151.285C222.69 164.848 218.506 187.71 230.932 207.049C235.19 213.672 242.616 217.642 251.852 218.232C262.557 218.915 273.366 214.802 279.301 207.746L279.939 208.25C274.226 214.981 264.293 219.109 254.137 219.109C253.351 219.109 252.557 219.109 251.77 219.03C242.26 218.426 234.604 214.32 230.205 207.473C217.564 187.746 221.844 164.424 240.613 150.609ZM261.711 147.732L285.592 162.532L267.008 134.859L242.282 150.465L261.711 147.732Z" fill="#1B1147"/>
<path d="M298.091 282.742C297.807 270.116 295.137 257.648 290.213 245.956C282.794 228.761 266.474 207.567 231.443 204.244L231.517 203.453C242.838 204.51 252.208 207.423 259.975 211.45C261.956 210.731 283.833 202.31 282.579 166.704C271.077 160.484 258.254 156.911 245.101 156.261C244.129 156.211 243.142 156.168 242.133 156.139V155.341C243.135 155.341 244.122 155.413 245.101 155.463C262.616 156.47 278.366 161.936 291.912 171.644C319.479 191.414 333.433 225.819 340.303 251.184C344.801 267.798 347.611 284.799 348.693 301.943C348.931 303.497 354.576 340.059 350.919 344.417C350.802 344.573 350.651 344.701 350.476 344.793C350.302 344.885 350.108 344.939 349.91 344.95C344.813 345.187 343.144 345.259 339.064 319.822C339.739 330.005 339.806 341.879 336.772 345.209C336.522 345.513 336.205 345.76 335.844 345.932C335.484 346.103 335.089 346.195 334.687 346.201C328.463 346.201 325.392 333.047 323.886 321.49C323.886 331.48 323.144 342.735 320.176 345.942C319.939 346.23 319.642 346.467 319.305 346.638C318.968 346.809 318.598 346.91 318.218 346.935H318.092C317.248 346.911 316.448 346.564 315.866 345.971C312.58 342.893 311.007 332.465 310.265 322.756C309.798 332.824 308.544 343.353 305.362 344.892C304.508 345.302 303.589 345.129 302.617 344.381C294.761 338.297 299.649 306.942 300.777 300.138C297.172 303.626 284.122 315.759 277.179 315.759H277.075C276.519 315.773 275.967 315.672 275.455 315.462C274.943 315.253 274.484 314.939 274.107 314.543C269.753 309.962 294.634 286.021 298.091 282.742ZM274.679 314.047C274.978 314.36 275.344 314.607 275.751 314.771C276.159 314.934 276.597 315.011 277.038 314.996H277.134C284.708 314.996 300.873 298.88 301.051 298.714L301.994 297.772L301.756 299.067C301.682 299.448 294.82 337.398 303.077 343.792C303.308 344.037 303.611 344.208 303.945 344.282C304.278 344.357 304.628 344.331 304.946 344.209C308.744 342.375 309.612 323.986 309.642 311.494C309.531 307.28 309.553 304.302 309.553 303.892H310.377C310.377 304.295 310.466 307.028 310.466 310.911C310.747 321.613 311.89 341.232 316.4 345.431C316.621 345.665 316.891 345.85 317.192 345.974C317.493 346.098 317.817 346.158 318.144 346.151C318.412 346.129 318.674 346.054 318.911 345.931C319.149 345.807 319.357 345.637 319.524 345.431C323.493 341.116 323.233 320.879 322.795 310.545C322.565 307.143 322.491 304.791 322.484 304.417L323.307 304.381C323.307 304.734 323.485 307.021 323.626 310.372C324.412 321.742 326.979 345.395 334.665 345.395C334.952 345.392 335.235 345.326 335.492 345.201C335.749 345.077 335.973 344.897 336.149 344.676C341.342 338.923 336.698 304.23 336.646 303.878L337.469 303.77C343.404 344.439 344.628 344.374 349.873 344.144C349.925 344.144 350.088 344.144 350.281 343.9C353.152 340.512 349.539 312.544 347.9 302.008C346.822 284.907 344.019 267.95 339.531 251.379C332.699 226.129 318.826 191.911 291.504 172.27C288.92 170.415 286.23 168.703 283.447 167.142C284.434 200.483 265.227 210.192 260.947 211.939C276.941 220.569 285.962 233.982 290.999 245.604C295.998 257.462 298.691 270.114 298.945 282.921V283.087L298.826 283.202C287.505 293.881 271.77 310.904 274.679 314.047Z" fill="#1B1147"/>
<path d="M276.244 416.104H282.372V313.457H283.114V416.823H275.503V315.248H276.244V416.104Z" fill="#1B1147"/>
<path d="M183.846 287.027H287.891V294.571H283.114V299.059H282.372V294.571H276.244V307.854H275.502V294.571H247.505V416.83H239.893V294.571H197.801V416.83H190.189V294.571H183.846V287.027ZM240.635 416.097H246.763V294.557H240.635V416.097ZM190.931 416.097H197.059V294.557H190.931V416.097ZM184.588 293.838H190.189H197.801H239.893H247.505H275.502H283.114H287.15V287.732H184.588V293.838Z" fill="#1B1147"/>
<path d="M56.9445 136.089L67.5753 133.514L67.5382 133.356L67.8127 133.456L68.4878 133.291L68.6065 133.758L108.132 148.732L108.303 148.796L129.965 222.547H187.407V233.335H81.9079V233.011L56.9445 136.089ZM107.687 149.336L68.8216 134.614L91.4778 222.547H129.194L107.687 149.336Z" fill="#1B1147"/>
<path d="M183.787 42.9844H301.193V66.8248H283.24L281.459 83.1499L277.194 66.8248H183.787V42.9844Z" fill="#FE1D00"/>
<path d="M183.624 79.3818H268.277V103.222H198.127L198.639 120.648L193.268 103.222H183.624V79.3818Z" fill="#FE1D00"/>
<path d="M229.288 52.464C229.272 53.04 229.192 53.552 229.048 54C228.92 54.432 228.72 54.872 228.448 55.32C228.192 55.768 227.864 56.248 227.464 56.76C227.08 57.256 226.616 57.856 226.072 58.56C226.024 58.592 225.88 58.696 225.64 58.872C225.4 59.032 225.128 59.216 224.824 59.424C224.536 59.632 224.24 59.824 223.936 60C223.632 60.176 223.392 60.272 223.216 60.288C222.496 60.384 221.704 60.608 220.84 60.96C220.296 60.96 219.976 60.768 219.88 60.384C219.896 60.272 219.904 60.152 219.904 60.024C219.904 59.896 219.904 59.752 219.904 59.592C219.904 58.808 219.816 57.856 219.64 56.736C219.48 55.616 219.4 54.36 219.4 52.968C219.4 52.344 219.432 51.624 219.496 50.808C219.576 49.992 219.68 49.072 219.808 48.048C219.872 47.92 219.976 47.816 220.12 47.736C220.28 47.64 220.472 47.592 220.696 47.592C220.984 47.592 221.232 47.696 221.44 47.904C222.464 47.568 223.384 47.4 224.2 47.4C224.728 47.4 225.224 47.464 225.688 47.592C226.152 47.704 226.568 47.856 226.936 48.048C227.32 48.24 227.648 48.456 227.92 48.696C228.192 48.92 228.392 49.136 228.52 49.344C228.792 50.096 228.984 50.728 229.096 51.24C229.224 51.736 229.288 52.144 229.288 52.464ZM228.16 51.792C228.128 51.408 228.064 51.072 227.968 50.784C227.872 50.48 227.72 50.208 227.512 49.968C227.304 49.728 227.032 49.504 226.696 49.296C226.36 49.072 225.936 48.84 225.424 48.6C225.088 48.44 224.648 48.36 224.104 48.36C224.024 48.36 223.896 48.376 223.72 48.408C223.56 48.424 223.36 48.448 223.12 48.48C222.896 48.512 222.648 48.544 222.376 48.576C222.104 48.592 221.824 48.6 221.536 48.6C221.28 48.6 221.096 48.576 220.984 48.528C220.616 49.536 220.432 51.2 220.432 53.52C220.432 53.712 220.44 54.048 220.456 54.528C220.472 54.992 220.504 55.52 220.552 56.112C220.616 56.704 220.696 57.32 220.792 57.96C220.904 58.6 221.04 59.192 221.2 59.736C221.84 59.704 222.928 59.256 224.464 58.392C224.784 58.216 225.168 57.904 225.616 57.456C226.064 57.008 226.576 56.424 227.152 55.704C227.264 55.56 227.376 55.352 227.488 55.08C227.616 54.792 227.728 54.48 227.824 54.144C227.936 53.792 228.016 53.44 228.064 53.088C228.128 52.72 228.16 52.4 228.16 52.128V51.792ZM241.198 58.08C241.342 58.176 241.414 58.288 241.414 58.416C241.414 58.544 241.334 58.68 241.174 58.824C241.03 58.952 240.886 59.024 240.742 59.04C240.47 58.928 240.262 58.792 240.118 58.632C239.99 58.472 239.846 58.312 239.686 58.152C239.494 57.976 239.31 57.672 239.134 57.24C238.958 56.792 238.798 56.2 238.654 55.464C238.526 55.752 238.382 56.136 238.222 56.616C238.062 57.08 237.854 57.536 237.598 57.984C237.342 58.432 237.014 58.824 236.614 59.16C236.214 59.48 235.71 59.64 235.102 59.64C234.814 59.64 234.534 59.592 234.262 59.496C233.99 59.384 233.75 59.264 233.542 59.136C233.334 59.008 233.166 58.888 233.038 58.776C232.91 58.664 232.846 58.608 232.846 58.608C232.59 58.352 232.39 58.064 232.246 57.744C232.118 57.408 232.054 57.008 232.054 56.544C232.054 56.208 232.11 55.832 232.222 55.416C232.334 54.984 232.486 54.552 232.678 54.12C232.886 53.688 233.134 53.272 233.422 52.872C233.71 52.472 234.038 52.12 234.406 51.816C235.686 51.352 236.55 51.12 236.998 51.12C237.35 50.688 237.646 50.472 237.886 50.472C238.014 50.472 238.134 50.6 238.246 50.856C238.374 51.096 238.494 51.4 238.606 51.768C238.718 52.136 238.814 52.536 238.894 52.968C238.974 53.4 239.038 53.808 239.086 54.192C239.118 54.256 239.15 54.36 239.182 54.504C239.214 54.648 239.246 54.8 239.278 54.96C239.31 55.104 239.342 55.24 239.374 55.368C239.406 55.496 239.43 55.576 239.446 55.608C239.702 56.648 240.286 57.472 241.198 58.08ZM238.078 54.312C238.046 54.152 237.982 53.872 237.886 53.472C237.806 53.056 237.686 52.512 237.526 51.84C237.206 51.92 236.886 51.968 236.566 51.984C236.262 52 235.95 52.064 235.63 52.176C235.326 52.288 235.014 52.488 234.694 52.776C234.374 53.064 234.038 53.52 233.686 54.144C233.254 54.912 233.038 55.776 233.038 56.736C233.134 56.992 233.23 57.216 233.326 57.408C233.438 57.6 233.574 57.776 233.734 57.936C233.894 58.08 234.078 58.224 234.286 58.368C234.51 58.512 234.79 58.664 235.126 58.824C235.446 58.76 235.71 58.68 235.918 58.584C236.126 58.488 236.31 58.368 236.47 58.224C236.63 58.064 236.774 57.864 236.902 57.624C237.046 57.368 237.214 57.048 237.406 56.664C237.646 56.152 237.814 55.704 237.91 55.32C238.022 54.92 238.078 54.584 238.078 54.312ZM249.69 51.36C249.738 51.44 249.762 51.52 249.762 51.6C249.762 51.728 249.746 51.832 249.714 51.912C249.698 51.976 249.626 52.024 249.498 52.056C249.37 52.088 249.17 52.112 248.898 52.128C248.626 52.128 248.242 52.136 247.746 52.152C246.962 52.184 246.466 52.264 246.258 52.392C246.258 52.472 246.258 52.552 246.258 52.632C246.274 52.696 246.282 52.768 246.282 52.848C246.282 53.04 246.274 53.232 246.258 53.424C246.242 53.616 246.226 53.8 246.21 53.976C246.21 54.136 246.202 54.28 246.186 54.408C246.17 54.52 246.162 54.584 246.162 54.6C246.162 54.68 246.162 54.76 246.162 54.84C246.178 54.92 246.194 55 246.21 55.08C246.178 55.208 246.154 55.4 246.138 55.656C246.122 55.896 246.114 56.2 246.114 56.568C246.114 57.128 246.154 57.592 246.234 57.96C246.314 58.328 246.522 58.6 246.858 58.776L247.938 59.208C248.178 59.288 248.298 59.424 248.298 59.616C248.298 59.936 248.138 60.096 247.818 60.096C247.738 60.096 247.594 60.072 247.386 60.024C247.194 59.992 246.986 59.944 246.762 59.88C246.538 59.8 246.322 59.712 246.114 59.616C245.922 59.504 245.794 59.376 245.73 59.232C245.522 58.816 245.362 58.408 245.25 58.008C245.138 57.608 245.082 57.2 245.082 56.784C245.082 56.288 245.09 55.92 245.106 55.68C245.122 55.44 245.138 55.248 245.154 55.104C245.186 54.96 245.21 54.816 245.226 54.672C245.242 54.528 245.25 54.296 245.25 53.976C245.25 53.624 245.258 53.32 245.274 53.064C245.306 52.792 245.33 52.568 245.346 52.392C245.218 52.424 245.034 52.456 244.794 52.488C244.554 52.52 244.298 52.552 244.026 52.584C243.77 52.616 243.522 52.656 243.282 52.704C243.042 52.752 242.866 52.8 242.754 52.848C242.354 52.848 242.154 52.696 242.154 52.392C242.154 52.248 242.234 52.136 242.394 52.056C242.554 51.96 242.722 51.888 242.898 51.84C243.074 51.792 243.234 51.76 243.378 51.744C243.522 51.728 243.578 51.72 243.546 51.72H243.666C244.13 51.72 244.714 51.6 245.418 51.36C245.434 51.104 245.442 50.856 245.442 50.616C245.442 50.36 245.458 50.072 245.49 49.752C245.522 49.432 245.578 49.056 245.658 48.624C245.754 48.192 245.898 47.664 246.09 47.04C246.154 46.88 246.282 46.8 246.474 46.8C246.714 46.8 246.874 46.92 246.954 47.16C246.954 47.192 246.93 47.312 246.882 47.52C246.834 47.712 246.778 47.928 246.714 48.168C246.666 48.408 246.618 48.64 246.57 48.864C246.522 49.088 246.498 49.232 246.498 49.296C246.482 49.664 246.466 50.024 246.45 50.376C246.45 50.728 246.45 51.064 246.45 51.384C246.498 51.384 246.666 51.368 246.954 51.336C247.258 51.288 247.57 51.264 247.89 51.264C247.954 51.264 248.002 51.272 248.034 51.288C248.066 51.288 248.098 51.288 248.13 51.288C248.29 51.272 248.434 51.264 248.562 51.264C248.69 51.248 248.81 51.24 248.922 51.24C249.274 51.24 249.53 51.28 249.69 51.36ZM260.314 59.04C260.074 59.264 259.802 59.488 259.498 59.712C259.21 59.936 258.898 60.136 258.562 60.312C258.242 60.488 257.914 60.624 257.578 60.72C257.242 60.832 256.914 60.888 256.594 60.888C256.29 60.888 255.938 60.864 255.538 60.816C255.154 60.768 254.714 60.68 254.218 60.552C253.914 60.344 253.602 60.088 253.282 59.784C252.962 59.48 252.674 59.144 252.418 58.776C252.162 58.408 251.946 58.016 251.77 57.6C251.61 57.168 251.53 56.728 251.53 56.28C251.53 56.024 251.602 55.4 251.746 54.408C251.89 54.152 252.034 53.896 252.178 53.64C252.338 53.384 252.506 53.136 252.682 52.896C252.874 52.656 253.09 52.424 253.33 52.2C253.586 51.976 253.882 51.768 254.218 51.576C254.762 51.448 255.226 51.352 255.61 51.288C256.01 51.224 256.33 51.192 256.57 51.192C257.018 51.192 257.386 51.264 257.674 51.408C257.978 51.536 258.322 51.792 258.706 52.176L259.45 52.944V53.136C259.45 53.696 259.386 54.136 259.258 54.456C259.146 54.776 258.922 55.04 258.586 55.248C258.25 55.456 257.786 55.64 257.194 55.8C256.618 55.96 255.874 56.144 254.962 56.352H254.866C254.674 56.352 254.41 56.384 254.074 56.448C253.738 56.496 253.322 56.568 252.826 56.664C253.146 57.736 253.586 58.552 254.146 59.112C254.706 59.672 255.362 59.952 256.114 59.952C257.154 59.952 258.338 59.432 259.666 58.392C259.73 58.328 259.81 58.296 259.906 58.296C260.21 58.296 260.362 58.464 260.362 58.8C260.362 58.864 260.346 58.944 260.314 59.04ZM258.394 53.4C257.834 52.488 257.194 52.032 256.474 52.032C255.818 52.032 255.186 52.176 254.578 52.464C253.97 52.752 253.514 53.136 253.21 53.616L252.97 54.384C252.906 54.592 252.858 54.808 252.826 55.032C252.81 55.24 252.794 55.456 252.778 55.68C253.226 55.584 253.65 55.52 254.05 55.488C254.466 55.456 254.858 55.424 255.226 55.392C255.594 55.344 255.946 55.28 256.282 55.2C256.618 55.12 256.946 54.992 257.266 54.816C258.002 54.416 258.378 53.944 258.394 53.4Z" fill="#ECECEC"/>
<path d="M208.824 85.984C208.664 86.016 208.52 86.032 208.392 86.032C208.296 86.032 208.144 86.024 207.936 86.008C207.728 85.976 207.512 85.944 207.288 85.912C207.064 85.88 206.864 85.856 206.688 85.84C206.512 85.808 206.416 85.792 206.4 85.792C205.84 85.792 205.08 85.912 204.12 86.152L204.504 89.296C204.584 90.048 204.632 90.728 204.648 91.336C204.68 91.928 204.704 92.448 204.72 92.896V93.52C204.736 93.824 204.744 94.104 204.744 94.36C204.76 94.616 204.768 94.856 204.768 95.08C204.768 95.528 204.744 95.888 204.696 96.16C204.664 96.432 204.608 96.64 204.528 96.784C204.464 96.928 204.376 97.024 204.264 97.072C204.168 97.12 204.048 97.144 203.904 97.144C203.76 97.144 203.656 97.08 203.592 96.952C203.544 96.824 203.504 96.672 203.472 96.496C203.456 96.304 203.448 96.12 203.448 95.944C203.464 95.752 203.472 95.6 203.472 95.488C203.472 94.896 203.52 94.344 203.616 93.832C203.616 93.816 203.6 93.568 203.568 93.088C203.552 92.608 203.512 91.888 203.448 90.928L203.4 89.056C203.336 88.176 203.144 87.256 202.824 86.296C202.472 86.328 202.104 86.36 201.72 86.392C201.352 86.424 201 86.464 200.664 86.512C200.328 86.544 200.032 86.584 199.776 86.632C199.52 86.68 199.328 86.728 199.2 86.776C198.88 86.744 198.72 86.568 198.72 86.248C198.72 86.12 198.752 86 198.816 85.888C198.992 85.856 199.416 85.784 200.088 85.672C200.76 85.544 201.688 85.368 202.872 85.144L204.192 85C204.592 84.952 204.992 84.928 205.392 84.928C206.048 84.928 206.656 84.952 207.216 85C207.792 85.032 208.32 85.064 208.8 85.096C208.912 85.192 208.968 85.312 208.968 85.456C208.968 85.616 208.92 85.792 208.824 85.984ZM214.015 85.888C214.031 85.936 214.039 86.008 214.039 86.104C214.039 86.36 213.967 86.56 213.823 86.704C213.695 86.848 213.415 86.936 212.983 86.968C212.807 86.84 212.663 86.704 212.551 86.56C212.455 86.416 212.407 86.272 212.407 86.128C212.407 86 212.527 85.768 212.767 85.432C213.039 85.432 213.247 85.432 213.391 85.432C213.551 85.432 213.663 85.448 213.727 85.48C213.807 85.512 213.863 85.56 213.895 85.624C213.927 85.688 213.967 85.776 214.015 85.888ZM213.271 89.632V89.728C213.271 89.904 213.247 90.16 213.199 90.496C213.151 90.816 213.071 91.216 212.959 91.696C212.991 91.856 213.007 91.984 213.007 92.08C213.007 92.144 212.991 92.248 212.959 92.392C212.943 92.536 212.919 92.696 212.887 92.872C212.855 93.032 212.823 93.2 212.791 93.376C212.775 93.536 212.767 93.672 212.767 93.784C212.767 93.864 212.767 93.936 212.767 94C212.783 94.064 212.791 94.136 212.791 94.216C212.791 94.488 212.767 94.776 212.719 95.08C212.687 95.368 212.671 95.552 212.671 95.632C212.671 95.712 212.671 95.8 212.671 95.896C212.687 95.992 212.703 96.096 212.719 96.208C212.655 96.464 212.487 96.592 212.215 96.592C211.911 96.592 211.719 96.44 211.639 96.136C211.559 95.816 211.519 95.456 211.519 95.056C211.519 94.688 211.559 94.32 211.639 93.952C211.735 93.584 211.799 93.16 211.831 92.68C211.847 92.296 211.863 91.984 211.879 91.744C211.911 91.504 211.943 91.288 211.975 91.096C212.007 90.888 212.047 90.68 212.095 90.472C212.143 90.264 212.199 90 212.263 89.68C212.391 89.552 212.559 89.488 212.767 89.488C212.959 89.488 213.127 89.536 213.271 89.632ZM231.482 95.968C231.482 96.16 231.338 96.256 231.05 96.256C230.89 96.256 230.77 96.168 230.69 95.992C230.61 95.8 230.546 95.56 230.498 95.272C230.466 94.968 230.442 94.616 230.426 94.216C230.41 93.816 230.394 93.4 230.378 92.968C230.314 92.728 230.258 92.472 230.21 92.2C230.162 91.928 230.106 91.632 230.042 91.312C229.77 90.928 229.442 90.624 229.058 90.4C228.69 90.176 228.274 90.064 227.81 90.064C227.65 90.064 227.466 90.088 227.258 90.136C227.05 90.184 226.834 90.248 226.61 90.328C226.402 90.408 226.194 90.496 225.986 90.592C225.794 90.672 225.642 90.76 225.53 90.856C225.114 91.208 224.786 91.936 224.546 93.04C224.562 93.12 224.57 93.2 224.57 93.28C224.57 93.344 224.57 93.424 224.57 93.52C224.57 93.728 224.554 93.976 224.522 94.264C224.506 94.536 224.482 94.848 224.45 95.2V95.32C224.45 95.352 224.45 95.472 224.45 95.68C224.45 95.888 224.426 96.12 224.378 96.376C224.346 96.616 224.282 96.832 224.186 97.024C224.106 97.232 223.978 97.336 223.802 97.336C223.498 97.336 223.346 97.216 223.346 96.976C223.346 96.944 223.362 96.816 223.394 96.592C223.426 96.352 223.458 96.088 223.49 95.8C223.522 95.496 223.554 95.2 223.586 94.912C223.618 94.608 223.634 94.368 223.634 94.192C223.634 93.776 223.602 93.432 223.538 93.16V92.776C223.538 92.264 223.482 91.768 223.37 91.288C223.258 90.808 223.09 90.312 222.866 89.8C222.418 89.432 221.794 89.208 220.994 89.128C220.77 89.176 220.586 89.232 220.442 89.296C220.298 89.36 220.162 89.472 220.034 89.632C219.906 89.776 219.762 89.984 219.602 90.256C219.442 90.528 219.234 90.904 218.978 91.384C218.93 91.704 218.89 92 218.858 92.272C218.842 92.544 218.826 92.792 218.81 93.016L218.738 94.24C218.834 94.8 218.882 95.264 218.882 95.632C218.882 95.872 218.866 96.088 218.834 96.28C218.802 96.472 218.666 96.568 218.426 96.568C218.298 96.568 218.194 96.544 218.114 96.496C218.034 96.448 217.97 96.328 217.922 96.136C217.874 95.944 217.834 95.664 217.802 95.296C217.786 94.912 217.778 94.4 217.778 93.76C217.778 93.472 217.786 93.192 217.802 92.92C217.834 92.648 217.866 92.368 217.898 92.08C217.93 91.776 217.97 91.456 218.018 91.12C218.082 90.768 218.146 90.384 218.21 89.968C218.162 89.344 218.034 88.816 217.826 88.384C217.858 88.064 218.034 87.904 218.354 87.904C218.514 87.904 218.65 87.992 218.762 88.168C218.89 88.328 219.098 88.704 219.386 89.296C219.69 89.008 219.93 88.784 220.106 88.624C220.282 88.464 220.426 88.344 220.538 88.264C220.65 88.184 220.746 88.136 220.826 88.12C220.922 88.104 221.034 88.08 221.162 88.048C221.402 88.048 221.586 88.056 221.714 88.072C221.858 88.072 221.994 88.096 222.122 88.144C222.266 88.192 222.418 88.264 222.578 88.36C222.738 88.456 222.954 88.6 223.226 88.792C223.418 88.888 223.754 89.624 224.234 91C224.346 90.856 224.482 90.68 224.642 90.472C224.802 90.248 225.01 90.04 225.266 89.848C225.538 89.64 225.866 89.464 226.25 89.32C226.65 89.176 227.13 89.104 227.69 89.104C228.186 89.104 228.61 89.152 228.962 89.248C229.33 89.344 229.642 89.488 229.898 89.68C230.17 89.856 230.394 90.088 230.57 90.376C230.762 90.648 230.938 90.96 231.098 91.312V91.504C231.098 91.664 231.114 91.92 231.146 92.272C231.178 92.624 231.21 92.984 231.242 93.352C231.29 93.704 231.33 94.016 231.362 94.288C231.394 94.544 231.41 94.656 231.41 94.624C231.41 94.624 231.41 94.672 231.41 94.768C231.426 94.864 231.434 94.976 231.434 95.104C231.45 95.232 231.458 95.368 231.458 95.512C231.474 95.64 231.482 95.744 231.482 95.824V95.968ZM243.471 96.04C243.231 96.264 242.959 96.488 242.655 96.712C242.367 96.936 242.055 97.136 241.719 97.312C241.399 97.488 241.071 97.624 240.735 97.72C240.399 97.832 240.071 97.888 239.751 97.888C239.447 97.888 239.095 97.864 238.695 97.816C238.311 97.768 237.871 97.68 237.375 97.552C237.071 97.344 236.759 97.088 236.439 96.784C236.119 96.48 235.831 96.144 235.575 95.776C235.319 95.408 235.103 95.016 234.927 94.6C234.767 94.168 234.687 93.728 234.687 93.28C234.687 93.024 234.759 92.4 234.903 91.408C235.047 91.152 235.191 90.896 235.335 90.64C235.495 90.384 235.663 90.136 235.839 89.896C236.031 89.656 236.247 89.424 236.487 89.2C236.743 88.976 237.039 88.768 237.375 88.576C237.919 88.448 238.383 88.352 238.767 88.288C239.167 88.224 239.487 88.192 239.727 88.192C240.175 88.192 240.543 88.264 240.831 88.408C241.135 88.536 241.479 88.792 241.863 89.176L242.607 89.944V90.136C242.607 90.696 242.543 91.136 242.415 91.456C242.303 91.776 242.079 92.04 241.743 92.248C241.407 92.456 240.943 92.64 240.351 92.8C239.775 92.96 239.031 93.144 238.119 93.352H238.023C237.831 93.352 237.567 93.384 237.231 93.448C236.895 93.496 236.479 93.568 235.983 93.664C236.303 94.736 236.743 95.552 237.303 96.112C237.863 96.672 238.519 96.952 239.271 96.952C240.311 96.952 241.495 96.432 242.823 95.392C242.887 95.328 242.967 95.296 243.063 95.296C243.367 95.296 243.519 95.464 243.519 95.8C243.519 95.864 243.503 95.944 243.471 96.04ZM241.551 90.4C240.991 89.488 240.351 89.032 239.631 89.032C238.975 89.032 238.343 89.176 237.735 89.464C237.127 89.752 236.671 90.136 236.367 90.616L236.127 91.384C236.063 91.592 236.015 91.808 235.983 92.032C235.967 92.24 235.951 92.456 235.935 92.68C236.383 92.584 236.807 92.52 237.207 92.488C237.623 92.456 238.015 92.424 238.383 92.392C238.751 92.344 239.103 92.28 239.439 92.2C239.775 92.12 240.103 91.992 240.423 91.816C241.159 91.416 241.535 90.944 241.551 90.4ZM255.508 85.888C255.412 86.288 255.3 86.648 255.172 86.968C255.06 87.288 254.916 87.592 254.74 87.88C254.564 88.168 254.34 88.44 254.068 88.696C253.812 88.936 253.492 89.184 253.108 89.44C252.644 89.728 252.284 89.976 252.028 90.184C251.788 90.376 251.596 90.544 251.452 90.688C251.324 90.832 251.236 90.968 251.188 91.096C251.156 91.208 251.132 91.336 251.116 91.48C251.084 91.624 251.06 91.768 251.044 91.912C251.044 92.056 251.02 92.192 250.972 92.32C250.924 92.432 250.852 92.528 250.756 92.608C250.676 92.672 250.556 92.704 250.396 92.704C250.172 92.704 250.036 92.624 249.988 92.464C249.956 92.304 249.94 92.136 249.94 91.96C249.94 91.752 249.972 91.52 250.036 91.264C250.116 90.992 250.236 90.728 250.396 90.472C250.572 90.2 250.788 89.936 251.044 89.68C251.316 89.424 251.636 89.208 252.004 89.032C252.372 88.856 252.66 88.688 252.868 88.528C253.076 88.368 253.252 88.184 253.396 87.976C253.556 87.752 253.708 87.488 253.852 87.184C253.996 86.88 254.18 86.496 254.404 86.032C254.404 85.616 254.308 85.248 254.116 84.928C253.94 84.592 253.708 84.312 253.42 84.088C253.132 83.848 252.82 83.672 252.484 83.56C252.148 83.432 251.836 83.368 251.548 83.368C251.084 83.368 250.692 83.424 250.372 83.536C250.052 83.632 249.764 83.784 249.508 83.992C249.268 84.2 249.044 84.456 248.836 84.76C248.644 85.064 248.436 85.416 248.212 85.816C248.148 85.928 248.036 85.984 247.876 85.984C247.508 85.984 247.3 85.8 247.252 85.432C247.524 84.728 247.86 84.176 248.26 83.776C248.676 83.376 249.092 83.072 249.508 82.864C249.924 82.656 250.324 82.528 250.708 82.48C251.092 82.432 251.396 82.408 251.62 82.408C252.356 82.408 252.956 82.512 253.42 82.72C253.884 82.912 254.252 83.176 254.524 83.512C254.812 83.832 255.02 84.2 255.148 84.616C255.292 85.032 255.412 85.456 255.508 85.888ZM251.212 96.808C251.212 96.968 251.124 97.096 250.948 97.192C250.788 97.288 250.644 97.336 250.516 97.336C250.452 97.336 250.412 97.328 250.396 97.312L249.844 97.216C249.604 97.184 249.436 97.104 249.34 96.976C249.244 96.832 249.196 96.648 249.196 96.424C249.196 96.152 249.284 95.904 249.46 95.68C249.636 95.456 249.852 95.344 250.108 95.344C250.204 95.344 250.308 95.352 250.42 95.368C250.548 95.368 250.668 95.416 250.78 95.512C250.908 95.592 251.012 95.736 251.092 95.944C251.172 96.136 251.212 96.424 251.212 96.808Z" fill="white"/>
</svg>
