<svg width="201" height="163" viewBox="0 0 201 163" fill="none" xmlns="http://www.w3.org/2000/svg">
<path d="M161.426 19.6621H156.152H133.004V58.2325L133.883 58.4664V20.5391H156.152V76.8132H157.031V20.5391H160.547V76.8132H161.426V20.5391H188.53V159.105H161.426V81.4905H160.547V159.105H157.031V81.4905H156.152V159.105H133.883V141.811V118.877V81.4905H133.004V119.462V142.363V159.982H156.152H161.426H189.409V19.6621H161.426Z" fill="black"/>
<path d="M176.079 41.7324C171.643 41.7324 168.168 49.6254 168.168 59.7109C168.168 69.7964 171.643 77.6894 176.079 77.6894C180.516 77.6894 183.991 69.7964 183.991 59.7109C183.991 49.6254 180.516 41.7324 176.079 41.7324ZM176.079 76.8124C172.27 76.8124 169.047 68.9808 169.047 59.7109C169.047 50.441 172.27 42.6094 176.079 42.6094C179.889 42.6094 183.112 50.441 183.112 59.7109C183.112 68.9808 179.889 76.8124 176.079 76.8124Z" fill="black"/>
<path d="M176.079 49.334C173.459 49.334 171.391 53.8915 171.391 59.7118C171.391 65.5322 173.442 70.0896 176.079 70.0896C178.716 70.0896 180.767 65.5322 180.767 59.7118C180.767 53.8915 178.698 49.334 176.079 49.334ZM176.079 69.2126C174.248 69.2126 172.27 65.3948 172.27 59.7118C172.27 54.0289 174.233 50.211 176.079 50.211C177.925 50.211 179.888 54.0289 179.888 59.7118C179.888 65.3948 177.91 69.2126 176.079 69.2126Z" fill="black"/>
<path d="M176.079 104.879C171.643 104.879 168.168 112.772 168.168 122.857C168.168 132.943 171.643 140.836 176.079 140.836C180.516 140.836 183.991 132.943 183.991 122.857C183.991 112.772 180.516 104.879 176.079 104.879ZM176.079 139.959C172.27 139.959 169.047 132.127 169.047 122.857C169.047 113.588 172.27 105.756 176.079 105.756C179.889 105.756 183.112 113.588 183.112 122.857C183.112 132.127 179.889 139.959 176.079 139.959Z" fill="black"/>
<path d="M176.079 112.479C173.459 112.479 171.391 117.036 171.391 122.856C171.391 128.677 173.442 133.234 176.079 133.234C178.716 133.234 180.767 128.677 180.767 122.856C180.767 117.036 178.698 112.479 176.079 112.479ZM176.079 132.357C174.248 132.357 172.27 128.539 172.27 122.856C172.27 117.173 174.233 113.356 176.079 113.356C177.925 113.356 179.888 117.173 179.888 122.856C179.888 128.539 177.91 132.357 176.079 132.357Z" fill="black"/>
<path d="M164.505 25.8008V76.8129H165.384V26.6778H185.895V153.55H165.384V81.4902H164.505V154.427H186.774V25.8008H164.505Z" fill="black"/>
<path d="M146.831 65.5559L145.157 70.6747L144.513 72.6304L140.973 70.6747L136.188 68.0261L137.773 70.6747L138.776 72.341L135.658 70.6747L133.885 69.7275L133.006 69.2569L131.582 68.4939L131.189 68.2834L131.603 67.5116L132.039 67.7426L133.006 68.2629L133.885 68.7307L136.39 70.0695L133.885 65.9038L133.753 65.6787L133.885 65.7518L142.784 70.6747L144.009 71.3529L144.229 70.6747L145.723 66.1172L135.13 62.6794L134.486 62.4689L134.753 61.6328L135.602 61.9047L146.831 65.5559Z" fill="black"/>
<path d="M104.68 52.0209C103.189 48.8052 99.4058 47.364 96.2559 48.8052C93.0796 50.3181 91.7307 54.111 93.2408 57.2829C94.2857 59.5669 96.5642 61.0382 99.0806 61.054C99.9722 61.0546 100.853 60.861 101.662 60.4869C103.89 59.4444 105.305 57.2033 105.287 54.7484C105.284 53.8062 105.077 52.8758 104.68 52.0209ZM101.296 59.7005C98.5366 60.8393 95.3682 59.6037 94.1146 56.8999C92.8611 54.1961 93.9687 50.9871 96.6251 49.6267C97.3193 49.3056 98.0752 49.139 98.8403 49.1385C101.014 49.1544 102.98 50.4273 103.88 52.4009C105.179 55.1291 104.024 58.3916 101.296 59.7005Z" fill="black"/>
<path d="M72.0599 101.408C70.7956 103.874 69.1723 106.14 67.2427 108.132C66.6247 108.78 65.7662 109.146 64.8693 109.144H64.714C64.673 109.144 64.629 109.144 64.588 109.144C64.2902 109.12 63.9957 109.066 63.709 108.983V108.062C63.9927 108.164 64.2879 108.231 64.588 108.261C64.6424 108.268 64.6972 108.273 64.7521 108.275C65.4559 108.313 66.1403 108.038 66.6215 107.524C68.3163 105.771 69.7688 103.8 70.9406 101.663C71.1545 101.277 71.2688 101.046 71.2717 101.037L71.8812 101.329L72.0599 101.408Z" fill="#D7FFB7"/>
<path d="M69.8556 112.158L69.0879 111.732C70.3654 109.446 71.5316 108.405 72.6539 108.548C74.0633 108.726 74.6229 110.706 74.6815 110.931L73.8318 111.153L74.2567 111.042L73.8318 111.153C73.7204 110.732 73.2458 109.504 72.5425 109.416C72.1382 109.367 71.2562 109.656 69.8556 112.158Z" fill="#D7FFB7"/>
<path d="M107.199 110.28C104.21 109.052 103.586 106.932 102.927 104.693C102.426 103 101.91 101.249 100.316 99.6591C99.6746 99.0189 99.282 99.1533 99.1443 99.1972C97.3715 99.8082 95.9621 106.28 95.4874 110.218L94.6084 110.113C94.7403 109.017 95.9826 99.3609 98.8513 98.3699C99.3259 98.2062 100.07 98.1886 100.923 99.0393C102.681 100.793 103.249 102.731 103.753 104.445C104.38 106.567 104.925 108.4 107.519 109.467L107.199 110.28Z" fill="#D7FFB7"/>
<path d="M106.42 97.9057C104.594 97.9057 102.247 97.6134 101.146 96.2745C100.416 95.3975 100.302 94.2282 100.809 92.7665C102.886 86.8468 106.127 84.7361 106.262 84.6484L106.736 85.388C106.704 85.4085 103.607 87.4344 101.641 93.0559C101.236 94.2077 101.295 95.076 101.823 95.7074C103.159 97.3182 107.296 97.0872 108.779 96.8767L108.908 97.7537C108.083 97.8617 107.252 97.9125 106.42 97.9057Z" fill="#D7FFB7"/>
<path d="M89.9564 85.0567C89.9945 86.4833 89.1799 87.7286 87.5273 88.7576C81.0077 92.824 76.3049 93.6074 75.4873 93.7273L75.3672 93.7419L75.2734 92.8649L75.4668 92.8357C76.4396 92.6866 80.9784 91.8125 87.0643 88.021C88.4298 87.1673 89.1154 86.1793 89.0773 85.0976C89.0539 84.168 88.5734 83.2442 87.8818 82.3672C87.6381 82.0611 87.3779 81.7683 87.1024 81.4902H88.2745C88.5179 81.7684 88.744 82.0613 88.9513 82.3672C89.5369 83.1496 89.8856 84.0829 89.9564 85.0567Z" fill="#D7FFB7"/>
<path d="M77.5146 115.616V114.739C77.5703 114.739 83.0555 114.692 86.4955 114.119C87.2017 114.002 87.6676 113.689 87.902 113.166C88.6609 111.508 87.316 107.72 84.1426 102.502C83.1435 100.862 82.9706 99.4349 83.6357 98.2539C85.3938 95.1464 92.4262 95.1113 92.7192 95.1113V95.9883C92.6518 95.9883 85.9007 96.0234 84.4005 98.6836C83.9024 99.5606 84.0694 100.698 84.8898 102.045C88.3269 107.682 89.6103 111.546 88.699 113.531C88.3357 114.329 87.6412 114.817 86.6479 114.993C83.1259 115.569 77.7432 115.616 77.5146 115.616Z" fill="#D7FFB7"/>
<path d="M84.7119 129.434C84.3979 129.432 84.0863 129.38 83.7889 129.279C80.2464 128.11 78.4766 126.826 78.4033 126.774L78.922 126.066C78.9395 126.066 80.68 127.318 84.0644 128.449C84.5943 128.632 85.1772 128.581 85.6672 128.309C87.7886 127.201 89.0603 122.938 89.072 122.895L89.9159 123.14C89.8602 123.33 88.5299 127.803 86.0774 129.083C85.658 129.31 85.189 129.431 84.7119 129.434Z" fill="#D7FFB7"/>
<path d="M80.7617 141.003L80.6445 140.126L80.7031 140.562L80.6445 140.126C80.8086 140.106 84.6588 139.542 84.6588 136.177C84.6588 134.888 85.0368 133.964 85.7811 133.429C86.9912 132.552 88.6819 133.105 88.7522 133.137L88.4768 133.967C88.4768 133.967 87.1348 133.54 86.2938 134.148C85.7928 134.511 85.5379 135.195 85.5379 136.195C85.5379 140.319 80.8086 140.995 80.7617 141.003Z" fill="#D7FFB7"/>
<path d="M133.885 57.557L133.006 57.3231L120.778 54.0548L106.28 39.9965L105.832 39.5639L105.539 40.856L106.004 40.9583L106.297 41.236L120.251 54.7681L120.333 54.847L133.006 58.2322L133.885 58.4661L136.282 59.1063L133.885 63.0353L133.006 64.4765L129.223 70.6739L128.61 71.6796L126.943 70.6739L114.979 63.465L107.909 55.3615C108.158 53.1632 108.387 50.9385 108.565 48.6963L107.686 48.6262C107.358 52.7188 106.866 56.7647 106.391 60.682C105.993 63.9386 105.585 67.2975 105.272 70.6739C105.272 70.6739 105.272 70.6944 105.272 70.7032L105.169 70.6739C101.738 69.7472 86.601 65.64 78.2647 63.3101C77.9893 63.2282 77.6963 63.1522 77.4003 63.0762C76.7923 62.9353 76.195 62.7516 75.613 62.5266L91.2072 43.6887L90.2988 43.6682C90.004 43.7255 89.7432 43.8954 89.5722 44.1418L86.683 45.8256L90.9083 40.4467L89.4872 38.1899L89.0154 37.4415L87.1519 34.486L86.8735 34.0446L85.6135 32.0421L85.133 31.2821L83.9609 29.4141L65.1816 54.4933L73.4212 62.7137L85.2062 47.7112L88.1891 45.9572L74.2475 62.8014L74.6958 63.0733C75.4801 63.4725 76.3135 63.7673 77.1747 63.9503C77.4677 64.0263 77.7432 64.0994 78.0186 64.1783C80.1693 64.7805 82.7742 65.4996 85.5139 66.2539L85.2883 70.6739L85.1711 73.0126H86.0501L86.1703 70.6739L86.3871 66.4643C91.9983 68.0079 98.0256 69.6479 101.814 70.6739L102.828 70.9487L102.91 73.0126H103.789L103.719 71.1914L105.55 71.6854L106.054 71.8199L106.101 71.2995C106.119 71.092 106.139 70.8815 106.16 70.6739C106.467 67.3384 106.872 64.0117 107.264 60.7872C107.434 59.3899 107.607 57.9721 107.774 56.5455L114.405 64.1461L125.247 70.6769L128.903 72.884L130.251 70.6739L131.582 68.4931L132.039 67.7506L133.006 66.1662L133.885 64.725L135.13 62.6786L135.599 61.9069L137.65 58.5626L133.885 57.557ZM73.3362 61.3894L66.339 54.4085L83.8935 30.9605L89.8359 40.3912L84.6114 47.0388L84.5821 47.0564L73.3362 61.3894Z" fill="black"/>
<path d="M103.822 73.826L102.946 73.8786L102.949 73.9634L98.9905 74.1096L98.9582 74.1125H98.9465L85.9689 74.5948L86.0128 73.7441H85.1338L85.0928 74.5393L85.043 75.5098L85.3506 75.4981L93.7191 75.1853L94.2055 75.1678L94.5396 75.1561H94.5484L98.7443 74.9982L98.8059 74.9953H98.8293L98.8879 74.9924L103.86 74.8082L103.857 74.703L103.822 73.826Z" fill="black"/>
<path d="M91.7446 111.335L112.185 110.548L106.504 82.3672L106.325 81.4902H105.428L105.604 82.3672L106.091 84.7644L106.284 85.7291L108.537 96.8962L108.71 97.7556L111.122 109.706L107.374 109.849L106.389 109.887L91.8442 110.446L94.4315 87.6146L97.3002 87.3544L97.2181 86.4774L93.6404 86.8048L92.6998 95.1013L92.6002 95.9783L89.5323 123.028L89.339 124.726L88.3984 133.029L88.2988 133.906L86.4616 150.104L85.5825 150.229H85.5591L81.8378 150.446L80.7712 140.983L80.6716 140.106L79.227 127.281L79.101 126.179L77.9202 115.611L77.8235 114.734L75.5761 94.9376C75.5292 94.5254 75.4999 94.1161 75.4823 93.7068C75.4647 93.4145 75.4589 93.1222 75.4618 92.8298C75.4801 89.0983 76.6102 85.4564 78.7084 82.3672C78.9076 82.0749 79.1186 81.7826 79.3384 81.4902H78.2484L78.0491 81.7826C77.9934 81.8644 77.9378 81.9433 77.885 82.0252L77.7678 82.2006C77.7297 82.2591 77.6916 82.3175 77.6565 82.376C75.2561 86.1412 74.2123 90.6097 74.697 95.0457L75.1864 99.3839L75.1395 99.2495L64.588 102.936L63.709 103.243V104.169L64.588 103.862L70.9406 101.661L71.8812 101.334L75.2831 100.132L76.5342 111.241L70.2051 111.577L69.1532 111.633L64.591 111.875L63.7119 111.922V112.799L64.591 112.752L76.6368 112.115L81.0086 150.89L80.6481 150.94L80.8152 161.399L86.4733 161.309L86.7253 158.994L89.3624 161.262L104.116 161.022L87.2966 150.481L91.7446 111.335ZM101.147 160.195L89.6876 160.379L86.0308 157.242L85.6821 160.458L81.6825 160.522L81.5389 151.714L85.6587 151.13H85.6763L86.6051 151.077L101.147 160.195Z" fill="black"/>
<path d="M152.785 73.7441V76.0828H76.8945V73.7441H102.941L102.946 73.8786L103.823 73.826L103.82 73.7441H152.785Z" fill="black"/>
<path d="M151.758 71.8432C151.758 72.489 151.234 73.0125 150.586 73.0125H118.648C118 73.0125 117.476 72.489 117.476 71.8432C117.476 71.1974 118 70.6738 118.648 70.6738H126.943L128.61 71.6795L129.223 70.6738H142.78L144.005 71.352L144.228 70.6738H150.586C151.234 70.6738 151.758 71.1974 151.758 71.8432Z" fill="black"/>
<path d="M111.616 71.8432C111.616 72.489 111.091 73.0125 110.444 73.0125H78.5051C77.8578 73.0125 77.333 72.489 77.333 71.8432C77.333 71.1974 77.8578 70.6738 78.5051 70.6738H110.444C111.091 70.6738 111.616 71.1974 111.616 71.8432Z" fill="black"/>
<path d="M52.3119 162.934C0.86731 162.934 0.336955 162.668 0.0761719 162.539L0.465881 161.753C0.446316 161.743 0.425674 161.735 0.404348 161.729C3.10887 162.314 132.217 161.975 200.105 161.709V162.586C199.61 162.586 149.974 162.782 100.774 162.878C80.9804 162.916 65.0756 162.934 52.3119 162.934Z" fill="black"/>
<path d="M78.6081 19.4735C77.4682 15.9392 75.3409 9.43475 75.2208 9.06641L74.8047 9.2038L74.3857 9.33828C75.0743 11.4431 76.4603 15.6877 77.4243 18.6666C77.2798 18.6095 77.1308 18.5646 76.9789 18.5321C75.4997 18.2119 74.007 19.0137 73.4606 20.422C72.9142 21.8303 73.4768 23.4258 74.7866 24.1826C76.0965 24.9395 77.7636 24.6322 78.716 23.4586C79.6684 22.2849 79.6226 20.5941 78.6081 19.4735Z" fill="black"/>
<path d="M129.488 36.5139C128.861 34.1957 127.883 30.6205 127.241 28.2789L127.467 28.2175L126.69 25.3965L114.826 28.6501L115.602 31.4712L116.171 31.3133C116.657 33.5058 117.258 36.2128 117.721 38.3118C117.582 38.2423 117.438 38.1827 117.29 38.1334C115.851 37.6757 114.293 38.3307 113.616 39.6777C112.939 41.0246 113.345 42.6627 114.574 43.5391C115.802 44.4156 117.487 44.2696 118.546 43.1951C119.605 42.1206 119.722 40.4372 118.823 39.2268C118.322 36.9436 117.545 33.4503 117.021 31.0824L126.397 28.5098C127.001 30.714 127.763 33.5058 128.346 35.6515C128.204 35.5903 128.058 35.5385 127.909 35.4966C126.448 35.1074 124.921 35.8371 124.309 37.2165C123.697 38.5959 124.182 40.2146 125.453 41.0317C126.724 41.8489 128.402 41.6214 129.409 40.4955C130.415 39.3696 130.45 37.6804 129.491 36.5139H129.488Z" fill="black"/>
<path d="M102.473 12.9896C102.473 12.9633 102.45 12.9107 102.426 12.8376C102.406 12.401 102.26 11.9795 102.004 11.6244C101.418 9.96104 100.431 7.16342 99.7832 5.34218L99.8447 5.32172L99.1122 3.27539L90.4741 6.33319L91.2066 8.37952L91.4997 8.26844C92.0212 9.99613 92.5779 11.8554 93.0087 13.2966C92.9446 13.2727 92.879 13.2531 92.8124 13.2381C91.5863 12.9465 90.3554 13.7016 90.0629 14.9247C89.7703 16.1478 90.5268 17.376 91.7527 17.6682C92.9786 17.9605 94.2098 17.2061 94.5031 15.9831C94.5306 15.8639 94.5483 15.7427 94.5558 15.6206H94.6056L94.5646 15.4686C94.5654 15.0319 94.4392 14.6044 94.2012 14.2379C93.7148 12.5862 92.8885 9.83827 92.3289 7.9878L98.9422 5.64913C99.5634 7.40313 100.237 9.30037 100.753 10.7679C100.689 10.7503 100.621 10.7328 100.554 10.7211C99.3151 10.4895 98.1226 11.3033 97.8899 12.5391C97.6573 13.7749 98.4726 14.9649 99.7112 15.1974C100.95 15.4299 102.143 14.617 102.376 13.3813C102.398 13.2607 102.41 13.1385 102.412 13.0159L102.473 12.9896Z" fill="black"/>
<path d="M124.167 10.8163C123.062 7.40187 120.756 0.391726 120.63 0L120.214 0.137397L119.795 0.274793C120.507 2.44098 121.966 6.87859 122.936 9.86331C122.701 9.75366 122.454 9.67127 122.201 9.61775C120.531 9.26247 118.849 10.1608 118.219 11.7435C117.589 13.3262 118.196 15.1312 119.655 16.015C121.114 16.8987 122.999 16.6032 124.116 15.3156C125.233 14.0279 125.256 12.1242 124.17 10.8105L124.167 10.8163ZM124.029 13.5935C123.744 14.9484 122.455 15.8509 121.081 15.658C119.707 15.465 118.717 14.2427 118.818 12.8619C118.919 11.4811 120.075 10.4143 121.462 10.4217C121.647 10.4225 121.832 10.4421 122.013 10.4801C122.543 10.5917 123.023 10.8669 123.387 11.2665C123.778 11.6861 124.02 12.2223 124.076 12.7925C124.104 13.0603 124.088 13.3308 124.029 13.5935Z" fill="black"/>
<path d="M144.58 153.112C138.72 153.697 131.981 155.451 134.325 151.358C136.669 147.265 148.39 138.495 140.771 139.08C134.231 139.583 129.423 143.529 127.82 146.485C126.285 141.682 124.629 134.072 124.362 123.151C126.308 122.344 139.511 116.667 136.522 112.335C133.592 108.099 125.798 120.494 124.354 122.859C124.286 119.81 124.327 116.503 124.509 112.934L123.63 112.887C123.519 115.105 123.457 117.22 123.445 119.234C121.775 116.918 115.938 109.677 109.272 111.156C102.049 112.758 120.225 118.757 123.442 119.774C123.442 121.78 123.478 123.687 123.551 125.495C121.69 124.124 113.401 118.281 111.323 121.388C109.196 124.572 121.286 125.586 123.562 125.75C123.642 127.594 123.765 129.34 123.917 130.982C121.925 129.86 115.405 126.53 112.196 128.989C108.815 131.585 121.136 131.415 123.943 131.345C124.172 133.722 124.468 135.885 124.802 137.846C122.373 137.031 112.885 134.046 111.616 136.589C110.315 139.185 122.182 138.314 124.849 138.086C125.401 141.393 126.22 144.651 127.298 147.827C127.297 147.832 127.297 147.838 127.298 147.844C126.712 150.768 123.196 146.383 119.68 146.967C116.164 147.552 117.043 150.475 119.68 153.106C122.317 155.737 111.183 154.86 117.629 160.122H144C144 160.122 150.441 152.527 144.58 153.112Z" fill="black"/>
<path d="M124.956 128.874C124.956 128.874 138.279 125.194 137.4 121.394C136.521 117.593 124.956 128.874 124.956 128.874Z" fill="black"/>
<path d="M130.661 104.732C128.024 101.516 125.68 113.502 124.956 114.706C124.956 114.706 133.298 107.947 130.661 104.732Z" fill="black"/>
<path d="M135.937 128.995C131.835 126.949 125.585 135.336 125.585 135.336C125.585 135.336 140.039 131.042 135.937 128.995Z" fill="black"/>
<path d="M36.604 19.9551H8.18164V160.275H64.5869V19.9551H36.604ZM9.06068 159.398V20.8321H31.3298V159.398H9.06068ZM32.2088 159.398V20.8321H35.725V159.398H32.2088ZM63.7079 111.911V159.398H36.604V20.8321H63.7079V111.911Z" fill="black"/>
<path d="M51.2542 42.0254C46.8179 42.0254 43.3428 49.9184 43.3428 60.0039C43.3428 70.0894 46.8179 77.9824 51.2542 77.9824C51.9783 77.976 52.6871 77.774 53.3053 77.3977C53.9419 77.0096 54.5069 76.5152 54.9754 75.936C57.4895 72.9571 59.1656 67.0082 59.1656 60.0039C59.1656 49.9184 55.6904 42.0254 51.2542 42.0254ZM53.7624 75.936C53.6172 76.0756 53.4646 76.2074 53.3053 76.3307C52.7282 76.8114 52.0057 77.0843 51.2542 77.1054C47.445 77.1054 44.2218 69.2738 44.2218 60.0039C44.2218 50.734 47.445 42.9024 51.2542 42.9024C55.0633 42.9024 58.2865 50.734 58.2865 60.0039C58.2865 67.1368 56.379 73.419 53.7624 75.936Z" fill="black"/>
<path d="M51.2556 49.627C48.6361 49.627 46.582 54.1844 46.582 60.0048C46.582 65.8251 48.6331 70.3826 51.2556 70.3826C53.8781 70.3826 55.9438 65.8251 55.9438 60.0048C55.9438 54.1844 53.8752 49.627 51.2556 49.627ZM51.2556 69.5056C49.4243 69.5056 47.4611 65.6877 47.4611 60.0048C47.4611 54.3218 49.4243 50.504 51.2556 50.504C53.087 50.504 55.0648 54.3218 55.0648 60.0048C55.0648 65.6877 53.087 69.5056 51.2556 69.5056Z" fill="black"/>
<path d="M57.6712 112.496C57.5335 112.066 57.3782 111.654 57.2375 111.256C57.0422 110.759 56.839 110.29 56.628 109.847C56.1474 108.8 55.5167 107.828 54.7557 106.962C54.5007 106.681 54.2234 106.421 53.9265 106.184C53.1785 105.551 52.2351 105.193 51.2542 105.17C49.9883 105.17 48.8016 105.813 47.738 106.965C47.1936 107.576 46.7199 108.247 46.3257 108.964C44.5148 112.227 43.3428 117.322 43.3428 123.148C43.3428 133.234 46.8179 141.127 51.2542 141.127C55.6904 141.127 59.1656 133.234 59.1656 123.148C59.1986 119.754 58.7568 116.371 57.8528 113.098C57.7942 112.893 57.7327 112.692 57.6712 112.496ZM51.2542 140.25C47.445 140.25 44.2218 132.418 44.2218 123.148C44.2218 118.237 45.1243 113.729 46.5425 110.578C46.754 110.103 46.9907 109.639 47.2516 109.19C47.5333 108.697 47.8558 108.228 48.2156 107.789C48.5249 107.41 48.878 107.069 49.2675 106.772C49.8327 106.32 50.5304 106.066 51.2542 106.047C51.7068 106.049 52.1529 106.155 52.5581 106.357C52.9543 106.552 53.3195 106.804 53.6422 107.105C54.8436 108.198 55.9014 110.081 56.7042 112.481C56.8361 112.876 56.9621 113.285 57.0793 113.709C57.9005 116.788 58.3065 119.962 58.2865 123.148C58.2865 132.418 55.0634 140.25 51.2542 140.25Z" fill="black"/>
<path d="M54.8139 116.361C53.9642 114.151 52.6954 112.771 51.2538 112.771C50.7881 112.776 50.3334 112.914 49.944 113.169C48.8833 113.833 47.9867 115.291 47.389 117.247C46.8316 119.164 46.5591 121.153 46.5802 123.149C46.5802 128.97 48.6313 133.527 51.2538 133.527C53.8763 133.527 55.942 128.97 55.942 123.149C55.9594 121.259 55.7178 119.376 55.2242 117.551C55.0923 117.133 54.9604 116.736 54.8139 116.361ZM51.2538 132.65C49.4225 132.65 47.4593 128.832 47.4593 123.149C47.4567 122.024 47.5399 120.9 47.7083 119.787C47.8376 118.949 48.0336 118.122 48.2944 117.314C49.024 115.008 50.1609 113.648 51.2538 113.648C52.3468 113.648 53.5364 115.069 54.2748 117.469C54.4099 117.898 54.5234 118.333 54.6147 118.773C54.9122 120.216 55.0576 121.685 55.0484 123.158C55.063 128.832 53.0852 132.65 51.2538 132.65Z" fill="black"/>
<path d="M39.6797 154.72H61.9488V26.0938H39.6797V154.72ZM40.5587 26.9707H61.0697V153.843H40.5587V26.9707Z" fill="black"/>
<path d="M63.709 75.9375V76.8145H166.997V81.4918H63.709V82.3688H167.876V75.9375H63.709Z" fill="black"/>
<path d="M106.775 24.6409L114.941 21.4019L114.616 20.5892L106.485 23.8048C105.919 22.9775 104.727 21.4194 103.077 20.4839L103.103 20.405C102.986 20.367 102.872 20.3407 102.758 20.3115H102.74C102.201 20.0381 101.621 19.8545 101.023 19.7677C99.558 19.5689 98.1427 20.0601 96.8066 21.1914C95.4089 22.3929 94.817 23.6762 94.647 24.8514L94.6207 24.7783L94.0346 25.4448C93.6061 25.7804 93.2418 26.1904 92.9593 26.6551L88.2124 31.9843L89.197 27.1608L85.1563 31.2535L84.8076 31.6072L85.4347 32.2211L85.6368 32.0135L87.7436 29.8766L86.8968 34.016L86.6976 34.9953L87.1752 34.4575L92.2766 28.716L93.642 27.1842L94.3452 26.3949L95.1276 28.1928L95.1862 28.3331L95.2975 28.5845L96.1971 30.663L96.5985 31.5838L95.4997 32.4316L94.7144 33.0367L92.2853 34.9135L89.0065 37.4392L88.6285 37.7316L89.1677 38.4273L89.4783 38.1876L92.174 36.1062C92.304 36.4153 92.5548 36.6582 92.8684 36.7786L98.4357 37.6877L98.2335 39.7341C98.141 40.2471 98.2641 40.7754 98.5739 41.1951C98.8838 41.6148 99.353 41.8888 99.8715 41.9529L104.237 42.4995C104.318 42.5087 104.399 42.5136 104.481 42.5141C105.296 42.5122 106.021 41.9929 106.283 41.222C106.423 40.8218 106.423 40.3857 106.283 39.9855L105.046 36.4775C105.478 36.3788 105.876 36.168 106.201 35.8665C107.83 34.3814 107.762 31.6277 107.481 29.7684H109.142C109.142 29.7684 110.599 26.1113 106.775 24.6409ZM102.429 21.1329C103.824 21.8637 104.923 23.1588 105.497 23.9393L104.979 24.179L100.437 26.278C100.124 25.866 99.7427 25.511 99.3089 25.2285C98.8622 24.9345 98.3658 24.7235 97.8438 24.6058C98.0958 23.7522 98.7024 22.2145 99.9389 21.4662C100.692 21.0309 101.589 20.913 102.429 21.1388V21.1329ZM97.3809 21.855C97.9845 21.3104 98.7098 20.9175 99.4964 20.709H99.4818C97.9229 21.6533 97.2256 23.533 96.9618 24.4801H96.8183C96.395 24.4798 95.9739 24.5388 95.5671 24.6555C95.8514 23.5505 96.488 22.5677 97.3809 21.855ZM96.8183 32.6713C96.7597 32.6713 96.7011 32.6713 96.6425 32.6713L97.6856 31.8674L97.1963 30.7361C97.9023 30.588 98.446 30.0246 98.5675 29.3151C98.689 28.6056 98.3638 27.894 97.7471 27.5204C97.6117 27.4346 97.4647 27.3686 97.3105 27.3245C96.837 27.4415 96.3788 27.6132 95.9451 27.8361L95.825 27.5613L95.7839 27.4707L95.066 25.8161C95.6031 25.5167 96.2089 25.3616 96.8241 25.3659C97.6265 25.364 98.4068 25.6283 99.0423 26.1172C99.2592 26.2771 99.456 26.4627 99.6283 26.6697C99.7187 26.7731 99.8019 26.8824 99.8773 26.9971C99.9654 27.1297 100.046 27.2674 100.118 27.4093C100.197 27.5718 100.265 27.7399 100.32 27.9121C100.762 29.3171 100.312 30.8495 99.18 31.7943C98.5229 32.3586 97.6852 32.6697 96.8183 32.6713ZM105.462 40.272C105.581 40.6067 105.517 40.979 105.294 41.2554C105.071 41.5319 104.719 41.6731 104.366 41.6284L99.9975 41.0817C99.717 41.0463 99.4636 40.8969 99.2972 40.6689C99.1308 40.4409 99.0661 40.1545 99.1184 39.8773L99.3206 37.831L101.756 38.2285C102.258 37.6324 102.67 36.9668 102.98 36.2524C103.355 36.4057 103.75 36.5042 104.152 36.5447L105.462 40.272ZM105.612 35.2175C105.375 35.4401 105.077 35.5876 104.756 35.6414H104.741C104.605 35.6643 104.466 35.6721 104.328 35.6648C103.923 35.6384 103.526 35.5394 103.156 35.3725C103.159 35.097 103.038 34.8347 102.828 34.6562C101.674 33.6828 100.712 32.9022 101.492 32.1392C102.271 31.3763 102.078 30.4057 101.509 29.6281L101.492 29.6076C101.357 29.4173 101.379 29.1578 101.544 28.9926C101.709 28.8275 101.969 28.8045 102.16 28.9382L103.347 29.7392L106.593 29.7626C106.857 31.4523 106.974 33.978 105.603 35.2292L105.612 35.2175Z" fill="black"/>
</svg>
