<svg width="211" height="160" viewBox="0 0 211 160" fill="none" xmlns="http://www.w3.org/2000/svg">
<path d="M98.8553 2.07429L96.8053 13.976L96.7355 14.3881L95.8378 14.2366L95.9076 13.8244L97.806 2.8047L92.1805 1.7894L92.3048 13.2092L92.3139 13.7941V13.9184L92.2351 13.785L91.8469 13.1274L89.6543 9.44199L89.7483 12.7728L89.7665 13.388L89.3116 13.4031L88.8567 13.4153L88.8355 12.6152L88.6475 5.96878L91.3677 10.5452L91.2586 0.695312L98.8553 2.07429Z" fill="black"/>
<path d="M85.7579 122.054C86.971 112.659 82.5251 97.0323 80.9208 92.7378C79.3166 88.4433 77.5455 81.806 77.773 79.3208C78.0004 76.8356 70.4067 68.4102 70.4067 68.4102C70.21 68.4994 70.0221 68.607 69.8456 68.7314L52.9053 69.9255C52.9053 69.9255 44.6171 79.0177 50.085 92.959C51.4436 96.4171 50.5429 99.7418 48.2654 101.548C45.9879 103.354 42.3123 111.043 46.6641 116.017C51.016 120.99 50.3276 127.091 48.4837 130.934C46.6399 134.777 43.4465 140.202 50.5429 147.209H60.3899C60.3899 147.209 63.5954 139.072 65.6576 134.783C67.0101 131.964 68.951 126.027 69.5454 118.769C70.5189 120.181 71.6015 121.445 72.5538 122.666C75.6259 126.606 74.0519 127.555 72.4476 135.698C70.8434 143.842 76.8541 146.912 76.8541 146.912L85.1423 146.609C86.7344 143.439 84.8784 128.779 85.7579 122.054Z" fill="black"/>
<path d="M54.2851 147.705C51.6194 145.405 51.9469 136.958 54.2092 133.764C56.1441 131.036 57.5451 120.625 53.0568 116.792C51.5769 115.525 50.7763 113.988 50.6762 112.224C50.4791 108.642 53.1781 104.95 55.4769 102.499C58.9189 98.8163 56.3351 92.1305 56.3078 92.0639L57.1539 91.7305C57.2722 92.0335 59.9773 99.0042 56.141 103.117C54.3578 105.026 51.3949 108.739 51.5921 112.176C51.677 113.691 52.3715 115 53.6543 116.101C58.5732 120.31 57.0842 131.294 54.9583 134.285C52.9719 137.085 52.5959 145.035 54.8855 147.014L54.2851 147.705Z" fill="white"/>
<path d="M60.8353 147.257L60.0195 146.857C66.4548 133.825 68.6595 122.645 69.3752 115.568C70.285 106.512 69.2054 100.196 67.9954 97.5413C65.1962 91.401 67.2675 83.6212 67.3555 83.2969L68.2349 83.5333C68.2137 83.6121 66.1637 91.3313 68.8233 97.1715C71.4435 102.915 72.9416 122.727 60.8353 147.257Z" fill="white"/>
<path d="M58.3298 155.999L62.0145 146.604H48.5859L49.1925 158.281L49.241 159.19V159.333H50.918L50.9666 159.19L51.2698 158.281L51.5549 157.438L52.4071 158.281L53.1652 159.029H62.1085V155.999H58.3298ZM51.1697 155.771L50.3236 158.281L50.2751 158.423H50.1114V158.281L49.5473 147.513H60.6801L56.9954 156.908H61.1987V158.12H53.5504L51.1697 155.771Z" fill="black"/>
<path d="M83.5066 155.696L87.1912 146.301H73.7627L74.3692 158.281L74.4086 159.03H76.1191L76.3708 158.281L76.7589 157.136L77.9174 158.281L78.3693 158.727H87.3004V155.696H83.5066ZM76.3465 155.469L75.4519 158.121H75.2881L74.721 147.21H85.8569L82.1843 156.605H86.3876V157.818H78.7271L76.3465 155.469Z" fill="black"/>
<path d="M210.162 158.281H0V159.19H210.162V158.281Z" fill="black"/>
<path d="M75.626 49.6197C70.4068 45.9828 72.8603 39.3152 73.1696 38.406C73.4789 37.4968 73.7761 36.8906 71.9565 35.9814C70.4099 35.2177 70.3765 30.8292 70.4069 29.432L71.4956 29.629C71.4956 29.629 74.3402 25.0829 68.0505 23.0978C67.8716 23.0432 67.6835 22.9887 67.4864 22.9372C67.2893 22.8856 67.1286 22.8432 66.9375 22.8008L66.9951 22.9372L62.0914 25.0071H62.055V25.0375L57.8093 26.8226L57.4272 25.9133C57.3059 26.0592 57.2039 26.2202 57.1239 26.3922C57.0156 26.6417 56.9608 26.9112 56.9632 27.1832C56.9632 27.6136 57.0481 28.0924 57.1087 28.7289C57.2513 30.1806 56.1292 29.5684 54.9859 30.1715C53.8426 30.7746 52.3445 31.6232 53.9912 32.7355L59.2103 34.6812L57.9245 36.4572C57.6057 36.8934 57.4817 37.4419 57.5818 37.9726C57.6872 38.5094 58.0098 38.9788 58.4734 39.2697L62.3734 41.6943C62.8739 42.0123 63.4915 42.0869 64.0535 41.8974C64.1146 42.5292 64.4086 43.1158 64.8783 43.5431C67.3348 45.6646 66.4129 50.8168 63.6501 52.6352C60.8874 54.4537 67.3257 61.7426 67.3257 61.7426L81.1424 58.7119C80.6999 55.0285 78.6894 51.7148 75.626 49.6197ZM64.0626 33.4629C63.0527 32.2506 62.2036 31.2929 63.1528 30.6504C64.102 30.0078 64.0808 28.9895 63.6319 28.0924L63.6168 28.0652C63.516 27.8449 63.5877 27.5842 63.7869 27.4462C63.9861 27.3083 64.2555 27.3329 64.4265 27.5045L65.5061 28.5379L68.8602 29.1441C68.8299 30.9049 68.4872 33.5053 66.8435 34.5358C66.0702 35.0207 65.218 34.8388 64.4174 34.3478C64.4006 34.0217 64.2757 33.7104 64.0626 33.4629ZM62.8495 40.9397L58.9495 38.5151C58.6982 38.3628 58.5222 38.1121 58.4646 37.824C58.4069 37.536 58.4729 37.2369 58.6463 36.9997L60.0898 35.0267L63.6168 36.3421C63.8713 36.0277 64.0759 35.6761 64.2233 35.2995C64.4544 35.4239 64.6972 35.5254 64.9481 35.6026L64.7025 38.0271C64.3342 38.9574 64.0984 39.9348 64.0019 40.9306C63.9679 40.9573 63.9313 40.9806 63.8927 41.0003C63.5592 41.1574 63.1686 41.1346 62.8556 40.9397H62.8495Z" fill="black"/>
<path d="M43.363 83.1672L43.3085 83.5976L42.2106 92.3231L40.0362 87.5557L39.0506 95.8478L31.0869 93.0807L34.8959 83.8431L35.275 82.9248L35.3356 82.7793L35.6571 82.9126L35.7541 82.9551H35.7602L36.1757 83.1278L35.8936 83.8158L32.2939 92.5352L38.2803 94.6173L39.5177 84.2219L41.7072 89.0287L42.3865 83.6249L42.4532 83.1006L42.4593 83.0521L43.363 83.1672Z" fill="black"/>
<path d="M96.8057 13.9767L96.3568 13.9009L95.908 13.8252L92.3052 13.219L91.8473 13.1402L89.7487 12.7826L89.2908 12.7038L88.8359 12.628L86.7646 12.2734L85.2483 37.2678L72.9085 39.2408L72.3353 39.3318L72.4778 40.241L72.6598 40.2107L86.1096 38.0619L87.6259 13.3524L99.0862 15.3072L94.5373 35.31L94.4675 35.6131L92.2931 45.1477L73.6424 49.0877L72.7508 49.2756L72.8994 50.1848L74.9221 62.6108L51.2676 64.708C52.0773 60.5953 54.743 46.9722 55.0189 44.678L55.4405 43.9627L54.6581 43.502L46.7732 56.8372L46.7034 56.8948L44.0044 82.656L35.6464 82.9015H35.2643L34.6275 82.9197L38.1939 55.9856L49.8362 38.4074L57.6209 38.1043H57.7999L57.7635 37.1951H57.5997L49.3418 37.4982L37.3872 55.5734L37.3295 55.6613L33.6055 83.8743L34.9065 83.8349H35.4038L35.9042 83.8198L42.3971 83.6288L42.8581 83.6137H43.319L44.8505 83.5682L47.6102 57.2009L53.7604 46.7964C53.0417 50.8485 51.4344 59.1588 50.2577 65.1232L50.1425 65.7294L54.285 65.3414L53.5178 70.2603L71.4104 68.9238L70.5006 63.8988L75.9593 63.4139L73.7728 49.9939L93.0331 45.9145L95.3348 35.8131L95.4046 35.51L100.178 14.5616L96.8057 13.9767ZM70.3247 68.1085L54.5883 69.2662L55.1948 65.2566L69.5635 63.9807L70.3247 68.1085Z" fill="black"/>
<path d="M68.5796 13.6112C67.7616 12.5688 66.5605 11.8965 65.2437 11.7443C64.2246 11.6268 63.194 11.8235 62.2899 12.308C60.6485 10.3873 57.7808 10.1088 55.8001 11.6776C54.8275 12.4414 54.1981 13.5598 54.0502 14.7871C51.5003 15.0247 49.5421 17.1491 49.514 19.7084C49.4859 22.2676 51.3969 24.4344 53.941 24.7279C54.5204 24.7988 55.1078 24.7659 55.6757 24.6309C55.7424 24.6309 55.8061 24.5946 55.8728 24.5764L55.979 24.8219L56.9767 27.1828L57.3255 27.9981L61.7683 26.122L63.5272 25.3765L68.1763 23.4126L68.0398 23.0913L67.2907 21.3214L67.1664 21.0183C67.3784 20.9016 67.5812 20.7689 67.7729 20.6213C68.2894 20.2139 68.7211 19.7094 69.0436 19.1362C70.0254 17.369 69.8484 15.1853 68.5948 13.5991L68.5796 13.6112ZM62.0746 25.0067L62.0321 25.0279L57.7864 26.813L57.4043 25.9038L56.822 24.5248L56.7038 24.246C57.0262 24.0897 57.3312 23.8998 57.6136 23.6793C58.6567 22.8618 59.3293 21.6614 59.4817 20.3455C59.4817 20.2273 59.5059 20.1091 59.512 19.9909C59.89 19.9242 60.2586 19.8123 60.6098 19.6575C61.873 21.3841 64.096 22.1153 66.1383 21.4759C66.205 21.4578 66.2687 21.4305 66.3324 21.4062L66.4416 21.6669L66.9177 22.7913L66.9753 22.9277L62.0746 25.0067ZM68.7221 17.1905C68.5997 18.265 68.054 19.2466 67.2058 19.9181C67.0283 20.06 66.8385 20.1857 66.6387 20.294C66.5058 20.3697 66.368 20.4365 66.2263 20.494C66.087 20.5515 65.9441 20.6001 65.7987 20.6395C64.0212 21.1499 62.1221 20.4042 61.1678 18.821L60.9404 18.4452L60.5552 18.6604C60.09 18.9245 59.5723 19.0828 59.0389 19.1241H58.9055L58.6022 19.1483V19.2484L58.6174 19.5878C58.626 19.7962 58.6179 20.005 58.5931 20.2121C58.4706 21.2866 57.925 22.2682 57.0768 22.9398C56.8085 23.1516 56.5152 23.3298 56.2034 23.4702C56.0653 23.5316 55.9235 23.5843 55.7788 23.6278C55.6332 23.6768 55.4842 23.7153 55.333 23.7429C54.9155 23.8248 54.4877 23.8402 54.0654 23.7884C52.0148 23.4483 50.5453 21.6255 50.6492 19.5507C50.7532 17.4759 52.3974 15.8089 54.4718 15.6751H54.9145V15.2326C54.9158 15.1313 54.9229 15.0301 54.9357 14.9296C55.167 13.0287 56.7802 11.5986 58.6962 11.5958C58.8451 11.5963 58.9939 11.6044 59.142 11.62C60.2059 11.7466 61.167 12.3155 61.7895 13.1869L62.0443 13.5445L62.4082 13.3051C63.2104 12.7845 64.1691 12.5595 65.1194 12.6686C67.1762 12.9044 68.7338 14.6366 68.7494 16.7056C68.7495 16.8676 68.7404 17.0295 68.7221 17.1905Z" fill="black"/>
<path d="M132.079 76.719V69.8574H89.0156V76.719C89.0171 85.7087 95.2581 93.4946 104.036 95.458L91.9057 159.179L92.7973 159.349L104.928 95.6337C106.017 95.8236 107.121 95.92 108.227 95.9217H109.031V158.658H109.941V95.9217H112.864C113.34 95.9217 113.81 95.8974 114.278 95.8641L129.059 157.994L129.944 157.782L115.193 95.7762C124.832 94.6013 132.078 86.4232 132.079 76.719Z" fill="black"/>
<path d="M107.127 63.3583C106.973 63.125 103.346 57.5848 106.539 53.4327C109.608 49.4503 109.948 44.5406 107.428 40.6218L108.192 40.1309C110.921 44.3739 110.569 49.6898 107.261 53.9904C104.465 57.6272 107.849 62.8037 107.886 62.8552L107.127 63.3583Z" fill="black"/>
<path d="M115.399 64.3591C115.202 64.1893 110.589 60.116 112.876 56.2094L113.179 55.7033C115.199 52.2604 117.713 47.9719 115.423 46.1899L115.981 45.4746C118.902 47.7416 116.163 52.4119 113.965 56.164L113.661 56.6701C111.754 59.9342 115.948 63.6408 115.99 63.6741L115.399 64.3591Z" fill="black"/>
<path d="M175.396 142.827C174.34 141.757 172.763 141.512 170.716 142.097C167.684 142.96 164.812 144.239 162.498 145.267C160.002 146.373 157.424 147.519 156.836 147C156.711 146.894 156.478 146.473 156.954 144.879C157.306 143.706 157.8 142.324 158.322 140.863C160.172 135.711 162.082 130.362 160.205 128.422C159.432 127.622 158.182 127.513 156.378 128.092C151.35 129.701 147.495 133.004 146.555 136.508C146.076 138.296 146.443 139.978 147.586 141.236C148.05 141.745 148.078 142.006 148.062 142.042C148.047 142.078 147.862 142.209 147.271 142.181C144.969 142.078 140.065 139.711 138.476 135.365C137.776 133.444 136.608 133.129 135.974 133.114C134.564 133.083 133.075 134.402 132.196 136.487C130.352 140.845 131.007 148.067 138.367 155.25L138.5 155.38H175.635L175.732 155.056C175.844 154.695 178.425 145.885 175.396 142.827ZM174.953 154.483H138.895C131.986 147.661 131.343 140.912 133.057 136.85C133.773 135.159 134.925 134.035 135.941 134.035H135.974C136.669 134.053 137.263 134.641 137.645 135.69C139.447 140.642 144.875 142.994 147.247 143.103C148.329 143.142 148.745 142.769 148.899 142.439C149.13 141.951 148.921 141.345 148.275 140.636C147.332 139.599 147.046 138.257 147.45 136.753C148.311 133.541 151.929 130.486 156.672 128.971C158.091 128.516 159.065 128.546 159.568 129.068C161.048 130.598 159.071 136.126 157.482 140.569C156.954 142.042 156.457 143.436 156.096 144.627C155.617 146.227 155.665 147.17 156.251 147.682C157.276 148.591 159.505 147.597 162.883 146.097C165.154 145.088 168.008 143.815 170.965 142.966C172.669 142.478 173.943 142.648 174.75 143.463C177.106 145.846 175.383 152.883 174.953 154.483Z" fill="black"/>
<path d="M160.249 85.0751L137.444 90.1895L142.567 112.984L165.371 107.87L160.249 85.0751Z" fill="#FFE2FE"/>
<path d="M153.264 110.538L151.044 98.3301L139.781 100.373L133.167 101.585L136.388 119.321L154.28 116.078L153.264 110.538ZM137.122 118.251L134.225 102.303L139.987 101.261L150.323 99.3848L152.385 110.735L153.219 115.332L137.122 118.251Z" fill="black"/>
<path d="M132.849 21.8015L126.693 13.1973L118.086 19.3496L122.195 25.0929L117.765 28.2539L123.924 36.8551L132.528 30.7088L128.424 24.9656L132.849 21.8015Z" fill="#FFE2FE"/>
</svg>
