<svg width="231" height="151" viewBox="0 0 231 151" fill="none" xmlns="http://www.w3.org/2000/svg">
<path d="M110.551 68.7539H94.1455V75.7671H110.551V68.7539Z" fill="black"/>
<path d="M106.355 46.0957C106.355 46.0957 90.9036 53.9252 99.8098 67.5035C99.8098 67.5035 108.166 72.7799 104.879 81.6654C101.592 90.5509 107.222 100.371 114.722 104.591C114.722 104.591 120.348 110.67 117.535 120.024C114.722 129.379 117.629 128.101 117.629 128.101H154.72L118.931 69.9732L121.274 60.1534L106.355 46.0957Z" fill="black"/>
<path d="M148.541 118.661L159.522 74.9389L120.176 64.2402L114.72 66.7794L148.541 118.661Z" fill="black"/>
<path d="M141.159 8.55764C140.692 8.47093 140.215 8.44756 139.742 8.48817C140.313 6.36233 140.724 3.35766 139.993 1.65559C138.903 -0.887083 129.084 0.203628 125.812 4.55605C123.172 8.07481 133.276 9.92277 137.308 10.5063C136.8 13.0872 133.712 12.389 132.758 13.8167C131.804 15.2443 132.277 15.9738 132.758 17.6376C133.238 19.3015 131.797 18.8326 130.599 19.7913C129.401 20.75 127.838 22.0665 129.997 23.0252L141.998 25.1788C142.234 24.7437 142.402 24.2751 142.496 23.7894C142.576 23.8137 142.653 23.838 142.733 23.8554C143.05 23.9426 143.376 23.995 143.704 24.0117H143.861C144.681 24.0249 145.473 23.7169 146.068 23.1537C148.07 21.2988 147.962 17.8877 147.6 15.5882H149.689C149.689 15.5882 152.561 8.19639 141.159 8.55764ZM145.358 22.4208C144.928 22.8329 144.345 23.0469 143.749 23.0113C143.318 22.9861 142.894 22.8923 142.492 22.7334C142.407 22.3445 142.192 21.9957 141.883 21.7434C140.442 20.545 139.244 19.5863 140.201 18.6172C141.159 17.6481 140.922 16.4636 140.201 15.491L140.17 15.4736C140.009 15.2383 140.037 14.9225 140.237 14.7191C140.437 14.5156 140.753 14.481 140.992 14.6364L142.472 15.6195H146.531C146.886 17.7071 147.057 20.8473 145.358 22.4208Z" fill="black"/>
<path d="M226.811 100.82C224.83 93.2855 220.464 87.9431 214.514 85.7721C208.563 83.6011 201.774 84.8759 195.389 89.3569C194.153 90.227 192.978 91.1798 191.872 92.2087L182.322 65.5314C180.474 60.3998 176.066 56.609 170.707 55.5413C170.047 55.4094 169.38 55.3212 168.708 55.2773L169.297 55.5344L168.579 56.316C169.015 56.3403 169.446 56.3854 169.871 56.4514C175.136 57.2621 179.535 60.8805 181.336 65.8823L187.583 83.3302L187.363 83.2016L160.968 127.567H101.738C102.065 126.799 102.378 126.01 102.671 125.211C106.605 114.474 106.281 103.599 102.57 95.8351L105.303 92.5005L104.495 91.8405L102.058 94.8174C99.7845 90.583 96.4386 87.3943 92.1805 85.8381C80.0572 81.4197 65.0441 91.8857 58.7074 109.177C56.1484 116.163 55.3929 123.211 56.2006 129.421C57.3913 138.578 61.9802 145.914 69.2013 148.551C69.796 148.766 70.4028 148.947 71.0187 149.092C71.3669 149.183 71.7151 149.256 72.0876 149.315C73.0501 149.48 74.0251 149.563 75.0018 149.561C76.4077 149.558 77.8089 149.4 79.1798 149.089C83.2116 148.189 87.2295 146.032 90.8714 142.864C94.9937 139.283 98.6391 134.41 101.282 128.622H161.564L187.927 84.3062L191.061 93.0076C186.712 97.2836 183.161 102.9 180.821 109.288C177.827 117.462 177.28 125.719 178.809 132.638C180.501 140.304 184.728 146.327 190.995 148.794L191.193 148.87L191.392 148.943C192.549 149.357 193.748 149.644 194.967 149.798C195.712 149.892 196.462 149.94 197.213 149.94C198.028 149.939 198.842 149.885 199.65 149.777C201.129 149.584 202.583 149.234 203.988 148.735C212.609 145.681 220.812 137.098 225.087 125.427C228.162 117.021 228.778 108.281 226.811 100.82ZM101.846 96.7209C105.244 104.193 105.453 114.586 101.689 124.857C101.341 125.781 100.993 126.688 100.599 127.57H76.5442L101.846 96.7209ZM69.5564 147.574C57.9763 143.351 53.5406 126.288 59.6858 109.539C64.884 95.3488 76.0219 85.8833 86.3487 85.8833C88.2141 85.8778 90.0658 86.2011 91.8184 86.8385C95.9616 88.3495 99.1892 91.5036 101.348 95.6997L74.3403 128.609H100.129C93.3469 143.094 80.2452 151.472 69.5564 147.574ZM224.102 125.066C219.266 138.265 209.322 147.429 199.636 148.749C198.843 148.859 198.042 148.915 197.241 148.915C196.499 148.916 195.758 148.866 195.023 148.766C193.899 148.614 192.795 148.341 191.729 147.953C180.062 143.698 175.602 126.507 181.786 109.636C184.007 103.564 187.356 98.2076 191.43 94.081L198.87 114.867L199.856 114.52L192.252 93.2786C193.421 92.1659 194.671 91.1407 195.991 90.2114C200.169 87.2831 204.497 85.786 208.619 85.786C210.507 85.7807 212.381 86.1076 214.155 86.7517C219.774 88.8011 223.904 93.8899 225.801 101.084C227.713 108.344 227.11 116.861 224.102 125.066Z" fill="black"/>
<path d="M163.794 57.4896L162.749 56.7949V66.0521H163.794V57.4896Z" fill="black"/>
<path d="M184.54 75.0488H159.472V76.0909H184.54V75.0488Z" fill="black"/>
<path d="M150.566 133.084L147.227 129.281L142.259 131.413L140.866 128.614L140.344 127.572L140.153 127.189L134.408 127.568L132.643 127.686L132.796 128.089L132.991 128.61L136.577 138.142L140.518 137.166L139.606 134.734L141.994 135.53L150.566 133.084ZM139.126 136.436L137.238 136.909L134.122 128.634L134.432 128.614L139.508 128.266L139.679 128.614L141.768 132.758L146.963 130.535L148.704 132.535L142.015 134.442L137.858 133.053L139.126 136.436Z" fill="black"/>
<path d="M151.747 133.22L133.29 139.877L134.405 142.95L152.861 136.293L151.747 133.22Z" fill="black"/>
<path d="M94.7225 50.6543H61.6289V51.6964H94.7225V50.6543Z" fill="black"/>
<path d="M89.9902 61.9023H71.0811V62.9444H89.9902V61.9023Z" fill="black"/>
<path d="M87.4453 76.7793H58.7178V77.8214H87.4453V76.7793Z" fill="black"/>
<path d="M146.456 40.3307L142.685 23.6574L141.665 23.8866L145.533 40.9663L161.932 51.2829L158.196 55.6632L138.43 48.6048L135.645 37.2531L133.782 29.6702L132.766 29.9203L134.507 36.9786C125.332 48.9139 109.181 43.9641 105.734 42.7275L133.587 22.2332L132.968 21.3926L103.391 43.1547L122.376 62.4784L136.94 46.8819L137.564 49.4211L158.534 56.8928L163.499 51.0572L146.456 40.3307ZM122.345 60.943L105.508 43.8077C108.906 45.0077 112.46 45.7097 116.061 45.8919C116.525 45.9127 116.989 45.9232 117.453 45.9232C124.702 45.9232 130.659 43.3041 134.816 38.2812L136.623 45.6418L122.345 60.943Z" fill="black"/>
<path d="M183.788 62.6094L189.63 78.5463H211.777L219.204 63.3701L183.788 62.6094ZM198.881 63.978L198.641 64.1655L200.163 66.1038L193.666 71.21L189.415 63.773L198.881 63.978ZM202.547 77.5042H196.179L196.994 77.0387L194.188 72.127L200.803 66.9166L205.879 73.3775L202.335 77.3201L202.547 77.5042ZM206.534 74.2008L209.131 77.5042H203.561L206.534 74.2008ZM185.296 63.6862L188.997 63.7661L188.405 64.1134L192.837 71.8735L189.676 74.3606L190.323 75.1769L193.363 72.7905L196.061 77.5146H190.362L185.296 63.6862ZM211.126 77.5042H209.386L210.061 76.9762L207.258 73.4123L212.568 67.4724L211.788 66.7777L206.586 72.5682L201.628 66.2636L202.325 65.7217L201.681 64.902L200.984 65.4438L199.835 63.9849L217.533 64.3635L211.126 77.5042Z" fill="black"/>
<path d="M122.693 10.1237C113.286 0.740032 98.0353 0.740032 88.628 10.1237L79.4746 19.2558L105.869 45.5891L106.608 44.8527L86.6852 24.9768L99.6685 14.6741C102.764 12.2267 103.423 7.80261 101.176 4.56241C102.655 4.27237 104.16 4.12695 105.667 4.12821C111.779 4.11102 117.643 6.53237 121.955 10.8531L132.929 21.8089L133.667 21.0725L122.693 10.1237ZM101.423 9.46367C101.252 11.1914 100.383 12.7751 99.0174 13.8508L85.9436 24.2334L80.9509 19.2558L89.3661 10.8531C92.3098 7.90531 96.0045 5.81546 100.051 4.80904C101.104 6.1204 101.597 7.79255 101.423 9.46367Z" fill="black"/>
<path d="M139.76 78.0584L130.833 90.6484L131.689 91.2524L140.615 78.6624L139.76 78.0584Z" fill="white"/>
<path d="M158.533 76.5494C145.602 76.4104 125.969 76.2854 124.882 76.5181C124.961 76.4975 125.032 76.4554 125.088 76.3965L124.35 75.6601C124.579 75.4309 124.733 75.278 141.758 75.3718C150.072 75.417 158.47 75.5073 158.536 75.5073L158.533 76.5494Z" fill="white"/>
<path d="M148.792 119.474L118.209 71.1908L121.854 68.3633L122.495 69.1865L119.598 71.4339L149.677 118.918L148.792 119.474Z" fill="white"/>
<path d="M104.709 87.5864L104.361 86.6034C109.183 84.9326 112.494 82.1259 113.013 79.2845C113.267 77.8464 112.742 76.5473 111.492 75.526C106.99 71.851 109.716 63.7158 111.739 60.3429C111.929 60.028 111.961 59.6428 111.826 59.3008C110.956 56.522 103.397 52.6419 100.556 51.3776L100.984 50.4258C101.419 50.6203 111.634 55.2159 112.822 58.9882C113.044 59.6097 112.976 60.2974 112.637 60.864C110.318 64.7162 108.567 71.7746 112.153 74.7063C113.692 75.9602 114.361 77.6484 114.04 79.4547C113.455 82.6817 109.88 85.7905 104.709 87.5864Z" fill="white"/>
<path d="M119.305 113.324L118.86 112.383C118.922 112.355 124.952 109.5 127.031 106.735C127.373 106.357 127.472 105.819 127.285 105.345C126.617 103.647 122.728 102 119.354 101.386C118.807 101.288 118.066 101.087 117.899 100.468C117.693 99.7078 118.508 99.02 119.639 98.0647C121.168 96.7691 123.069 95.1573 122.588 93.3927C122.516 93.1317 122.322 92.9218 122.066 92.83C119.566 91.7879 111.123 96.0049 108.08 97.7174L107.568 96.8108C108.731 96.1543 119.058 90.4437 122.467 91.8678C123.026 92.0853 123.448 92.5565 123.602 93.1357C124.26 95.5394 121.986 97.4673 120.325 98.8741C119.8 99.3187 119.096 99.9162 118.95 100.201C119.141 100.291 119.346 100.351 119.556 100.378C122.543 100.92 127.331 102.594 128.26 104.981C128.576 105.789 128.427 106.704 127.87 107.371C125.631 110.334 119.563 113.206 119.305 113.324Z" fill="white"/>
<path d="M151.125 128.523C151.076 128.447 146.313 120.853 142.852 119.127C141.842 118.623 141.588 118.707 141.578 118.714C141.428 118.96 141.797 120.384 142.065 121.426C142.397 122.64 142.667 123.87 142.873 125.112C142.978 125.807 143.026 126.613 142.445 126.942C141.658 127.387 140.613 126.522 138.531 124.803C136.174 122.861 132.961 120.197 129.479 119.158C128.065 118.738 127.042 118.839 126.429 119.46C124.848 121.065 125.938 125.859 126.492 127.571L125.496 127.891C125.405 127.616 123.341 121.114 125.68 118.731C126.586 117.81 127.964 117.619 129.778 118.161C133.452 119.259 136.773 122 139.196 124C140.189 124.82 141.4 125.821 141.888 125.987C141.901 125.748 141.886 125.508 141.842 125.272C141.639 124.064 141.376 122.868 141.052 121.687C140.533 119.679 140.223 118.47 140.937 117.894C141.536 117.411 142.476 117.776 143.319 118.196C147.044 120.054 151.811 127.651 152.023 127.974L151.125 128.523Z" fill="white"/>
<path d="M151.136 107.332C150.091 106.581 140.955 99.912 141.432 96.5426C141.505 96.0285 141.822 95.3373 142.908 94.9482C143.559 94.7155 144.252 94.4793 144.966 94.2361C148.065 93.194 152.744 91.5858 152.932 90.2762C152.981 89.9289 152.584 89.5815 152.236 89.3349C150.356 88.0219 149.506 86.1148 150.067 84.4718C150.415 83.4888 151.78 81.231 157.288 81.4915L157.236 82.5336C153.907 82.3772 151.595 83.2283 151.056 84.8122C150.648 86.0002 151.344 87.4418 152.835 88.4804C153.681 89.0709 154.057 89.7239 153.959 90.4221C153.702 92.2319 150.363 93.4963 145.293 95.2226C144.597 95.4658 143.901 95.6985 143.253 95.9174C142.605 96.1362 142.491 96.4627 142.459 96.6781C142.167 98.7622 147.995 103.785 151.738 106.474L151.136 107.332Z" fill="white"/>
<path d="M129.784 73.107C129.209 73.1209 128.643 72.9677 128.154 72.6659C125.843 71.1931 126.762 66.6461 126.817 66.4551L127.838 66.667C127.604 67.7889 127.301 70.8874 128.715 71.7871C129.617 72.3602 131.65 72.322 136.225 68.9005L136.852 69.7342C133.837 71.9885 131.5 73.107 129.784 73.107Z" fill="white"/>
<path d="M162.997 51.6582L161.88 51.1719L161.834 51.2379L161.225 52.1167L158.899 55.4896L159.415 55.8369L162.75 58.0566L163.795 58.7513L166.26 60.3908L169.874 56.4587L170.709 55.5486L171.058 55.17L162.997 51.6582ZM169.299 55.5347L168.582 56.3163L166.096 59.0222L163.795 57.4904L162.75 56.7956L160.365 55.2082L162.054 52.7767L162.256 52.4814H162.291L168.714 55.2603L169.299 55.5347Z" fill="black"/>
<path d="M59.4576 6.68133L38.8457 21.4043L53.6159 41.9811L74.2278 27.2581L59.4576 6.68133Z" fill="#F0C212"/>
<path d="M190.601 19.2123L181.227 25.9082L187.944 35.2664L197.318 28.5705L190.601 19.2123Z" fill="#F0C212"/>
<path d="M61.1674 150.146C1.73473 150.146 1.1115 149.767 0.808594 149.586L1.34478 148.694C1.31646 148.676 1.28605 148.662 1.25425 148.652C4.57231 149.475 152.329 148.999 230.002 148.617V149.659C229.434 149.659 172.554 149.934 116.22 150.069C93.7804 150.118 75.7104 150.146 61.1674 150.146Z" fill="black"/>
<path d="M56.6413 129.195C56.6413 129.195 49.4446 132.627 48.7169 138.07C47.9893 143.514 45.0786 135.892 40.709 136.98C36.3395 138.067 38.526 146.053 33.0702 143.875C27.6144 141.697 22.5241 145.688 15.9785 149.318H72.7163C72.7163 149.318 60.2066 148.62 56.6413 129.195Z" fill="black"/>
<path d="M152.355 148.953C152.355 148.953 159.267 147.866 162.174 144.962C165.081 142.058 168.723 148.953 170.182 146.775C171.641 144.597 170.909 139.158 172.003 139.884C173.096 140.61 174.903 146.775 177.076 144.587C179.248 142.398 174.691 137.07 179.339 131.939C179.339 131.939 181.96 147.282 193.339 148.839L152.355 148.953Z" fill="black"/>
<path d="M63.3464 35.0792L55.8781 23.7344L45.3878 30.6086L39.2217 34.6484L50.0811 51.1481L66.7341 40.2375L63.3464 35.0792ZM40.6666 34.9472L45.9936 31.4562L55.5648 25.1794L62.4829 35.687L65.2683 39.9318L50.3596 49.6996L40.6666 34.9472Z" fill="black"/>
</svg>
